<svg width="1774" height="826" viewBox="0 0 1774 826" fill="none" xmlns="http://www.w3.org/2000/svg">
<path opacity="0.65" fill-rule="evenodd" clip-rule="evenodd" d="M1182.26 494.972C1182.26 494.939 1182.28 494.912 1182.31 494.91C1229.5 492.468 1267 453.439 1267 405.65C1267 356.286 1226.98 316.268 1177.62 316.268C1172.23 316.268 1167.14 313.525 1164.32 308.929C1142.83 273.828 1104.12 250.409 1059.94 250.409C999.037 250.409 948.528 294.927 939.181 353.199C938.875 355.111 937.197 356.511 935.261 356.511C897.009 356.511 866 387.52 866 425.772C866 464.024 897.009 495.033 935.261 495.033C936.048 495.033 936.831 495.02 937.612 494.994C937.623 494.994 937.632 495.003 937.632 495.014C937.632 495.025 937.641 495.033 937.651 495.033H1059.94H1182.19C1182.23 495.033 1182.26 495.006 1182.26 494.972Z" fill="url(#paint0_linear_298_937)"/>
<path opacity="0.65" fill-rule="evenodd" clip-rule="evenodd" d="M316.256 560.563C316.256 560.53 316.282 560.503 316.315 560.501C363.496 558.059 401.001 519.03 401.001 471.241C401.001 421.877 360.983 381.859 311.619 381.859C306.229 381.859 301.138 379.116 298.323 374.519C276.825 339.419 238.12 316 193.944 316C133.037 316 82.5284 360.518 73.1814 418.79C72.8748 420.701 71.1971 422.102 69.2612 422.102C31.0093 422.102 -1.46109e-05 453.111 -1.46109e-05 491.363C-1.46109e-05 529.615 31.0093 560.624 69.2612 560.624C70.0478 560.624 70.8313 560.611 71.6116 560.585C71.6227 560.585 71.6319 560.594 71.6319 560.605C71.6319 560.615 71.6406 560.624 71.6514 560.624H193.944H316.194C316.228 560.624 316.256 560.597 316.256 560.563Z" fill="url(#paint1_linear_298_937)"/>
<path opacity="0.65" fill-rule="evenodd" clip-rule="evenodd" d="M1151.74 825.563C1151.74 825.53 1151.72 825.503 1151.69 825.501C1104.5 823.059 1067 784.03 1067 736.241C1067 686.877 1107.02 646.859 1156.38 646.859C1161.77 646.859 1166.86 644.116 1169.68 639.519C1191.18 604.419 1229.88 581 1274.06 581C1334.96 581 1385.47 625.518 1394.82 683.79C1395.13 685.701 1396.8 687.102 1398.74 687.102C1436.99 687.102 1468 718.111 1468 756.363C1468 794.615 1436.99 825.624 1398.74 825.624C1397.95 825.624 1397.17 825.611 1396.39 825.585C1396.38 825.585 1396.37 825.594 1396.37 825.605C1396.37 825.615 1396.36 825.624 1396.35 825.624H1274.06H1151.81C1151.77 825.624 1151.74 825.597 1151.74 825.563Z" fill="url(#paint2_linear_298_937)"/>
<path opacity="0.65" fill-rule="evenodd" clip-rule="evenodd" d="M780.776 727.532C780.776 727.495 780.805 727.465 780.842 727.463C833.919 724.716 876.11 680.809 876.11 627.049C876.11 571.516 831.092 526.498 775.56 526.498C769.496 526.498 763.769 523.412 760.602 518.241C736.418 478.755 692.875 452.409 643.179 452.409C574.662 452.409 517.841 502.49 507.326 568.044C506.981 570.194 505.094 571.77 502.916 571.77C459.884 571.77 425 606.654 425 649.686C425 692.717 459.884 727.602 502.916 727.602C503.801 727.602 504.683 727.587 505.56 727.558C505.573 727.557 505.583 727.567 505.583 727.58C505.583 727.592 505.593 727.602 505.605 727.602H643.179H780.706C780.745 727.602 780.776 727.571 780.776 727.532Z" fill="url(#paint3_linear_298_937)"/>
<path opacity="0.5" fill-rule="evenodd" clip-rule="evenodd" d="M1442.53 517.71C1442.53 517.69 1442.51 517.674 1442.49 517.673C1413.81 516.188 1391 492.455 1391 463.396C1391 433.38 1415.33 409.047 1445.35 409.047C1448.63 409.047 1451.72 407.379 1453.43 404.584C1466.51 383.24 1490.04 369 1516.9 369C1553.94 369 1584.65 396.07 1590.34 431.503C1590.52 432.665 1591.54 433.517 1592.72 433.517C1615.98 433.517 1634.83 452.373 1634.83 475.632C1634.83 498.892 1615.98 517.747 1592.72 517.747C1592.24 517.747 1591.76 517.739 1591.29 517.724C1591.28 517.723 1591.28 517.729 1591.28 517.736C1591.28 517.742 1591.27 517.747 1591.27 517.747H1516.9H1442.57C1442.55 517.747 1442.53 517.731 1442.53 517.71ZM1773.4 501.763C1773.4 520.45 1758.25 535.599 1739.56 535.599C1720.87 535.599 1705.73 520.45 1705.73 501.763C1705.73 483.076 1720.87 467.928 1739.56 467.928C1758.25 467.928 1773.4 483.076 1773.4 501.763Z" fill="white"/>
<path opacity="0.5" fill-rule="evenodd" clip-rule="evenodd" d="M149.53 173.71C149.53 173.69 149.515 173.674 149.495 173.673C120.805 172.188 98 148.455 98 119.396C98 89.3798 122.333 65.0466 152.35 65.0466C155.627 65.0466 158.723 63.3785 160.435 60.5836C173.507 39.2404 197.043 25 223.904 25C260.939 25 291.652 52.0699 297.336 87.503C297.522 88.6653 298.542 89.5169 299.719 89.5169C322.979 89.5169 341.835 108.373 341.835 131.632C341.835 154.892 322.979 173.747 299.719 173.747C299.241 173.747 298.765 173.739 298.29 173.724C298.283 173.723 298.278 173.729 298.278 173.736C298.278 173.742 298.273 173.747 298.266 173.747H223.904H149.568C149.547 173.747 149.53 173.731 149.53 173.71Z" fill="white"/>
<path opacity="0.95" fill-rule="evenodd" clip-rule="evenodd" d="M505.895 273.821C505.895 273.794 505.874 273.772 505.847 273.771C467.49 271.786 437 240.056 437 201.205C437 161.074 469.533 128.541 509.664 128.541C514.046 128.541 518.185 126.311 520.474 122.574C537.95 94.039 569.417 75 605.33 75C654.845 75 695.907 111.192 703.506 158.565C703.755 160.119 705.119 161.257 706.693 161.257C737.791 161.257 763 186.467 763 217.564C763 248.662 737.791 273.871 706.693 273.871C706.054 273.871 705.417 273.86 704.782 273.839C704.773 273.839 704.766 273.846 704.766 273.855C704.766 273.864 704.759 273.871 704.75 273.871H605.33H505.945C505.917 273.871 505.895 273.849 505.895 273.821Z" fill="url(#paint4_linear_298_937)"/>
<path opacity="0.95" fill-rule="evenodd" clip-rule="evenodd" d="M1308.89 198.821C1308.89 198.794 1308.87 198.772 1308.85 198.771C1270.49 196.786 1240 165.056 1240 126.205C1240 86.074 1272.53 53.5411 1312.66 53.5411C1317.05 53.5411 1321.18 51.311 1323.47 47.5743C1340.95 19.039 1372.42 0 1408.33 0C1457.85 0 1498.91 36.1916 1506.51 83.5647C1506.76 85.1187 1508.12 86.2572 1509.69 86.2572C1540.79 86.2572 1566 111.467 1566 142.564C1566 173.662 1540.79 198.871 1509.69 198.871C1509.05 198.871 1508.42 198.86 1507.78 198.839C1507.77 198.839 1507.77 198.846 1507.77 198.855C1507.77 198.864 1507.76 198.871 1507.75 198.871H1408.33H1308.94C1308.92 198.871 1308.89 198.849 1308.89 198.821Z" fill="url(#paint5_linear_298_937)"/>
<defs>
<linearGradient id="paint0_linear_298_937" x1="996.357" y1="274.794" x2="1043.68" y2="556.176" gradientUnits="userSpaceOnUse">
<stop stop-color="white"/>
<stop offset="1" stop-color="#FCFBF7" stop-opacity="0"/>
</linearGradient>
<linearGradient id="paint1_linear_298_937" x1="130.357" y1="340.385" x2="177.684" y2="621.767" gradientUnits="userSpaceOnUse">
<stop stop-color="white"/>
<stop offset="1" stop-color="#FCFBF7" stop-opacity="0"/>
</linearGradient>
<linearGradient id="paint2_linear_298_937" x1="1337.64" y1="605.385" x2="1290.32" y2="886.767" gradientUnits="userSpaceOnUse">
<stop stop-color="white"/>
<stop offset="1" stop-color="#FCFBF7" stop-opacity="0"/>
</linearGradient>
<linearGradient id="paint3_linear_298_937" x1="571.647" y1="479.842" x2="624.887" y2="796.385" gradientUnits="userSpaceOnUse">
<stop stop-color="white"/>
<stop offset="1" stop-color="#FCFBF7" stop-opacity="0"/>
</linearGradient>
<linearGradient id="paint4_linear_298_937" x1="657.024" y1="94.8243" x2="618.549" y2="323.578" gradientUnits="userSpaceOnUse">
<stop stop-color="white"/>
<stop offset="1" stop-color="#FCFBF7" stop-opacity="0"/>
</linearGradient>
<linearGradient id="paint5_linear_298_937" x1="1460.02" y1="19.8243" x2="1421.55" y2="248.578" gradientUnits="userSpaceOnUse">
<stop stop-color="white"/>
<stop offset="1" stop-color="#FCFBF7" stop-opacity="0"/>
</linearGradient>
</defs>
</svg>
