<svg width="1440" height="740" viewBox="0 0 1440 740" fill="none" xmlns="http://www.w3.org/2000/svg">
<path fill-rule="evenodd" clip-rule="evenodd" d="M670.421 632.434C670.421 632.4 670.448 632.372 670.481 632.371C718.816 629.869 757.236 589.886 757.236 540.93C757.236 490.36 716.241 449.365 665.671 449.365C660.15 449.365 654.934 446.554 652.05 441.846C630.027 405.888 590.376 381.897 545.121 381.897C482.727 381.897 430.984 427.502 421.408 487.198C421.094 489.156 419.376 490.591 417.392 490.591C378.206 490.591 346.439 522.357 346.439 561.544C346.439 600.73 378.206 632.497 417.392 632.497C418.198 632.497 419.001 632.483 419.8 632.457C419.812 632.456 419.821 632.465 419.821 632.477C419.821 632.488 419.83 632.497 419.841 632.497H545.121H670.358C670.393 632.497 670.421 632.469 670.421 632.434ZM113 605.567C113 637.05 138.522 662.571 170.004 662.571C201.486 662.571 227.008 637.05 227.008 605.567C227.008 574.085 201.486 548.564 170.004 548.564C138.522 548.564 113 574.085 113 605.567Z" fill="url(#paint0_linear_44_1465)"/>
<path opacity="0.65" fill-rule="evenodd" clip-rule="evenodd" d="M643.607 191.861C643.607 191.842 643.592 191.827 643.573 191.826C616.511 190.418 595 167.922 595 140.377C595 111.923 617.953 88.8575 646.266 88.8575C649.358 88.8575 652.278 87.2763 653.892 84.627C666.223 64.3954 688.423 50.8967 713.761 50.8967C748.695 50.8967 777.665 76.5567 783.026 110.144C783.202 111.246 784.164 112.053 785.274 112.053C807.214 112.053 825 129.927 825 151.975C825 174.023 807.214 191.897 785.274 191.897C784.823 191.897 784.374 191.889 783.926 191.874C783.92 191.874 783.914 191.879 783.914 191.885C783.914 191.892 783.909 191.897 783.903 191.897H713.761H643.642C643.623 191.897 643.607 191.881 643.607 191.861Z" fill="url(#paint1_linear_44_1465)"/>
<path opacity="0.65" fill-rule="evenodd" clip-rule="evenodd" d="M990.393 341.861C990.393 341.842 990.408 341.827 990.427 341.826C1017.49 340.418 1039 317.922 1039 290.377C1039 261.923 1016.05 238.857 987.734 238.857C984.642 238.857 981.722 237.276 980.108 234.627C967.777 214.395 945.577 200.897 920.239 200.897C885.305 200.897 856.335 226.557 850.974 260.144C850.798 261.246 849.836 262.053 848.726 262.053C826.786 262.053 809 279.927 809 301.975C809 324.023 826.786 341.897 848.726 341.897C849.177 341.897 849.626 341.889 850.074 341.874C850.08 341.874 850.086 341.879 850.086 341.885C850.086 341.892 850.091 341.897 850.097 341.897H920.239H990.358C990.377 341.897 990.393 341.881 990.393 341.861Z" fill="url(#paint2_linear_44_1465)"/>
<path opacity="0.65" fill-rule="evenodd" clip-rule="evenodd" d="M-18.0073 193.848C-18.0073 193.822 -18.0279 193.801 -18.0538 193.799C-55.3518 191.873 -85 161.08 -85 123.376C-85 84.4296 -53.3653 52.8572 -14.3419 52.8572C-10.081 52.8572 -6.05643 50.6929 -3.83099 47.0665C13.1635 19.3736 43.7613 0.896729 78.683 0.896729C126.831 0.896729 166.759 36.0199 174.148 81.9944C174.391 83.5025 175.717 84.6074 177.248 84.6074C207.486 84.6074 232 109.073 232 139.252C232 169.431 207.486 193.897 177.248 193.897C176.626 193.897 176.006 193.886 175.389 193.866C175.381 193.866 175.373 193.873 175.373 193.881C175.373 193.89 175.367 193.897 175.358 193.897H78.683H-17.9586C-17.9855 193.897 -18.0073 193.875 -18.0073 193.848Z" fill="url(#paint3_linear_44_1465)"/>
<path opacity="0.65" fill-rule="evenodd" clip-rule="evenodd" d="M60.3127 474.857C60.3127 474.836 60.296 474.819 60.275 474.818C30.0366 473.25 6 448.201 6 417.53C6 385.848 31.6471 360.165 63.2843 360.165C66.7387 360.165 70.0016 358.405 71.8058 355.455C85.5837 332.927 110.39 317.897 138.702 317.897C177.737 317.897 210.108 346.468 216.098 383.867C216.295 385.094 217.37 385.993 218.611 385.993C243.126 385.993 263 405.895 263 430.445C263 454.995 243.126 474.897 218.611 474.897C218.107 474.897 217.604 474.888 217.104 474.872C217.097 474.871 217.091 474.877 217.091 474.884C217.091 474.891 217.086 474.897 217.079 474.897H138.702H60.3522C60.3304 474.897 60.3127 474.879 60.3127 474.857Z" fill="url(#paint4_linear_44_1465)"/>
<path opacity="0.65" fill-rule="evenodd" clip-rule="evenodd" d="M1328.31 216.857C1328.31 216.836 1328.3 216.819 1328.27 216.818C1298.04 215.25 1274 190.201 1274 159.53C1274 127.848 1299.65 102.165 1331.28 102.165C1334.74 102.165 1338 100.405 1339.81 97.4545C1353.58 74.9272 1378.39 59.8967 1406.7 59.8967C1445.74 59.8967 1478.11 88.4684 1484.1 125.867C1484.29 127.094 1485.37 127.993 1486.61 127.993C1511.13 127.993 1531 147.895 1531 172.445C1531 196.995 1511.13 216.897 1486.61 216.897C1486.11 216.897 1485.6 216.888 1485.1 216.872C1485.1 216.871 1485.09 216.877 1485.09 216.884C1485.09 216.891 1485.09 216.897 1485.08 216.897H1406.7H1328.35C1328.33 216.897 1328.31 216.879 1328.31 216.857Z" fill="url(#paint5_linear_44_1465)"/>
<path fill-rule="evenodd" clip-rule="evenodd" d="M1166.82 709.434C1166.82 709.4 1166.79 709.372 1166.75 709.371C1118.42 706.869 1080 666.886 1080 617.93C1080 567.36 1121 526.365 1171.57 526.365C1177.09 526.365 1182.3 523.554 1185.19 518.846C1207.21 482.888 1246.86 458.897 1292.12 458.897C1354.51 458.897 1406.25 504.502 1415.83 564.198C1416.14 566.156 1417.86 567.591 1419.84 567.591C1459.03 567.591 1490.8 599.357 1490.8 638.544C1490.8 677.73 1459.03 709.497 1419.84 709.497C1419.04 709.497 1418.24 709.483 1417.44 709.457C1417.42 709.456 1417.42 709.465 1417.42 709.477C1417.42 709.488 1417.41 709.497 1417.4 709.497H1292.12H1166.88C1166.84 709.497 1166.82 709.469 1166.82 709.434ZM1724.24 682.567C1724.24 714.05 1698.71 739.571 1667.23 739.571C1635.75 739.571 1610.23 714.05 1610.23 682.567C1610.23 651.085 1635.75 625.564 1667.23 625.564C1698.71 625.564 1724.24 651.085 1724.24 682.567Z" fill="url(#paint6_linear_44_1465)" fill-opacity="0.5"/>
<defs>
<linearGradient id="paint0_linear_44_1465" x1="479.981" y1="406.878" x2="528.464" y2="695.133" gradientUnits="userSpaceOnUse">
<stop stop-color="white"/>
<stop offset="1" stop-color="#FCFBF7" stop-opacity="0"/>
</linearGradient>
<linearGradient id="paint1_linear_44_1465" x1="750.232" y1="64.9522" x2="722.826" y2="227.095" gradientUnits="userSpaceOnUse">
<stop stop-color="white"/>
<stop offset="1" stop-color="#FCFBF7" stop-opacity="0"/>
</linearGradient>
<linearGradient id="paint2_linear_44_1465" x1="883.768" y1="214.952" x2="911.174" y2="377.095" gradientUnits="userSpaceOnUse">
<stop stop-color="white"/>
<stop offset="1" stop-color="#FCFBF7" stop-opacity="0"/>
</linearGradient>
<linearGradient id="paint3_linear_44_1465" x1="128.95" y1="20.1358" x2="91.6802" y2="242.16" gradientUnits="userSpaceOnUse">
<stop stop-color="white"/>
<stop offset="1" stop-color="#FCFBF7" stop-opacity="0"/>
</linearGradient>
<linearGradient id="paint4_linear_44_1465" x1="179.454" y1="333.547" x2="149.04" y2="514.124" gradientUnits="userSpaceOnUse">
<stop stop-color="white"/>
<stop offset="1" stop-color="#FCFBF7" stop-opacity="0"/>
</linearGradient>
<linearGradient id="paint5_linear_44_1465" x1="1447.45" y1="75.5472" x2="1417.04" y2="256.124" gradientUnits="userSpaceOnUse">
<stop stop-color="white"/>
<stop offset="1" stop-color="#FCFBF7" stop-opacity="0"/>
</linearGradient>
<linearGradient id="paint6_linear_44_1465" x1="1357.26" y1="483.878" x2="1308.77" y2="772.133" gradientUnits="userSpaceOnUse">
<stop stop-color="white"/>
<stop offset="1" stop-color="#FCFBF7" stop-opacity="0"/>
</linearGradient>
</defs>
</svg>
