<svg width="84" height="84" viewBox="0 0 84 84" fill="none" xmlns="http://www.w3.org/2000/svg">
<path d="M38.1165 10.7252C38.7618 8.64849 40.9682 7.488 43.045 8.13316L65.7116 15.1749C67.7882 15.8201 68.9487 18.0267 68.3036 20.1033L61.2618 42.7699C60.6166 44.8467 58.4101 46.0071 56.3334 45.362L33.6668 38.3202C31.5901 37.6751 30.4296 35.4685 31.0748 33.3919L38.1165 10.7252Z" fill="url(#paint0_linear_393_3106)"/>
<path d="M41.3131 12.816C41.5282 12.1238 42.2636 11.737 42.956 11.952L63.62 18.3717C64.3122 18.5868 64.6991 19.3223 64.484 20.0145L58.0644 40.6785C57.8493 41.3709 57.1138 41.7576 56.4216 41.5425L35.7574 35.123C35.0652 34.9078 34.6784 34.1723 34.8934 33.4801L41.3131 12.816Z" fill="url(#paint1_linear_393_3106)"/>
<g style="mix-blend-mode:multiply">
<path fill-rule="evenodd" clip-rule="evenodd" d="M51.7407 20.1455C52.2222 20.2951 52.5754 20.7074 52.6496 21.2061L54.4755 33.5027C54.582 34.2197 54.087 34.8873 53.37 34.9937C52.653 35.1001 51.9854 34.6052 51.879 33.8882L51.2671 29.7682L46.6781 28.3426L43.8394 31.3906C43.3454 31.9211 42.5148 31.9507 41.9845 31.4566C41.4539 30.9626 41.4244 30.1321 41.9184 29.6016L50.3908 20.5045C50.7344 20.1354 51.2591 19.996 51.7407 20.1455ZM48.6636 26.2106L50.8392 26.8865L50.4535 24.2888L48.6636 26.2106Z" fill="#565076"/>
</g>
<path d="M4.72805 53.4523C3.59023 51.5992 4.17017 49.1745 6.02337 48.0367L26.2504 35.6177C28.1036 34.4799 30.5283 35.0599 31.6661 36.913L44.0849 57.14C45.2228 58.9933 44.6429 61.4179 42.7896 62.5558L22.5627 74.9747C20.7095 76.1125 18.2847 75.5325 17.1469 73.6794L4.72805 53.4523Z" fill="url(#paint2_linear_393_3106)"/>
<path d="M8.46176 52.4368C8.08248 51.819 8.2758 51.0109 8.89353 50.6316L27.2659 39.3514C27.8835 38.9721 28.6918 39.1655 29.0711 39.7831L40.3512 58.1555C40.7306 58.7732 40.5372 59.5814 39.9194 59.9607L21.5472 71.2409C20.9294 71.6202 20.1212 71.4268 19.742 70.809L8.46176 52.4368Z" fill="url(#paint3_linear_393_3106)"/>
<g style="mix-blend-mode:multiply">
<path fill-rule="evenodd" clip-rule="evenodd" d="M16.6131 52.6374C16.2338 52.0197 16.4272 51.2115 17.045 50.8322L19.8489 49.1107C21.9592 47.8149 24.7206 48.4753 26.0164 50.5858C26.5005 51.3743 26.7115 52.2535 26.676 53.1133C28.1967 53.1002 29.6866 53.8613 30.5402 55.2518C31.836 57.3621 31.1756 60.1235 29.0651 61.4193L25.0567 63.8804C24.4391 64.2596 23.6308 64.0664 23.2515 63.4487L16.6131 52.6374ZM23.1812 54.5081C24.0456 53.9675 24.3138 52.8298 23.7794 51.9592C23.2422 51.0843 22.0973 50.8104 21.2223 51.3477L19.5369 52.3825L21.4824 55.5512L23.1812 54.5081ZM22.8559 57.7882L24.5413 56.7534C24.5483 56.7492 24.5551 56.7449 24.562 56.7405L25.746 56.0135C26.6211 55.4763 27.766 55.7501 28.3032 56.6252C28.8405 57.5002 28.5666 58.6451 27.6916 59.1823L24.8017 60.9567L22.8559 57.7882Z" fill="#565076"/>
</g>
<path d="M44.6768 49.3623C44.6768 47.1876 46.4396 45.4248 48.6143 45.4248H72.3494C74.5241 45.4248 76.2869 47.1876 76.2869 49.3623V73.0976C76.2869 75.2721 74.5241 77.0351 72.3494 77.0351H48.6143C46.4396 77.0351 44.6768 75.2721 44.6768 73.0976V49.3623Z" fill="url(#paint4_linear_393_3106)"/>
<path d="M48.3906 50.4504C48.3906 49.7255 48.9782 49.1379 49.7031 49.1379H71.2619C71.9868 49.1379 72.5744 49.7255 72.5744 50.4504V72.0093C72.5744 72.7341 71.9868 73.3218 71.2619 73.3218H49.7031C48.9782 73.3218 48.3906 72.7341 48.3906 72.0093V50.4504Z" fill="url(#paint5_linear_393_3106)"/>
<g style="mix-blend-mode:multiply">
<path fill-rule="evenodd" clip-rule="evenodd" d="M64.2772 58.2452C62.629 56.597 59.9567 56.597 58.3084 58.2452C56.6601 59.8935 56.6601 62.5659 58.3084 64.2141C59.9567 65.8623 62.629 65.8623 64.2772 64.2141C64.7898 63.7016 65.6208 63.7016 66.1334 64.2141C66.646 64.7266 66.646 65.5577 66.1334 66.0702C63.4601 68.7437 59.1257 68.7437 56.4522 66.0702C53.7789 63.3968 53.7789 59.0624 56.4522 56.3891C59.1257 53.7157 63.4601 53.7157 66.1334 56.3891C66.646 56.9016 66.646 57.7327 66.1334 58.2452C65.6208 58.7578 64.7898 58.7578 64.2772 58.2452Z" fill="#565076"/>
</g>
<defs>
<linearGradient id="paint0_linear_393_3106" x1="54.3783" y1="11.654" x2="60.1089" y2="45.2112" gradientUnits="userSpaceOnUse">
<stop stop-color="#FFE079"/>
<stop offset="1" stop-color="#FDB154"/>
</linearGradient>
<linearGradient id="paint1_linear_393_3106" x1="57.0437" y1="37.6666" x2="39.6802" y2="12.9853" gradientUnits="userSpaceOnUse">
<stop stop-color="#FFE079"/>
<stop offset="1" stop-color="#FDB154"/>
</linearGradient>
<linearGradient id="paint2_linear_393_3106" x1="13.6642" y1="41.277" x2="42.6982" y2="51.8427" gradientUnits="userSpaceOnUse">
<stop stop-color="#FF93AB"/>
<stop offset="1" stop-color="#F76453"/>
</linearGradient>
<linearGradient id="paint3_linear_393_3106" x1="39.9469" y1="57.4967" x2="9.75529" y2="60.2447" gradientUnits="userSpaceOnUse">
<stop stop-color="#FF93AB"/>
<stop offset="1" stop-color="#F76453"/>
</linearGradient>
<linearGradient id="paint4_linear_393_3106" x1="93.835" y1="50.2505" x2="34.0286" y2="71.3399" gradientUnits="userSpaceOnUse">
<stop offset="0.400572" stop-color="#74A551"/>
<stop offset="1" stop-color="#D2F2D2"/>
</linearGradient>
<linearGradient id="paint5_linear_393_3106" x1="49.9916" y1="50.4224" x2="71.7151" y2="75.5475" gradientUnits="userSpaceOnUse">
<stop stop-color="#74A551"/>
<stop offset="1" stop-color="#D2F2D2"/>
</linearGradient>
</defs>
</svg>
