<svg width="143" height="143" viewBox="0 0 143 143" fill="none" xmlns="http://www.w3.org/2000/svg">
<path d="M40.3198 74.0618C40.3198 66.6577 46.322 60.6555 53.7261 60.6555H89.2752C96.6793 60.6555 102.681 66.6577 102.681 74.0618V120.746C102.681 128.15 96.6793 134.152 89.2752 134.152H53.7261C46.322 134.152 40.3198 128.15 40.3198 120.746V74.0618Z" fill="url(#paint0_linear_246_1626)"/>
<path fill-rule="evenodd" clip-rule="evenodd" d="M71.5016 16.137C67.646 16.137 64.5203 19.2626 64.5203 23.1183V25.1261C64.5203 28.0163 62.6075 30.4965 60.1271 31.9799C53.6478 35.8552 49.3096 42.9406 49.3096 51.0393C49.3096 53.8012 51.5486 56.0405 54.3108 56.0405H88.6927C91.4546 56.0405 93.6939 53.8012 93.6939 51.0393C93.6939 42.9406 89.3556 35.8552 82.8764 31.9799C80.396 30.4965 78.4829 28.0163 78.4829 25.1261V23.1183C78.4829 19.2626 75.3575 16.137 71.5016 16.137Z" fill="url(#paint1_linear_246_1626)"/>
<path d="M47.1865 87.1041C70.9507 87.1041 83.0688 77.3475 96.1312 87.1041V119.431C96.1312 123.133 93.13 126.134 89.4281 126.134H53.8896C50.1877 126.134 47.1865 123.133 47.1865 119.431V87.1041Z" fill="url(#paint2_linear_246_1626)"/>
<path fill-rule="evenodd" clip-rule="evenodd" d="M51.4524 81.2231C51.4524 79.9891 52.4527 78.9888 53.6868 78.9888H66.9053C68.1394 78.9888 69.1397 79.9891 69.1397 81.2231C69.1397 82.457 68.1394 83.4575 66.9053 83.4575H53.6868C52.4527 83.4575 51.4524 82.457 51.4524 81.2231Z" fill="#2E2A42"/>
<path fill-rule="evenodd" clip-rule="evenodd" d="M51.4524 104.925C51.4524 103.691 52.4527 102.691 53.6868 102.691H66.9053C68.1394 102.691 69.1397 103.691 69.1397 104.925C69.1397 106.159 68.1394 107.159 66.9053 107.159H53.6868C52.4527 107.159 51.4524 106.159 51.4524 104.925Z" fill="#2E2A42"/>
<path fill-rule="evenodd" clip-rule="evenodd" d="M51.4524 93.0735C51.4524 91.8394 52.4527 90.8391 53.6868 90.8391H74.8068C76.0408 90.8391 77.0411 91.8394 77.0411 93.0735C77.0411 94.3075 76.0408 95.3079 74.8068 95.3079H53.6868C52.4527 95.3079 51.4524 94.3075 51.4524 93.0735Z" fill="#2E2A42"/>
<path fill-rule="evenodd" clip-rule="evenodd" d="M51.4524 116.776C51.4524 115.542 52.4527 114.541 53.6868 114.541H74.8068C76.0408 114.541 77.0411 115.542 77.0411 116.776C77.0411 118.01 76.0408 119.01 74.8068 119.01H53.6868C52.4527 119.01 51.4524 118.01 51.4524 116.776Z" fill="#2E2A42"/>
<path d="M42.7896 53.1123C42.7896 50.6442 44.7904 48.6436 47.2583 48.6436H95.7447C98.2128 48.6436 100.213 50.6442 100.213 53.1123V60.7612C100.213 63.2293 98.2128 65.23 95.7447 65.23H47.2583C44.7904 65.23 42.7896 63.2293 42.7896 60.7612V53.1123Z" fill="url(#paint3_linear_246_1626)"/>
<path d="M33.5592 8.60884C33.3525 6.56235 30.3705 6.56235 30.1638 8.60884L29.9866 10.3634C29.5534 14.6529 26.3185 18.13 22.0715 18.8716C20.5546 19.1364 20.5546 21.3138 22.0715 21.5786C26.3185 22.3202 29.5534 25.7973 29.9866 30.0869L30.1638 31.8413C30.3705 33.8878 33.3525 33.8878 33.5592 31.8413L33.7364 30.0869C34.1696 25.7973 37.4043 22.3202 41.6514 21.5786C43.1683 21.3138 43.1683 19.1364 41.6514 18.8716C37.4043 18.13 34.1696 14.6529 33.7364 10.3634L33.5592 8.60884Z" fill="url(#paint4_linear_246_1626)"/>
<path d="M17.9104 30.3637C17.7839 29.1118 15.9595 29.1118 15.833 30.3637L15.7246 31.4374C15.4595 34.0616 13.4805 36.189 10.8821 36.6428C9.95402 36.8048 9.95402 38.1369 10.8821 38.2989C13.4805 38.7527 15.4595 40.8801 15.7246 43.5043L15.833 44.5777C15.9595 45.8299 17.7839 45.8299 17.9104 44.5777L18.0188 43.5043C18.2839 40.8801 20.2629 38.7527 22.8612 38.2989C23.7894 38.1369 23.7894 36.8048 22.8612 36.6428C20.2629 36.189 18.2839 34.0616 18.0188 31.4374L17.9104 30.3637Z" fill="url(#paint5_linear_246_1626)"/>
<path d="M121.803 124.814C121.98 126.574 124.544 126.574 124.722 124.814L124.874 123.306C125.247 119.617 128.028 116.627 131.68 115.99C132.985 115.762 132.985 113.89 131.68 113.662C128.028 113.024 125.247 110.034 124.874 106.346L124.722 104.837C124.544 103.078 121.98 103.078 121.803 104.837L121.65 106.346C121.278 110.034 118.496 113.024 114.844 113.662C113.54 113.89 113.54 115.762 114.844 115.99C118.496 116.627 121.278 119.617 121.65 123.306L121.803 124.814Z" fill="url(#paint6_linear_246_1626)"/>
<defs>
<linearGradient id="paint0_linear_246_1626" x1="75.9078" y1="86.7097" x2="76.8945" y2="151.408" gradientUnits="userSpaceOnUse">
<stop stop-color="#AFDDFF"/>
<stop offset="1" stop-color="#917BFF"/>
</linearGradient>
<linearGradient id="paint1_linear_246_1626" x1="71.5016" y1="16.137" x2="109.372" y2="96.9504" gradientUnits="userSpaceOnUse">
<stop stop-color="#FFE079"/>
<stop offset="1" stop-color="#FDB154"/>
</linearGradient>
<linearGradient id="paint2_linear_246_1626" x1="71.6587" y1="82.7678" x2="73.478" y2="206.102" gradientUnits="userSpaceOnUse">
<stop offset="0.163366" stop-color="#FCFBF7"/>
<stop offset="1" stop-color="#FFE079"/>
</linearGradient>
<linearGradient id="paint3_linear_246_1626" x1="42.7896" y1="56.9369" x2="61.8921" y2="99.7634" gradientUnits="userSpaceOnUse">
<stop offset="0.0323058" stop-color="#FF93AB"/>
<stop offset="1" stop-color="#FDB154"/>
</linearGradient>
<linearGradient id="paint4_linear_246_1626" x1="20.5833" y1="35.1372" x2="46.9165" y2="14.7934" gradientUnits="userSpaceOnUse">
<stop offset="0.400572" stop-color="#FF93AB"/>
<stop offset="1" stop-color="#FDB154"/>
</linearGradient>
<linearGradient id="paint5_linear_246_1626" x1="20.5833" y1="35.1373" x2="46.9165" y2="14.7934" gradientUnits="userSpaceOnUse">
<stop offset="0.400572" stop-color="#FF93AB"/>
<stop offset="1" stop-color="#FDB154"/>
</linearGradient>
<linearGradient id="paint6_linear_246_1626" x1="131.533" y1="112.653" x2="120.585" y2="117.384" gradientUnits="userSpaceOnUse">
<stop stop-color="#FFE079"/>
<stop offset="0.863066" stop-color="#FEB85A"/>
</linearGradient>
</defs>
</svg>
