<svg width="56" height="49" viewBox="0 0 56 49" fill="none" xmlns="http://www.w3.org/2000/svg">
<path fill-rule="evenodd" clip-rule="evenodd" d="M55.6639 19.4897H2.6272C2.6272 28.3845 7.27878 36.1573 14.2069 40.3556V43.2829C14.2069 44.5874 14.7854 45.8486 15.9534 46.3454C22.1762 48.992 37.4251 49.234 42.7882 46.3211C43.7073 45.8219 44.0842 44.7531 44.0842 43.6808V40.3556C51.0124 36.1573 55.6639 28.3845 55.6639 19.4897Z" fill="url(#paint0_linear_47_2746)"/>
<path d="M55.6639 19.4896C55.6639 23.4839 43.7913 26.7219 29.1456 26.7219C14.4999 26.7219 2.6272 23.4839 2.6272 19.4896C2.6272 15.4953 14.4999 12.2573 29.1456 12.2573C43.7913 12.2573 55.6639 15.4953 55.6639 19.4896Z" fill="url(#paint1_linear_47_2746)"/>
<path d="M50.8454 18.2842C50.8454 21.6128 41.1313 24.3111 29.1485 24.3111C17.1657 24.3111 7.45166 21.6128 7.45166 18.2842C7.45166 14.9557 17.1657 12.2573 29.1485 12.2573C41.1313 12.2573 50.8454 14.9557 50.8454 18.2842Z" fill="#2E2A42"/>
<path fill-rule="evenodd" clip-rule="evenodd" d="M17.1434 41.6072C17.2946 41.2887 17.7985 41.1134 18.269 41.2157C23.837 42.4264 28.5596 42.526 35.443 42.2724C35.9364 42.2542 36.3582 42.5102 36.3851 42.8443C36.4119 43.1784 36.0337 43.4639 35.5403 43.4821C28.5773 43.7386 23.5981 43.6469 17.7217 42.3692C17.2512 42.2669 16.9923 41.9257 17.1434 41.6072Z" fill="#2E2A42"/>
<path d="M36.7588 23.8669C34.0623 24.1525 31.0941 24.3105 27.9772 24.3105C20.6361 24.3105 14.1199 23.4338 10.0353 22.0792C8.30466 21.5052 7.01056 20.8455 6.27526 20.1303L6.08183 19.9756C3.01254 17.0214 0.906782 13.1596 0.248029 8.85286C-7.35074e-05 7.23085 1.43288 5.87527 3.13549 6.1213C6.99554 6.67907 10.5084 8.23896 13.3732 10.5128C13.7706 8.74038 14.5092 7.08242 15.6104 5.69637C16.2015 4.95241 17.4749 4.79756 18.2435 5.37617C21.7535 8.01855 23.587 12.7634 23.4325 17.2913C28.5095 15.9025 34.6025 16.8252 38.2455 20.1117C38.9568 20.7534 38.9772 21.975 38.2877 22.6379C37.8198 23.0878 37.3075 23.4975 36.7588 23.8669Z" fill="url(#paint2_linear_47_2746)"/>
<path d="M50.4925 19.5071C49.6209 21.8038 44.9941 23.6756 38.8879 24.3111C38.1998 18.9789 41.0258 11.3124 49.0296 12.3531C49.9377 12.4712 50.6792 13.4245 50.7782 14.6641C50.8983 16.1676 50.8461 17.5155 50.6485 18.7155C50.646 18.7166 50.6434 18.7178 50.6408 18.719C50.6408 18.7342 50.6406 18.7495 50.6403 18.7648C50.5975 19.0189 50.5481 19.2663 50.4925 19.5071Z" fill="url(#paint3_linear_47_2746)"/>
<path fill-rule="evenodd" clip-rule="evenodd" d="M49.9825 6.62426C51.4821 4.75741 50.9864 2.00294 48.9291 0.770423C47.0895 -0.331638 44.703 0.222081 43.5425 2.02026L29.1555 24.3117C31.6769 24.2544 33.5156 24.1872 36.0721 23.9411L49.9825 6.62426Z" fill="url(#paint4_linear_47_2746)"/>
<defs>
<linearGradient id="paint0_linear_47_2746" x1="48.7358" y1="39.6989" x2="28.2785" y2="5.51005" gradientUnits="userSpaceOnUse">
<stop offset="0.436765" stop-color="#FF93AB"/>
<stop offset="1" stop-color="#FDB154"/>
</linearGradient>
<linearGradient id="paint1_linear_47_2746" x1="2.6272" y1="19.4896" x2="16.9377" y2="47.1696" gradientUnits="userSpaceOnUse">
<stop offset="0.400572" stop-color="#FF93AB"/>
<stop offset="1" stop-color="#FDB154"/>
</linearGradient>
<linearGradient id="paint2_linear_47_2746" x1="13.4897" y1="17.8121" x2="-3.70549" y2="3.33702" gradientUnits="userSpaceOnUse">
<stop stop-color="#74A551"/>
<stop offset="1" stop-color="#FFDF78"/>
</linearGradient>
<linearGradient id="paint3_linear_47_2746" x1="44.8006" y1="20.9412" x2="50.4013" y2="20.1622" gradientUnits="userSpaceOnUse">
<stop stop-color="#74A551"/>
<stop offset="1" stop-color="#FFDF78"/>
</linearGradient>
<linearGradient id="paint4_linear_47_2746" x1="43.1118" y1="9.75893" x2="27.2581" y2="32.5654" gradientUnits="userSpaceOnUse">
<stop stop-color="#AFDDFF"/>
<stop offset="1" stop-color="#917BFF"/>
</linearGradient>
</defs>
</svg>
