<svg width="334" height="168" viewBox="0 0 334 168" fill="none" xmlns="http://www.w3.org/2000/svg">
<g clip-path="url(#clip0_239_1514)">
<g filter="url(#filter0_d_239_1514)">
<path d="M84.6663 9.54252C84.6663 4.31656 88.9027 0.0800781 94.1287 0.0800781H288.621C293.846 0.0800781 298.083 4.31656 298.083 9.54253V38.5751C298.083 39.3217 297.478 39.9269 296.731 39.9269H94.1287C88.9028 39.9269 84.6663 35.6904 84.6663 30.4645V9.54252Z" fill="#D7BEFC"/>
<path d="M94.585 16.1362V8.54456H99.2568V9.42051H95.5583V11.8646H98.4565V12.7297H95.5583V15.2494H99.2568V16.1362H94.585ZM100.645 10.675H101.38L101.553 11.432C101.781 10.8697 102.408 10.5344 103.046 10.5344C103.76 10.5344 104.387 10.9345 104.538 11.6699C104.808 10.9345 105.479 10.5344 106.258 10.5344C107.155 10.5344 107.977 11.0968 107.977 12.2755V16.1362H107.058V12.6216C107.058 11.8321 106.636 11.4104 106.02 11.4104C105.328 11.4104 104.765 11.9078 104.765 12.827V16.1362H103.846V12.6216C103.846 11.8321 103.435 11.4104 102.808 11.4104C102.127 11.4104 101.564 11.9078 101.564 12.827V16.1362H100.645V10.675ZM109.696 10.675H110.431L110.604 11.432C110.831 10.8697 111.458 10.5344 112.096 10.5344C112.81 10.5344 113.437 10.9345 113.589 11.6699C113.859 10.9345 114.53 10.5344 115.308 10.5344C116.206 10.5344 117.028 11.0968 117.028 12.2755V16.1362H116.108V12.6216C116.108 11.8321 115.687 11.4104 115.07 11.4104C114.378 11.4104 113.816 11.9078 113.816 12.827V16.1362H112.897V12.6216C112.897 11.8321 112.486 11.4104 111.858 11.4104C111.177 11.4104 110.615 11.9078 110.615 12.827V16.1362H109.696V10.675ZM119.233 8.30664C119.644 8.30664 119.936 8.60944 119.936 9.00957C119.936 9.39888 119.644 9.71249 119.233 9.71249C118.811 9.71249 118.53 9.39888 118.53 9.00957C118.53 8.60944 118.811 8.30664 119.233 8.30664ZM118.768 16.1362V10.675H119.698V16.1362H118.768ZM124.851 8.30664C125.262 8.30664 125.554 8.60944 125.554 9.00957C125.554 9.39888 125.262 9.71249 124.851 9.71249C124.429 9.71249 124.148 9.39888 124.148 9.00957C124.148 8.60944 124.429 8.30664 124.851 8.30664ZM124.386 16.1362V10.675H125.316V16.1362H124.386ZM129.944 11.9943C129.771 11.5293 129.306 11.313 128.841 11.313C128.3 11.313 127.911 11.605 127.911 12.0809C127.911 12.6216 128.451 12.7838 129.014 12.9567L129.425 13.0758C130.073 13.2704 130.928 13.53 130.928 14.5573C130.928 15.6171 130.009 16.2335 128.895 16.2335C127.878 16.2335 126.948 15.7253 126.656 14.6979L127.446 14.4275C127.651 15.1197 128.3 15.4549 128.949 15.4549C129.522 15.4549 130.03 15.1954 130.03 14.6546C130.03 14.1247 129.554 13.9409 129.014 13.7787L128.624 13.6705C127.954 13.4866 127.013 13.1947 127.013 12.1133C127.013 11.1076 127.835 10.5344 128.862 10.5344C129.706 10.5344 130.376 10.9021 130.668 11.6375L129.944 11.9943ZM142.046 10.675L140.37 16.1362H139.245L138.045 11.9403L136.834 16.1362H135.709L134.033 10.675H135.006L136.282 15.0115L137.472 10.675H138.607L139.797 15.0115L141.084 10.675H142.046ZM144.396 16.2335C143.52 16.2335 142.774 15.7361 142.774 14.6871C142.774 13.4975 143.758 13.2164 144.644 12.9893L145.261 12.8379C145.726 12.7189 146.126 12.6108 146.126 12.1025C146.126 11.5834 145.704 11.313 145.012 11.313C144.255 11.313 143.736 11.6915 143.574 12.2647L142.806 11.9727C143.12 11.0211 144.017 10.5344 145.077 10.5344C146.277 10.5344 147.056 11.1076 147.056 12.3404V15.0007C147.056 15.3251 147.229 15.4764 147.456 15.4764C147.564 15.4764 147.683 15.4333 147.813 15.3576V16.0389C147.64 16.1686 147.413 16.2335 147.175 16.2335C146.699 16.2335 146.223 15.9307 146.191 15.1954C145.91 15.8226 145.174 16.2335 144.396 16.2335ZM143.714 14.6114C143.714 15.2277 144.147 15.4549 144.666 15.4549C145.434 15.4549 146.137 14.9034 146.137 13.8976V13.1839C145.921 13.3569 145.629 13.4434 145.272 13.5408L144.731 13.6705C144.19 13.8111 143.714 13.9625 143.714 14.6114ZM149.003 8.38234H149.922V13.0001L152.085 10.675H153.328L151.49 12.5782L153.631 16.1362H152.55L150.852 13.2596L149.922 14.2113V16.1362H149.003V8.38234ZM155.277 8.30664C155.688 8.30664 155.98 8.60944 155.98 9.00957C155.98 9.39888 155.688 9.71249 155.277 9.71249C154.855 9.71249 154.574 9.39888 154.574 9.00957C154.574 8.60944 154.855 8.30664 155.277 8.30664ZM154.812 16.1362V10.675H155.742V16.1362H154.812ZM157.536 10.675H158.271L158.455 11.4536C158.78 10.8805 159.342 10.5344 160.175 10.5344C161.202 10.5344 162.013 11.1292 162.013 12.4918V16.1362H161.094V12.7081C161.094 11.8429 160.607 11.4104 159.926 11.4104C159.093 11.4104 158.455 12.0268 158.455 13.0001V16.1362H157.536V10.675ZM168.926 9.84226C168.926 10.4263 168.482 11.2049 167.78 11.2482C168.104 11.6267 168.277 12.0809 168.277 12.5567C168.277 13.6165 167.498 14.5789 166.06 14.5789C165.682 14.5789 165.303 14.5032 164.957 14.2978C164.622 14.3951 164.449 14.6655 164.449 14.925C164.449 15.2494 164.676 15.5414 165.152 15.5414H167.271C168.364 15.5414 168.872 16.2011 168.872 16.904C168.872 17.7043 168.245 18.5369 166.968 18.5369H165.119C163.995 18.5369 163.454 17.8123 163.454 17.1202C163.454 16.6011 163.767 16.1146 164.362 15.9848C163.93 15.8118 163.724 15.4116 163.724 15.0223C163.724 14.5681 163.995 14.1247 164.503 13.9733C164.124 13.6273 163.941 13.1082 163.941 12.5782C163.941 11.486 164.752 10.5344 166.049 10.5344C166.644 10.5344 166.968 10.7831 167.325 10.7831C167.671 10.7831 167.963 10.4371 167.963 9.84226H168.926ZM164.308 17.0013C164.308 17.4123 164.643 17.7907 165.346 17.7907H167.023C167.671 17.7907 168.017 17.4015 168.017 17.0013C168.017 16.6336 167.736 16.32 167.174 16.32H165.498C165.26 16.32 165.033 16.3091 164.827 16.2767C164.492 16.374 164.308 16.6877 164.308 17.0013ZM164.795 12.5567C164.795 13.1947 165.227 13.8219 166.103 13.8219C166.979 13.8219 167.423 13.2055 167.423 12.5567C167.423 11.9186 166.99 11.2806 166.114 11.2806C165.227 11.2806 164.795 11.9186 164.795 12.5567ZM177.345 10.675V16.1362H176.598L176.425 15.3251C176.09 15.8983 175.593 16.2335 174.76 16.2335C173.711 16.2335 172.922 15.6387 172.922 14.2761V10.675H173.841V14.0707C173.841 14.9358 174.306 15.3576 174.987 15.3576C175.82 15.3576 176.425 14.752 176.425 13.7787V10.675H177.345ZM179.122 10.675H179.857L180.074 11.5726C180.398 10.848 181.166 10.5344 181.901 10.5344C183.437 10.5344 184.248 11.8321 184.248 13.3029C184.248 14.7628 183.469 16.1362 181.869 16.1362C181.134 16.1362 180.398 15.8442 180.041 15.1197V18.3315H179.122V10.675ZM180.041 13.4002C180.041 14.3951 180.56 15.2711 181.663 15.2711C182.788 15.2711 183.307 14.341 183.307 13.3461C183.307 12.3404 182.777 11.4212 181.696 11.4212C180.571 11.4212 180.041 12.3945 180.041 13.4002ZM191.514 16.1362V14.2978H187.902V13.3137L190.811 8.66351H191.925L188.951 13.3786H191.514V11.6158H192.466V13.3786H193.72V14.2978H192.466V16.1362H191.514ZM197.07 10.675H198V9.43132L198.93 9.08527V10.675H200.087V11.4861H198.93V14.6222C198.93 15.1737 199.189 15.39 199.579 15.39C199.741 15.39 199.914 15.3576 200.087 15.2711V16.0821C199.838 16.1903 199.568 16.2335 199.319 16.2335C198.616 16.2335 198 15.8226 198 14.6979V11.4861H197.07V10.675ZM201.892 8.30664C202.303 8.30664 202.595 8.60944 202.595 9.00957C202.595 9.39888 202.303 9.71249 201.892 9.71249C201.47 9.71249 201.189 9.39888 201.189 9.00957C201.189 8.60944 201.47 8.30664 201.892 8.30664ZM201.427 16.1362V10.675H202.357V16.1362H201.427ZM204.151 10.675H204.886L205.059 11.432C205.287 10.8697 205.914 10.5344 206.552 10.5344C207.266 10.5344 207.893 10.9345 208.044 11.6699C208.315 10.9345 208.985 10.5344 209.764 10.5344C210.661 10.5344 211.483 11.0968 211.483 12.2755V16.1362H210.564V12.6216C210.564 11.8321 210.142 11.4104 209.526 11.4104C208.834 11.4104 208.271 11.9078 208.271 12.827V16.1362H207.352V12.6216C207.352 11.8321 206.941 11.4104 206.314 11.4104C205.633 11.4104 205.07 11.9078 205.07 12.827V16.1362H204.151V10.675ZM217.625 13.6705H213.732C213.84 14.8709 214.564 15.3684 215.44 15.3684C216.1 15.3684 216.576 15.0764 216.9 14.4924L217.581 14.9466C217.073 15.8334 216.24 16.2335 215.365 16.2335C214.013 16.2335 212.823 15.3359 212.823 13.411C212.823 11.4861 214.067 10.5344 215.354 10.5344C216.522 10.5344 217.625 11.2698 217.625 13.0649V13.6705ZM213.742 12.9784H216.716C216.716 11.8538 216.1 11.3563 215.343 11.3563C214.564 11.3563 213.872 11.8862 213.742 12.9784ZM221.854 11.9943C221.681 11.5293 221.216 11.313 220.751 11.313C220.21 11.313 219.821 11.605 219.821 12.0809C219.821 12.6216 220.362 12.7838 220.924 12.9567L221.335 13.0758C221.984 13.2704 222.838 13.53 222.838 14.5573C222.838 15.6171 221.919 16.2335 220.805 16.2335C219.788 16.2335 218.858 15.7253 218.566 14.6979L219.356 14.4275C219.561 15.1197 220.21 15.4549 220.859 15.4549C221.432 15.4549 221.94 15.1954 221.94 14.6546C221.94 14.1247 221.465 13.9409 220.924 13.7787L220.535 13.6705C219.864 13.4866 218.923 13.1947 218.923 12.1133C218.923 11.1076 219.745 10.5344 220.773 10.5344C221.616 10.5344 222.287 10.9021 222.579 11.6375L221.854 11.9943ZM227.963 16.2335C227.087 16.2335 226.341 15.7361 226.341 14.6871C226.341 13.4975 227.325 13.2164 228.212 12.9893L228.828 12.8379C229.293 12.7189 229.693 12.6108 229.693 12.1025C229.693 11.5834 229.272 11.313 228.579 11.313C227.822 11.313 227.303 11.6915 227.141 12.2647L226.373 11.9727C226.687 11.0211 227.585 10.5344 228.644 10.5344C229.845 10.5344 230.623 11.1076 230.623 12.3404V15.0007C230.623 15.3251 230.796 15.4764 231.024 15.4764C231.132 15.4764 231.251 15.4333 231.38 15.3576V16.0389C231.207 16.1686 230.98 16.2335 230.742 16.2335C230.267 16.2335 229.791 15.9307 229.758 15.1954C229.477 15.8226 228.742 16.2335 227.963 16.2335ZM227.282 14.6114C227.282 15.2277 227.714 15.4549 228.233 15.4549C229.001 15.4549 229.704 14.9034 229.704 13.8976V13.1839C229.488 13.3569 229.196 13.4434 228.839 13.5408L228.298 13.6705C227.758 13.8111 227.282 13.9625 227.282 14.6114ZM235.231 10.675H235.967L236.151 11.4536C236.475 10.8805 237.037 10.5344 237.87 10.5344C238.897 10.5344 239.709 11.1292 239.709 12.4918V16.1362H238.789V12.7081C238.789 11.8429 238.303 11.4104 237.621 11.4104C236.789 11.4104 236.151 12.0268 236.151 13.0001V16.1362H235.231V10.675ZM241.917 8.30664C242.328 8.30664 242.62 8.60944 242.62 9.00957C242.62 9.39888 242.328 9.71249 241.917 9.71249C241.495 9.71249 241.214 9.39888 241.214 9.00957C241.214 8.60944 241.495 8.30664 241.917 8.30664ZM241.452 16.1362V10.675H242.382V16.1362H241.452ZM249.367 9.84226C249.367 10.4263 248.924 11.2049 248.221 11.2482C248.545 11.6267 248.718 12.0809 248.718 12.5567C248.718 13.6165 247.94 14.5789 246.501 14.5789C246.123 14.5789 245.744 14.5032 245.398 14.2978C245.063 14.3951 244.89 14.6655 244.89 14.925C244.89 15.2494 245.117 15.5414 245.593 15.5414H247.713C248.805 15.5414 249.313 16.2011 249.313 16.904C249.313 17.7043 248.686 18.5369 247.41 18.5369H245.561C244.436 18.5369 243.895 17.8123 243.895 17.1202C243.895 16.6011 244.209 16.1146 244.804 15.9848C244.371 15.8118 244.166 15.4116 244.166 15.0223C244.166 14.5681 244.436 14.1247 244.944 13.9733C244.566 13.6273 244.382 13.1082 244.382 12.5782C244.382 11.486 245.193 10.5344 246.491 10.5344C247.085 10.5344 247.41 10.7831 247.767 10.7831C248.113 10.7831 248.405 10.4371 248.405 9.84226H249.367ZM244.75 17.0013C244.75 17.4123 245.085 17.7907 245.788 17.7907H247.464C248.113 17.7907 248.459 17.4015 248.459 17.0013C248.459 16.6336 248.178 16.32 247.615 16.32H245.939C245.701 16.32 245.474 16.3091 245.269 16.2767C244.933 16.374 244.75 16.6877 244.75 17.0013ZM245.236 12.5567C245.236 13.1947 245.669 13.8219 246.545 13.8219C247.421 13.8219 247.864 13.2055 247.864 12.5567C247.864 11.9186 247.431 11.2806 246.556 11.2806C245.669 11.2806 245.236 11.9186 245.236 12.5567ZM250.65 8.38234H251.569V11.4644C251.894 10.9021 252.456 10.5344 253.289 10.5344C254.316 10.5344 255.127 11.1292 255.127 12.4918V16.1362H254.208V12.7081C254.208 11.8429 253.721 11.4104 253.04 11.4104C252.207 11.4104 251.569 12.0268 251.569 13.0001V16.1362H250.65V8.38234ZM256.157 10.675H257.087V9.43132L258.017 9.08527V10.675H259.174V11.4861H258.017V14.6222C258.017 15.1737 258.277 15.39 258.666 15.39C258.828 15.39 259.001 15.3576 259.174 15.2711V16.0821C258.926 16.1903 258.655 16.2335 258.407 16.2335C257.704 16.2335 257.087 15.8226 257.087 14.6979V11.4861H256.157V10.675ZM263.26 10.675H263.995L264.179 11.4536C264.503 10.8805 265.066 10.5344 265.898 10.5344C266.926 10.5344 267.737 11.1292 267.737 12.4918V16.1362H266.818V12.7081C266.818 11.8429 266.331 11.4104 265.65 11.4104C264.817 11.4104 264.179 12.0268 264.179 13.0001V16.1362H263.26V10.675ZM271.708 10.5344C273.395 10.5344 274.347 11.8428 274.347 13.3893C274.347 14.9358 273.395 16.2335 271.708 16.2335C270.021 16.2335 269.08 14.9358 269.08 13.3893C269.08 11.8428 270.021 10.5344 271.708 10.5344ZM270.021 13.3893C270.021 14.4275 270.584 15.3468 271.708 15.3468C272.844 15.3468 273.406 14.4275 273.406 13.3893C273.406 12.3404 272.844 11.4212 271.708 11.4212C270.584 11.4212 270.021 12.3404 270.021 13.3893ZM283.085 10.675L281.409 16.1362H280.285L279.084 11.9403L277.873 16.1362H276.748L275.072 10.675H276.045L277.321 15.0115L278.511 10.675H279.646L280.836 15.0115L282.123 10.675H283.085ZM284.461 14.8601C284.862 14.8601 285.132 15.1629 285.132 15.5414C285.132 15.9091 284.862 16.2119 284.461 16.2119C284.061 16.2119 283.791 15.9091 283.791 15.5414C283.791 15.1629 284.061 14.8601 284.461 14.8601ZM143.654 24.5446V32.1362H142.691V24.5446H143.654ZM148.425 27.9943C148.252 27.5293 147.787 27.313 147.322 27.313C146.781 27.313 146.392 27.6049 146.392 28.0808C146.392 28.6215 146.933 28.7837 147.495 28.9567L147.906 29.0758C148.555 29.2704 149.409 29.53 149.409 30.5573C149.409 31.6171 148.49 32.2335 147.376 32.2335C146.359 32.2335 145.429 31.7253 145.137 30.6978L145.927 30.4275C146.132 31.1197 146.781 31.4548 147.43 31.4548C148.003 31.4548 148.511 31.1953 148.511 30.6545C148.511 30.1246 148.036 29.9409 147.495 29.7787L147.106 29.6705C146.435 29.4867 145.494 29.1947 145.494 28.1133C145.494 27.1076 146.316 26.5344 147.344 26.5344C148.187 26.5344 148.858 26.9021 149.15 27.6375L148.425 27.9943ZM152.598 26.6749H153.528V25.4314L154.458 25.0853V26.6749H155.615V27.486H154.458V30.6222C154.458 31.1737 154.718 31.3899 155.107 31.3899C155.269 31.3899 155.442 31.3575 155.615 31.271V32.0821C155.367 32.1903 155.096 32.2335 154.848 32.2335C154.145 32.2335 153.528 31.8225 153.528 30.6978V27.486H152.598V26.6749ZM156.934 24.3824H157.853V27.4644C158.178 26.9021 158.74 26.5344 159.573 26.5344C160.6 26.5344 161.411 27.1291 161.411 28.4917V32.1362H160.492V28.708C160.492 27.8428 160.005 27.4104 159.324 27.4104C158.491 27.4104 157.853 28.0267 157.853 29V32.1362H156.934V24.3824ZM164.377 32.2335C163.501 32.2335 162.755 31.736 162.755 30.687C162.755 29.4974 163.739 29.2164 164.625 28.9893L165.242 28.8378C165.707 28.7188 166.107 28.6108 166.107 28.1025C166.107 27.5834 165.685 27.313 164.993 27.313C164.236 27.313 163.717 27.6915 163.555 28.2647L162.787 27.9726C163.101 27.021 163.998 26.5344 165.058 26.5344C166.258 26.5344 167.037 27.1076 167.037 28.3404V31.0006C167.037 31.325 167.21 31.4765 167.437 31.4765C167.545 31.4765 167.664 31.4333 167.794 31.3576V32.0388C167.621 32.1685 167.394 32.2335 167.156 32.2335C166.68 32.2335 166.204 31.9307 166.172 31.1954C165.891 31.8225 165.155 32.2335 164.377 32.2335ZM163.695 30.6114C163.695 31.2278 164.128 31.4548 164.647 31.4548C165.415 31.4548 166.118 30.9033 166.118 29.8975V29.1838C165.902 29.3568 165.61 29.4433 165.253 29.5407L164.712 29.6705C164.171 29.8111 163.695 29.9625 163.695 30.6114ZM168.186 26.6749H169.116V25.4314L170.046 25.0853V26.6749H171.203V27.486H170.046V30.6222C170.046 31.1737 170.306 31.3899 170.695 31.3899C170.857 31.3899 171.03 31.3575 171.203 31.271V32.0821C170.954 32.1903 170.684 32.2335 170.435 32.2335C169.732 32.2335 169.116 31.8225 169.116 30.6978V27.486H168.186V26.6749ZM175.289 26.6749H176.024L176.208 27.4536C176.532 26.8805 177.094 26.5344 177.927 26.5344C178.955 26.5344 179.766 27.1291 179.766 28.4917V32.1362H178.846V28.708C178.846 27.8428 178.36 27.4104 177.678 27.4104C176.846 27.4104 176.208 28.0267 176.208 29V32.1362H175.289V26.6749ZM183.737 26.5344C185.424 26.5344 186.376 27.8429 186.376 29.3894C186.376 30.9358 185.424 32.2335 183.737 32.2335C182.05 32.2335 181.109 30.9358 181.109 29.3894C181.109 27.8429 182.05 26.5344 183.737 26.5344ZM182.05 29.3894C182.05 30.4275 182.612 31.3468 183.737 31.3468C184.873 31.3468 185.435 30.4275 185.435 29.3894C185.435 28.3404 184.873 27.4212 183.737 27.4212C182.612 27.4212 182.05 28.3404 182.05 29.3894ZM187.771 26.6749H188.507L188.691 27.4536C188.95 26.9021 189.426 26.6101 190.042 26.6101C190.215 26.6101 190.378 26.6318 190.561 26.6749V27.5834C190.367 27.5185 190.161 27.4753 189.967 27.4753C189.264 27.4753 188.691 28.016 188.691 29.0541V32.1362H187.771V26.6749ZM191.742 26.6749H192.478L192.651 27.4319C192.878 26.8696 193.505 26.5344 194.143 26.5344C194.857 26.5344 195.484 26.9345 195.635 27.6698C195.906 26.9345 196.576 26.5344 197.355 26.5344C198.252 26.5344 199.074 27.0968 199.074 28.2755V32.1362H198.155V28.6216C198.155 27.8321 197.733 27.4104 197.117 27.4104C196.425 27.4104 195.862 27.9077 195.862 28.827V32.1362H194.943V28.6216C194.943 27.8321 194.532 27.4104 193.905 27.4104C193.224 27.4104 192.661 27.9077 192.661 28.827V32.1362H191.742V26.6749ZM202.036 32.2335C201.16 32.2335 200.414 31.736 200.414 30.687C200.414 29.4974 201.398 29.2164 202.285 28.9893L202.902 28.8378C203.367 28.7188 203.767 28.6108 203.767 28.1025C203.767 27.5834 203.345 27.313 202.653 27.313C201.896 27.313 201.377 27.6915 201.215 28.2647L200.447 27.9726C200.76 27.021 201.658 26.5344 202.718 26.5344C203.918 26.5344 204.697 27.1076 204.697 28.3404V31.0006C204.697 31.325 204.87 31.4765 205.097 31.4765C205.205 31.4765 205.324 31.4333 205.454 31.3576V32.0388C205.281 32.1685 205.054 32.2335 204.816 32.2335C204.34 32.2335 203.864 31.9307 203.832 31.1954C203.55 31.8225 202.815 32.2335 202.036 32.2335ZM201.355 30.6114C201.355 31.2278 201.788 31.4548 202.307 31.4548C203.075 31.4548 203.777 30.9033 203.777 29.8975V29.1838C203.561 29.3568 203.269 29.4433 202.912 29.5407L202.372 29.6705C201.831 29.8111 201.355 29.9625 201.355 30.6114ZM207.563 24.3824V32.1362H206.643V24.3824H207.563ZM212.473 28.9026C212.267 29.7137 211.564 30.0815 210.894 30.0815C210.104 30.0815 209.326 29.584 209.326 28.6216C209.326 27.724 210.029 27.3347 210.634 27.0102L210.905 26.8697C211.175 26.7183 211.673 26.4263 211.673 25.9179C211.673 25.3988 211.229 25.1717 210.829 25.1717C210.321 25.1717 209.888 25.5287 209.791 26.0586L208.991 25.8964C209.185 24.8798 210.007 24.3824 210.872 24.3824C211.694 24.3824 212.549 24.8258 212.549 25.8423C212.549 26.7074 211.867 27.1291 211.391 27.3886L210.97 27.6267C210.591 27.8321 210.159 28.0809 210.159 28.6108C210.159 29.0974 210.559 29.3353 210.937 29.3353C211.316 29.3353 211.694 29.1081 211.824 28.6647L212.473 28.9026ZM210.148 31.5414C210.148 31.1629 210.418 30.8601 210.818 30.8601C211.218 30.8601 211.5 31.1629 211.5 31.5414C211.5 31.9091 211.218 32.2119 210.818 32.2119C210.418 32.2119 210.148 31.9091 210.148 31.5414ZM217.769 24.5446V32.1362H216.807V24.5446H217.769ZM224.444 24.3824V32.1362H223.698L223.481 31.2062C223.135 31.9522 222.411 32.2335 221.686 32.2335C220.032 32.2335 219.329 30.8277 219.329 29.3786C219.329 27.8429 220.129 26.5344 221.675 26.5344C222.443 26.5344 223.2 26.8805 223.525 27.5942V24.3824H224.444ZM220.269 29.4109C220.269 30.4492 220.767 31.3684 221.892 31.3684C222.995 31.3684 223.525 30.4492 223.525 29.4217C223.525 28.3727 222.973 27.4212 221.87 27.4212C220.778 27.4212 220.269 28.3403 220.269 29.4109ZM226.202 24.3824H227.121V29L229.284 26.6749H230.528L228.689 28.5783L230.83 32.1362H229.749L228.051 29.2596L227.121 30.2113V32.1362H226.202V24.3824ZM241.782 26.6749L240.106 32.1362H238.981L237.781 27.9403L236.57 32.1362H235.445L233.769 26.6749H234.742L236.018 31.0115L237.208 26.6749H238.343L239.533 31.0115L240.82 26.6749H241.782ZM242.888 24.3824H243.807V27.4644C244.132 26.9021 244.694 26.5344 245.527 26.5344C246.554 26.5344 247.365 27.1291 247.365 28.4917V32.1362H246.446V28.708C246.446 27.8428 245.959 27.4104 245.278 27.4104C244.445 27.4104 243.807 28.0267 243.807 29V32.1362H242.888V24.3824ZM250.331 32.2335C249.455 32.2335 248.709 31.736 248.709 30.687C248.709 29.4974 249.693 29.2164 250.58 28.9893L251.196 28.8378C251.661 28.7188 252.061 28.6108 252.061 28.1025C252.061 27.5834 251.639 27.313 250.947 27.313C250.19 27.313 249.671 27.6915 249.509 28.2647L248.741 27.9726C249.055 27.021 249.952 26.5344 251.012 26.5344C252.212 26.5344 252.991 27.1076 252.991 28.3404V31.0006C252.991 31.325 253.164 31.4765 253.391 31.4765C253.499 31.4765 253.618 31.4333 253.748 31.3576V32.0388C253.575 32.1685 253.348 32.2335 253.11 32.2335C252.634 32.2335 252.158 31.9307 252.126 31.1954C251.845 31.8225 251.109 32.2335 250.331 32.2335ZM249.649 30.6114C249.649 31.2278 250.082 31.4548 250.601 31.4548C251.369 31.4548 252.072 30.9033 252.072 29.8975V29.1838C251.856 29.3568 251.564 29.4433 251.207 29.5407L250.666 29.6705C250.125 29.8111 249.649 29.9625 249.649 30.6114ZM254.14 26.6749H255.07V25.4314L256 25.0853V26.6749H257.157V27.486H256V30.6222C256 31.1737 256.26 31.3899 256.649 31.3899C256.811 31.3899 256.984 31.3575 257.157 31.271V32.0821C256.909 32.1903 256.638 32.2335 256.389 32.2335C255.687 32.2335 255.07 31.8225 255.07 30.6978V27.486H254.14V26.6749ZM260.445 26.6749H261.375V25.4314L262.305 25.0853V26.6749H263.462V27.486H262.305V30.6222C262.305 31.1737 262.564 31.3899 262.954 31.3899C263.116 31.3899 263.289 31.3575 263.462 31.271V32.0821C263.213 32.1903 262.943 32.2335 262.694 32.2335C261.991 32.2335 261.375 31.8225 261.375 30.6978V27.486H260.445V26.6749ZM267.03 26.5344C268.717 26.5344 269.668 27.8429 269.668 29.3894C269.668 30.9358 268.717 32.2335 267.03 32.2335C265.343 32.2335 264.402 30.9358 264.402 29.3894C264.402 27.8429 265.343 26.5344 267.03 26.5344ZM265.343 29.3894C265.343 30.4275 265.905 31.3468 267.03 31.3468C268.165 31.3468 268.728 30.4275 268.728 29.3894C268.728 28.3404 268.165 27.4212 267.03 27.4212C265.905 27.4212 265.343 28.3404 265.343 29.3894ZM278.251 24.3824V32.1362H277.505L277.288 31.2062C276.942 31.9522 276.218 32.2335 275.493 32.2335C273.839 32.2335 273.136 30.8277 273.136 29.3786C273.136 27.8429 273.936 26.5344 275.482 26.5344C276.25 26.5344 277.007 26.8805 277.332 27.5942V24.3824H278.251ZM274.077 29.4109C274.077 30.4492 274.574 31.3684 275.699 31.3684C276.802 31.3684 277.332 30.4492 277.332 29.4217C277.332 28.3727 276.78 27.4212 275.677 27.4212C274.585 27.4212 274.077 28.3403 274.077 29.4109ZM282.258 26.5344C283.945 26.5344 284.897 27.8429 284.897 29.3894C284.897 30.9358 283.945 32.2335 282.258 32.2335C280.571 32.2335 279.631 30.9358 279.631 29.3894C279.631 27.8429 280.571 26.5344 282.258 26.5344ZM280.571 29.3894C280.571 30.4275 281.134 31.3468 282.258 31.3468C283.394 31.3468 283.956 30.4275 283.956 29.3894C283.956 28.3404 283.394 27.4212 282.258 27.4212C281.134 27.4212 280.571 28.3404 280.571 29.3894Z" fill="#343047"/>
</g>
<g filter="url(#filter1_d_239_1514)">
<path d="M248.245 66.1157C248.245 60.8898 244.009 56.6533 238.783 56.6533H44.2908C39.0649 56.6533 34.8284 60.8898 34.8284 66.1157V159.309C34.8284 160.055 35.4336 160.66 36.1801 160.66H238.783C244.009 160.66 248.245 156.424 248.245 151.198V66.1157Z" fill="#F9F5F1"/>
<path d="M53.7399 71.0387C55.8811 71.0387 57.3411 72.7041 57.3411 74.9967C57.3411 77.2894 55.8811 78.9656 53.7399 78.9656C51.5987 78.9656 50.1388 77.2894 50.1388 74.9967C50.1388 72.7041 51.5987 71.0387 53.7399 71.0387ZM51.1553 74.9967C51.1553 76.8027 52.2043 78.0464 53.7399 78.0464C55.2756 78.0464 56.3245 76.8027 56.3245 74.9967C56.3245 73.1908 55.2756 71.958 53.7399 71.958C52.2043 71.958 51.1553 73.1908 51.1553 74.9967ZM58.8369 71.0387H59.7561V74.1208C60.0805 73.5585 60.6429 73.1908 61.4756 73.1908C62.5029 73.1908 63.314 73.7856 63.314 75.1481V78.7925H62.3948V75.3644C62.3948 74.4993 61.9081 74.0667 61.2268 74.0667C60.3941 74.0667 59.7561 74.6831 59.7561 75.6564V78.7925H58.8369V71.0387ZM64.5494 79.9605C65.0793 79.8307 65.4795 79.3549 65.5119 78.7817C65.447 78.8034 65.3713 78.8142 65.2848 78.8142C64.9063 78.8142 64.6468 78.5438 64.6468 78.1761C64.6468 77.8301 64.9063 77.5165 65.3389 77.5165C65.8471 77.5165 66.1391 77.9707 66.1391 78.6303C66.1391 79.463 65.6849 80.4255 64.5494 80.6634V79.9605ZM71.1982 71.201V78.7925H70.2358V71.201H71.1982ZM76.0087 71.0387H76.9279V74.1208C77.2523 73.5585 77.8147 73.1908 78.6474 73.1908C79.6747 73.1908 80.4858 73.7856 80.4858 75.1481V78.7925H79.5666V75.3644C79.5666 74.4993 79.0799 74.0667 78.3986 74.0667C77.566 74.0667 76.9279 74.6831 76.9279 75.6564V78.7925H76.0087V71.0387ZM86.6309 76.3269H82.7378C82.8459 77.5273 83.5705 78.0247 84.4464 78.0247C85.1061 78.0247 85.5819 77.7327 85.9063 77.1488L86.5876 77.603C86.0794 78.4897 85.2467 78.8899 84.3707 78.8899C83.0189 78.8899 81.8294 77.9923 81.8294 76.0674C81.8294 74.1424 83.073 73.1908 84.3599 73.1908C85.5278 73.1908 86.6309 73.9261 86.6309 75.7213V76.3269ZM82.7486 75.6348H85.7225C85.7225 74.5101 85.1061 74.0127 84.3491 74.0127C83.5705 74.0127 82.8784 74.5426 82.7486 75.6348ZM89.2705 78.8899C88.3945 78.8899 87.6484 78.3924 87.6484 77.3434C87.6484 76.1539 88.6325 75.8727 89.5192 75.6456L90.1356 75.4942C90.6006 75.3752 91.0008 75.2671 91.0008 74.7588C91.0008 74.2398 90.579 73.9694 89.8869 73.9694C89.1299 73.9694 88.6108 74.3479 88.4486 74.921L87.6808 74.6291C87.9944 73.6774 88.892 73.1908 89.9518 73.1908C91.1522 73.1908 91.9308 73.7639 91.9308 74.9967V77.657C91.9308 77.9815 92.1038 78.1329 92.3309 78.1329C92.4391 78.1329 92.558 78.0896 92.6878 78.0139V78.6952C92.5148 78.825 92.2877 78.8899 92.0497 78.8899C91.5739 78.8899 91.0981 78.5871 91.0657 77.8517C90.7845 78.4789 90.0491 78.8899 89.2705 78.8899ZM88.5892 77.2677C88.5892 77.8841 89.0218 78.1112 89.5408 78.1112C90.3087 78.1112 91.0116 77.5597 91.0116 76.554V75.8403C90.7953 76.0133 90.5033 76.0998 90.1464 76.1971L89.6057 76.3269C89.065 76.4675 88.5892 76.6189 88.5892 77.2677ZM93.8775 73.3314H94.6129L94.7967 74.11C95.0563 73.5585 95.5321 73.2665 96.1485 73.2665C96.3215 73.2665 96.4837 73.2881 96.6676 73.3314V74.2398C96.4729 74.1749 96.2675 74.1316 96.0728 74.1316C95.3699 74.1316 94.7967 74.6723 94.7967 75.7105V78.7925H93.8775V73.3314ZM103.911 73.3314H104.895L102.483 79.6793C102.148 80.5661 101.564 80.9878 100.85 80.9878C100.504 80.9878 100.125 80.8797 99.7253 80.685L100.028 79.8631C100.288 80.0362 100.548 80.1119 100.807 80.1119C101.197 80.1119 101.532 79.9064 101.694 79.4738L101.856 79.0305L99.6388 73.3314H100.645L102.3 77.8193L103.911 73.3314ZM108.05 73.1908C109.738 73.1908 110.689 74.4993 110.689 76.0457C110.689 77.5922 109.738 78.8899 108.05 78.8899C106.363 78.8899 105.423 77.5922 105.423 76.0457C105.423 74.4993 106.363 73.1908 108.05 73.1908ZM106.363 76.0457C106.363 77.0839 106.926 78.0031 108.05 78.0031C109.186 78.0031 109.748 77.0839 109.748 76.0457C109.748 74.9967 109.186 74.0775 108.05 74.0775C106.926 74.0775 106.363 74.9967 106.363 76.0457ZM116.454 73.3314V78.7925H115.708L115.535 77.9815C115.199 78.5546 114.702 78.8899 113.869 78.8899C112.82 78.8899 112.031 78.2951 112.031 76.9325V73.3314H112.95V76.727C112.95 77.5922 113.415 78.0139 114.096 78.0139C114.929 78.0139 115.535 77.4083 115.535 76.435V73.3314H116.454ZM118.502 77.5165C118.902 77.5165 119.172 77.8193 119.172 78.1978C119.172 78.5654 118.902 78.8682 118.502 78.8682C118.101 78.8682 117.831 78.5654 117.831 78.1978C117.831 77.8193 118.101 77.5165 118.502 77.5165ZM128.036 71.201V72.0769H125.603V78.7925H124.63V72.0769H122.207V71.201H128.036ZM129.13 71.0387H130.049V74.1208C130.373 73.5585 130.936 73.1908 131.769 73.1908C132.796 73.1908 133.607 73.7856 133.607 75.1481V78.7925H132.688V75.3644C132.688 74.4993 132.201 74.0667 131.52 74.0667C130.687 74.0667 130.049 74.6831 130.049 75.6564V78.7925H129.13V71.0387ZM137.578 73.1908C139.265 73.1908 140.217 74.4993 140.217 76.0457C140.217 77.5922 139.265 78.8899 137.578 78.8899C135.891 78.8899 134.951 77.5922 134.951 76.0457C134.951 74.4993 135.891 73.1908 137.578 73.1908ZM135.891 76.0457C135.891 77.0839 136.454 78.0031 137.578 78.0031C138.714 78.0031 139.276 77.0839 139.276 76.0457C139.276 74.9967 138.714 74.0775 137.578 74.0775C136.454 74.0775 135.891 74.9967 135.891 76.0457ZM144.446 74.6507C144.273 74.1857 143.808 73.9694 143.343 73.9694C142.802 73.9694 142.413 74.2614 142.413 74.7372C142.413 75.2779 142.954 75.4401 143.516 75.6132L143.927 75.7321C144.576 75.9268 145.43 76.1863 145.43 77.2137C145.43 78.2735 144.511 78.8899 143.397 78.8899C142.38 78.8899 141.45 78.3816 141.158 77.3542L141.948 77.0839C142.153 77.776 142.802 78.1112 143.451 78.1112C144.024 78.1112 144.533 77.8517 144.533 77.311C144.533 76.7811 144.057 76.5973 143.516 76.435L143.127 76.3269C142.456 76.1431 141.515 75.8511 141.515 74.7696C141.515 73.7639 142.337 73.1908 143.365 73.1908C144.208 73.1908 144.879 73.5585 145.171 74.2938L144.446 74.6507ZM151.179 76.3269H147.286C147.394 77.5273 148.118 78.0247 148.994 78.0247C149.654 78.0247 150.13 77.7327 150.454 77.1488L151.136 77.603C150.627 78.4897 149.795 78.8899 148.919 78.8899C147.567 78.8899 146.377 77.9923 146.377 76.0674C146.377 74.1424 147.621 73.1908 148.908 73.1908C150.076 73.1908 151.179 73.9261 151.179 75.7213V76.3269ZM147.296 75.6348H150.27C150.27 74.5101 149.654 74.0127 148.897 74.0127C148.118 74.0127 147.426 74.5426 147.296 75.6348ZM154.59 73.3314H155.52V72.5527C155.52 71.5038 156.082 71.0063 156.861 71.0063C157.088 71.0063 157.337 71.0496 157.596 71.1253V71.958C157.401 71.8823 157.239 71.839 157.088 71.839C156.688 71.839 156.439 72.0877 156.439 72.5744V73.3314H157.596V74.1424H156.439V78.7925H155.52V74.1424H154.59V73.3314ZM158.837 73.3314H159.573L159.757 74.11C160.016 73.5585 160.492 73.2665 161.108 73.2665C161.281 73.2665 161.444 73.2881 161.627 73.3314V74.2398C161.433 74.1749 161.227 74.1316 161.033 74.1316C160.33 74.1316 159.757 74.6723 159.757 75.7105V78.7925H158.837V73.3314ZM167.231 76.3269H163.338C163.446 77.5273 164.171 78.0247 165.047 78.0247C165.706 78.0247 166.182 77.7327 166.507 77.1488L167.188 77.603C166.68 78.4897 165.847 78.8899 164.971 78.8899C163.619 78.8899 162.43 77.9923 162.43 76.0674C162.43 74.1424 163.673 73.1908 164.96 73.1908C166.128 73.1908 167.231 73.9261 167.231 75.7213V76.3269ZM163.349 75.6348H166.323C166.323 74.5101 165.706 74.0127 164.949 74.0127C164.171 74.0127 163.479 74.5426 163.349 75.6348ZM173.375 73.3314V80.9878H172.445V77.7544C172.088 78.5114 171.342 78.7925 170.617 78.7925C168.962 78.7925 168.249 77.3867 168.249 75.9808C168.249 74.4993 169.06 73.1908 170.606 73.1908C171.342 73.1908 172.098 73.5044 172.423 74.2289L172.628 73.3314H173.375ZM169.189 76.0133C169.189 77.0082 169.687 77.9274 170.812 77.9274C171.925 77.9274 172.445 77.0406 172.445 76.0457C172.445 75.0508 171.915 74.0775 170.801 74.0775C169.709 74.0775 169.189 74.9967 169.189 76.0133ZM179.449 73.3314V78.7925H178.703L178.529 77.9815C178.193 78.5546 177.697 78.8899 176.864 78.8899C175.815 78.8899 175.026 78.2951 175.026 76.9325V73.3314H175.945V76.727C175.945 77.5922 176.41 78.0139 177.091 78.0139C177.924 78.0139 178.529 77.4083 178.529 76.435V73.3314H179.449ZM185.648 76.3269H181.756C181.864 77.5273 182.589 78.0247 183.465 78.0247C184.124 78.0247 184.6 77.7327 184.924 77.1488L185.605 77.603C185.098 78.4897 184.265 78.8899 183.389 78.8899C182.037 78.8899 180.848 77.9923 180.848 76.0674C180.848 74.1424 182.09 73.1908 183.378 73.1908C184.546 73.1908 185.648 73.9261 185.648 75.7213V76.3269ZM181.767 75.6348H184.741C184.741 74.5101 184.124 74.0127 183.367 74.0127C182.589 74.0127 181.897 74.5426 181.767 75.6348ZM187.045 73.3314H187.78L187.964 74.11C188.288 73.5368 188.851 73.1908 189.684 73.1908C190.71 73.1908 191.522 73.7856 191.522 75.1481V78.7925H190.603V75.3644C190.603 74.4993 190.116 74.0667 189.435 74.0667C188.602 74.0667 187.964 74.6831 187.964 75.6564V78.7925H187.045V73.3314ZM192.552 73.3314H193.482V72.0877L194.411 71.7417V73.3314H195.569V74.1424H194.411V77.2785C194.411 77.8301 194.672 78.0464 195.061 78.0464C195.223 78.0464 195.396 78.0139 195.569 77.9274V78.7385C195.321 78.8466 195.05 78.8899 194.802 78.8899C194.099 78.8899 193.482 78.4789 193.482 77.3542V74.1424H192.552V73.3314ZM206.786 73.3314L205.109 78.7925H203.984L202.785 74.5966L201.574 78.7925H200.449L198.773 73.3314H199.746L201.022 77.6679L202.212 73.3314H203.346L204.536 77.6679L205.824 73.3314H206.786ZM209.135 78.8899C208.259 78.8899 207.514 78.3924 207.514 77.3434C207.514 76.1539 208.498 75.8727 209.384 75.6456L210.001 75.4942C210.466 75.3752 210.866 75.2671 210.866 74.7588C210.866 74.2398 210.444 73.9694 209.752 73.9694C208.995 73.9694 208.476 74.3479 208.314 74.921L207.546 74.6291C207.859 73.6774 208.757 73.1908 209.816 73.1908C211.016 73.1908 211.796 73.7639 211.796 74.9967V77.657C211.796 77.9815 211.969 78.1329 212.196 78.1329C212.304 78.1329 212.423 78.0896 212.553 78.0139V78.6952C212.38 78.825 212.153 78.8899 211.915 78.8899C211.439 78.8899 210.963 78.5871 210.931 77.8517C210.65 78.4789 209.913 78.8899 209.135 78.8899ZM208.454 77.2677C208.454 77.8841 208.887 78.1112 209.406 78.1112C210.174 78.1112 210.877 77.5597 210.877 76.554V75.8403C210.66 76.0133 210.368 76.0998 210.012 76.1971L209.471 76.3269C208.93 76.4675 208.454 76.6189 208.454 77.2677ZM213.743 71.0387H214.661V75.6564L216.825 73.3314H218.068L216.23 75.2347L218.371 78.7925H217.29L215.592 75.916L214.661 76.8676V78.7925H213.743V71.0387ZM223.626 76.3269H219.733C219.841 77.5273 220.565 78.0247 221.441 78.0247C222.101 78.0247 222.577 77.7327 222.901 77.1488L223.582 77.603C223.074 78.4897 222.241 78.8899 221.365 78.8899C220.014 78.8899 218.824 77.9923 218.824 76.0674C218.824 74.1424 220.068 73.1908 221.355 73.1908C222.523 73.1908 223.626 73.9261 223.626 75.7213V76.3269ZM219.743 75.6348H222.717C222.717 74.5101 222.101 74.0127 221.344 74.0127C220.564 74.0127 219.873 74.5426 219.743 75.6348ZM224.578 75.7429V74.867H227.422V75.7429H224.578ZM54.7889 89.3314V94.7925H54.0427L53.8697 93.9815C53.5345 94.5546 53.037 94.8899 52.2043 94.8899C51.1553 94.8899 50.3659 94.2951 50.3659 92.9325V89.3314H51.2851V92.727C51.2851 93.5922 51.7501 94.0139 52.4314 94.0139C53.2641 94.0139 53.8697 93.4083 53.8697 92.435V89.3314H54.7889ZM56.5663 89.3314H57.3017L57.518 90.2289C57.8424 89.5044 58.6102 89.1908 59.3456 89.1908C60.8812 89.1908 61.6923 90.4885 61.6923 91.9592C61.6923 93.4191 60.9137 94.7925 59.3131 94.7925C58.5778 94.7925 57.8424 94.5006 57.4855 93.776V96.9878H56.5663V89.3314ZM57.4855 92.0565C57.4855 93.0515 58.0046 93.9274 59.1077 93.9274C60.2324 93.9274 60.7514 92.9974 60.7514 92.0025C60.7514 90.9967 60.2215 90.0775 59.1401 90.0775C58.0154 90.0775 57.4855 91.0508 57.4855 92.0565ZM65.9051 90.6507C65.7321 90.1857 65.2671 89.9694 64.802 89.9694C64.2613 89.9694 63.872 90.2614 63.872 90.7372C63.872 91.2779 64.4127 91.4401 64.9751 91.6132L65.386 91.7321C66.0349 91.9268 66.8892 92.1863 66.8892 93.2137C66.8892 94.2735 65.97 94.8899 64.8561 94.8899C63.8396 94.8899 62.9096 94.3816 62.6176 93.3542L63.407 93.0839C63.6125 93.776 64.2613 94.1112 64.9102 94.1112C65.4833 94.1112 65.9916 93.8517 65.9916 93.311C65.9916 92.7811 65.5158 92.5973 64.9751 92.435L64.5858 92.3269C63.9153 92.1431 62.9744 91.8511 62.9744 90.7696C62.9744 89.7639 63.7963 89.1908 64.8237 89.1908C65.6672 89.1908 66.3377 89.5585 66.6296 90.2938L65.9051 90.6507ZM74.2769 91.1157C74.0714 90.402 73.5415 90.0667 72.8927 90.0667C71.9843 90.0667 71.2273 90.7156 71.2273 92.0457C71.2273 93.3651 71.9735 94.0139 72.9143 94.0139C73.5848 94.0139 74.0714 93.6787 74.3418 92.9974L75.0988 93.3542C74.677 94.4032 73.8227 94.8899 72.8386 94.8899C71.4977 94.8899 70.2865 93.9815 70.2865 92.0674C70.2865 90.11 71.5517 89.1908 72.9143 89.1908C73.866 89.1908 74.7744 89.6882 75.088 90.8129L74.2769 91.1157ZM77.6853 94.8899C76.8094 94.8899 76.0632 94.3924 76.0632 93.3434C76.0632 92.1539 77.0473 91.8727 77.9341 91.6456L78.5505 91.4942C79.0155 91.3752 79.4156 91.2671 79.4156 90.7588C79.4156 90.2398 78.9939 89.9694 78.3017 89.9694C77.5447 89.9694 77.0257 90.3479 76.8634 90.921L76.0956 90.6291C76.4093 89.6774 77.3068 89.1908 78.3666 89.1908C79.567 89.1908 80.3456 89.7639 80.3456 90.9967V93.657C80.3456 93.9815 80.5187 94.1329 80.7458 94.1329C80.8539 94.1329 80.9729 94.0896 81.1026 94.0139V94.6952C80.9296 94.825 80.7025 94.8899 80.4646 94.8899C79.9888 94.8899 79.5129 94.5871 79.4805 93.8517C79.1993 94.4789 78.464 94.8899 77.6853 94.8899ZM77.004 93.2677C77.004 93.8841 77.4366 94.1112 77.9557 94.1112C78.7235 94.1112 79.4264 93.5597 79.4264 92.554V91.8403C79.2101 92.0133 78.9182 92.0998 78.5613 92.1971L78.0206 92.3269C77.4799 92.4675 77.004 92.6189 77.004 93.2677ZM82.2924 89.3314H83.0277L83.2116 90.11C83.536 89.5368 84.0983 89.1908 84.931 89.1908C85.9584 89.1908 86.7694 89.7856 86.7694 91.1481V94.7925H85.8502V91.3644C85.8502 90.4993 85.3636 90.0667 84.6823 90.0667C83.8496 90.0667 83.2116 90.6831 83.2116 91.6564V94.7925H82.2924V89.3314ZM90.6121 89.3314H91.5422V88.5527C91.5422 87.5038 92.1045 87.0063 92.8831 87.0063C93.1102 87.0063 93.3589 87.0496 93.6185 87.1253V87.958C93.4238 87.8823 93.2616 87.839 93.1102 87.839C92.7101 87.839 92.4614 88.0877 92.4614 88.5744V89.3314H93.6185V90.1424H92.4614V94.7925H91.5422V90.1424H90.6121V89.3314ZM99.2088 92.3269H95.3156C95.4238 93.5273 96.1483 94.0247 97.0243 94.0247C97.684 94.0247 98.1598 93.7327 98.4842 93.1488L99.1655 93.603C98.6572 94.4897 97.8245 94.8899 96.9486 94.8899C95.5968 94.8899 94.4072 93.9923 94.4072 92.0674C94.4072 90.1424 95.6509 89.1908 96.9378 89.1908C98.1057 89.1908 99.2088 89.9261 99.2088 91.7213V92.3269ZM95.3265 91.6348H98.3004C98.3004 90.5101 97.684 90.0127 96.927 90.0127C96.1483 90.0127 95.4562 90.5427 95.3265 91.6348ZM105.028 92.3269H101.135C101.243 93.5273 101.968 94.0247 102.844 94.0247C103.503 94.0247 103.979 93.7327 104.304 93.1488L104.985 93.603C104.477 94.4897 103.644 94.8899 102.768 94.8899C101.416 94.8899 100.227 93.9923 100.227 92.0674C100.227 90.1424 101.47 89.1908 102.757 89.1908C103.925 89.1908 105.028 89.9261 105.028 91.7213V92.3269ZM101.146 91.6348H104.12C104.12 90.5101 103.503 90.0127 102.746 90.0127C101.968 90.0127 101.276 90.5427 101.146 91.6348ZM107.343 87.0387V94.7925H106.424V87.0387H107.343ZM114.707 90.6507C114.534 90.1857 114.069 89.9694 113.604 89.9694C113.063 89.9694 112.674 90.2614 112.674 90.7372C112.674 91.2779 113.215 91.4401 113.777 91.6132L114.188 91.7321C114.837 91.9268 115.691 92.1863 115.691 93.2137C115.691 94.2735 114.772 94.8899 113.658 94.8899C112.641 94.8899 111.711 94.3816 111.419 93.3542L112.209 93.0839C112.414 93.776 113.063 94.1112 113.712 94.1112C114.285 94.1112 114.793 93.8517 114.793 93.311C114.793 92.7811 114.318 92.5973 113.777 92.435L113.388 92.3269C112.717 92.1431 111.776 91.8511 111.776 90.7696C111.776 89.7639 112.598 89.1908 113.625 89.1908C114.469 89.1908 115.139 89.5585 115.431 90.2938L114.707 90.6507ZM119.266 89.1908C120.953 89.1908 121.905 90.4993 121.905 92.0457C121.905 93.5922 120.953 94.8899 119.266 94.8899C117.579 94.8899 116.638 93.5922 116.638 92.0457C116.638 90.4993 117.579 89.1908 119.266 89.1908ZM117.579 92.0457C117.579 93.0839 118.141 94.0031 119.266 94.0031C120.402 94.0031 120.964 93.0839 120.964 92.0457C120.964 90.9967 120.402 90.0775 119.266 90.0775C118.141 90.0775 117.579 90.9967 117.579 92.0457ZM130.173 92.3269H126.28C126.388 93.5273 127.113 94.0247 127.989 94.0247C128.649 94.0247 129.124 93.7327 129.449 93.1488L130.13 93.603C129.622 94.4897 128.789 94.8899 127.913 94.8899C126.561 94.8899 125.372 93.9923 125.372 92.0674C125.372 90.1424 126.616 89.1908 127.902 89.1908C129.07 89.1908 130.173 89.9261 130.173 91.7213V92.3269ZM126.291 91.6348H129.265C129.265 90.5101 128.649 90.0127 127.892 90.0127C127.113 90.0127 126.421 90.5427 126.291 91.6348ZM135.789 89.3314L133.919 92.0025L135.876 94.7925H134.73L133.367 92.7703L132.015 94.7925H130.869L132.826 92.0025L130.956 89.3314H132.113L133.367 91.2238L134.632 89.3314H135.789ZM137.05 87.0387H137.97V90.1208C138.294 89.5585 138.856 89.1908 139.689 89.1908C140.716 89.1908 141.528 89.7856 141.528 91.1481V94.7925H140.608V91.3644C140.608 90.4993 140.122 90.0667 139.44 90.0667C138.608 90.0667 137.97 90.6831 137.97 91.6564V94.7925H137.05V87.0387ZM144.493 94.8899C143.617 94.8899 142.871 94.3924 142.871 93.3434C142.871 92.1539 143.855 91.8727 144.742 91.6456L145.358 91.4942C145.823 91.3752 146.224 91.2671 146.224 90.7588C146.224 90.2398 145.802 89.9694 145.11 89.9694C144.353 89.9694 143.834 90.3479 143.671 90.921L142.904 90.6291C143.217 89.6774 144.115 89.1908 145.175 89.1908C146.375 89.1908 147.154 89.7639 147.154 90.9967V93.657C147.154 93.9815 147.327 94.1329 147.554 94.1329C147.662 94.1329 147.781 94.0896 147.911 94.0139V94.6952C147.738 94.825 147.51 94.8899 147.272 94.8899C146.797 94.8899 146.321 94.5871 146.288 93.8517C146.007 94.4789 145.272 94.8899 144.493 94.8899ZM143.812 93.2677C143.812 93.8841 144.245 94.1112 144.764 94.1112C145.531 94.1112 146.234 93.5597 146.234 92.554V91.8403C146.018 92.0133 145.726 92.0998 145.369 92.1971L144.828 92.3269C144.288 92.4675 143.812 92.6189 143.812 93.2677ZM153.469 89.3314V94.7925H152.723L152.55 93.9815C152.215 94.5546 151.717 94.8899 150.885 94.8899C149.836 94.8899 149.046 94.2951 149.046 92.9325V89.3314H149.965V92.727C149.965 93.5922 150.43 94.0139 151.112 94.0139C151.944 94.0139 152.55 93.4083 152.55 92.435V89.3314H153.469ZM158.08 90.6507C157.907 90.1857 157.442 89.9694 156.977 89.9694C156.436 89.9694 156.047 90.2614 156.047 90.7372C156.047 91.2779 156.588 91.4401 157.15 91.6132L157.561 91.7321C158.21 91.9268 159.064 92.1863 159.064 93.2137C159.064 94.2735 158.145 94.8899 157.031 94.8899C156.014 94.8899 155.084 94.3816 154.792 93.3542L155.582 93.0839C155.787 93.776 156.436 94.1112 157.085 94.1112C157.658 94.1112 158.166 93.8517 158.166 93.311C158.166 92.7811 157.691 92.5973 157.15 92.435L156.761 92.3269C156.09 92.1431 155.149 91.8511 155.149 90.7696C155.149 89.7639 155.971 89.1908 156.999 89.1908C157.842 89.1908 158.513 89.5585 158.805 90.2938L158.08 90.6507ZM159.698 89.3314H160.628V88.0877L161.558 87.7417V89.3314H162.715V90.1424H161.558V93.2785C161.558 93.8301 161.817 94.0464 162.207 94.0464C162.369 94.0464 162.542 94.0139 162.715 93.9274V94.7385C162.466 94.8466 162.196 94.8899 161.947 94.8899C161.244 94.8899 160.628 94.4789 160.628 93.3542V90.1424H159.698V89.3314ZM164.52 86.963C164.931 86.963 165.223 87.2658 165.223 87.666C165.223 88.0553 164.931 88.3689 164.52 88.3689C164.098 88.3689 163.817 88.0553 163.817 87.666C163.817 87.2658 164.098 86.963 164.52 86.963ZM164.055 94.7925V89.3314H164.985V94.7925H164.055ZM166.779 89.3314H167.514L167.698 90.11C168.023 89.5368 168.585 89.1908 169.418 89.1908C170.445 89.1908 171.256 89.7856 171.256 91.1481V94.7925H170.337V91.3644C170.337 90.4993 169.85 90.0667 169.169 90.0667C168.336 90.0667 167.698 90.6831 167.698 91.6564V94.7925H166.779V89.3314ZM178.169 88.4987C178.169 89.0826 177.726 89.8613 177.023 89.9045C177.347 90.283 177.52 90.7372 177.52 91.213C177.52 92.2728 176.742 93.2353 175.303 93.2353C174.925 93.2353 174.546 93.1596 174.2 92.9541C173.865 93.0515 173.692 93.3218 173.692 93.5813C173.692 93.9058 173.919 94.1978 174.395 94.1978H176.514C177.607 94.1978 178.115 94.8574 178.115 95.5604C178.115 96.3606 177.488 97.1933 176.212 97.1933H174.362C173.238 97.1933 172.697 96.4688 172.697 95.7766C172.697 95.2577 173.011 94.7709 173.605 94.6411C173.173 94.4681 172.967 94.068 172.967 93.6787C172.967 93.2245 173.238 92.7811 173.746 92.6297C173.367 92.2836 173.184 91.7646 173.184 91.2347C173.184 90.1424 173.995 89.1908 175.292 89.1908C175.887 89.1908 176.212 89.4395 176.568 89.4395C176.915 89.4395 177.207 89.0934 177.207 88.4987H178.169ZM173.551 95.6577C173.551 96.0686 173.887 96.4471 174.589 96.4471H176.266C176.915 96.4471 177.261 96.0578 177.261 95.6577C177.261 95.29 176.979 94.9764 176.417 94.9764H174.741C174.503 94.9764 174.276 94.9656 174.07 94.9331C173.735 95.0305 173.551 95.3441 173.551 95.6577ZM174.038 91.213C174.038 91.8511 174.471 92.4783 175.346 92.4783C176.222 92.4783 176.666 91.8619 176.666 91.213C176.666 90.575 176.233 89.937 175.357 89.937C174.471 89.937 174.038 90.575 174.038 91.213ZM178.965 95.9605C179.495 95.8307 179.895 95.3549 179.928 94.7817C179.863 94.8034 179.786 94.8142 179.701 94.8142C179.322 94.8142 179.062 94.5438 179.062 94.1761C179.062 93.8301 179.322 93.5165 179.755 93.5165C180.263 93.5165 180.555 93.9707 180.555 94.6303C180.555 95.463 180.101 96.4255 178.965 96.6634V95.9605ZM188.701 92.3269H184.808C184.916 93.5273 185.641 94.0247 186.517 94.0247C187.176 94.0247 187.652 93.7327 187.977 93.1488L188.658 93.603C188.15 94.4897 187.317 94.8899 186.441 94.8899C185.089 94.8899 183.9 93.9923 183.9 92.0674C183.9 90.1424 185.143 89.1908 186.43 89.1908C187.598 89.1908 188.701 89.9261 188.701 91.7213V92.3269ZM184.819 91.6348H187.793C187.793 90.5101 187.176 90.0127 186.419 90.0127C185.641 90.0127 184.949 90.5427 184.819 91.6348ZM192.93 90.6507C192.757 90.1857 192.292 89.9694 191.827 89.9694C191.287 89.9694 190.897 90.2614 190.897 90.7372C190.897 91.2779 191.438 91.4401 192 91.6132L192.411 91.7321C193.06 91.9268 193.915 92.1863 193.915 93.2137C193.915 94.2735 192.995 94.8899 191.882 94.8899C190.865 94.8899 189.935 94.3816 189.643 93.3542L190.432 93.0839C190.638 93.776 191.287 94.1112 191.936 94.1112C192.509 94.1112 193.017 93.8517 193.017 93.311C193.017 92.7811 192.541 92.5973 192 92.435L191.611 92.3269C190.941 92.1431 190 91.8511 190 90.7696C190 89.7639 190.822 89.1908 191.849 89.1908C192.693 89.1908 193.363 89.5585 193.655 90.2938L192.93 90.6507ZM195.24 89.3314H195.976L196.191 90.2289C196.516 89.5044 197.284 89.1908 198.02 89.1908C199.555 89.1908 200.366 90.4885 200.366 91.9592C200.366 93.4191 199.588 94.7925 197.987 94.7925C197.252 94.7925 196.516 94.5006 196.159 93.776V96.9878H195.24V89.3314ZM196.159 92.0565C196.159 93.0515 196.679 93.9274 197.782 93.9274C198.906 93.9274 199.424 92.9974 199.424 92.0025C199.424 90.9967 198.895 90.0775 197.814 90.0775C196.689 90.0775 196.159 91.0508 196.159 92.0565ZM206.169 92.3269H202.276C202.384 93.5273 203.108 94.0247 203.984 94.0247C204.644 94.0247 205.12 93.7327 205.444 93.1488L206.125 93.603C205.617 94.4897 204.784 94.8899 203.909 94.8899C202.557 94.8899 201.367 93.9923 201.367 92.0674C201.367 90.1424 202.611 89.1908 203.898 89.1908C205.066 89.1908 206.169 89.9261 206.169 91.7213V92.3269ZM202.286 91.6348H205.26C205.26 90.5101 204.644 90.0127 203.887 90.0127C203.107 90.0127 202.416 90.5427 202.286 91.6348ZM211.177 91.1157C210.971 90.402 210.441 90.0667 209.792 90.0667C208.883 90.0667 208.127 90.7156 208.127 92.0457C208.127 93.3651 208.873 94.0139 209.814 94.0139C210.485 94.0139 210.971 93.6787 211.242 92.9974L211.999 93.3542C211.577 94.4032 210.722 94.8899 209.738 94.8899C208.397 94.8899 207.186 93.9815 207.186 92.0674C207.186 90.11 208.451 89.1908 209.814 89.1908C210.766 89.1908 211.674 89.6882 211.988 90.8129L211.177 91.1157ZM213.828 86.963C214.239 86.963 214.531 87.2658 214.531 87.666C214.531 88.0553 214.239 88.3689 213.828 88.3689C213.406 88.3689 213.125 88.0553 213.125 87.666C213.125 87.2658 213.406 86.963 213.828 86.963ZM213.363 94.7925V89.3314H214.293V94.7925H213.363ZM217.331 94.8899C216.454 94.8899 215.709 94.3924 215.709 93.3434C215.709 92.1539 216.693 91.8727 217.579 91.6456L218.196 91.4942C218.661 91.3752 219.061 91.2671 219.061 90.7588C219.061 90.2398 218.639 89.9694 217.947 89.9694C217.189 89.9694 216.671 90.3479 216.509 90.921L215.741 90.6291C216.055 89.6774 216.952 89.1908 218.012 89.1908C219.213 89.1908 219.991 89.7639 219.991 90.9967V93.657C219.991 93.9815 220.163 94.1329 220.391 94.1329C220.499 94.1329 220.617 94.0896 220.747 94.0139V94.6952C220.574 94.825 220.348 94.8899 220.109 94.8899C219.633 94.8899 219.158 94.5871 219.126 93.8517C218.845 94.4789 218.109 94.8899 217.331 94.8899ZM216.65 93.2677C216.65 93.8841 217.082 94.1112 217.601 94.1112C218.369 94.1112 219.072 93.5597 219.072 92.554V91.8403C218.855 92.0133 218.564 92.0998 218.207 92.1971L217.665 92.3269C217.124 92.4675 216.65 92.6189 216.65 93.2677ZM222.857 87.0387V94.7925H221.938V87.0387H222.857ZM225.54 87.0387V94.7925H224.62V87.0387H225.54ZM230.915 89.3314H231.898L229.487 95.6793C229.152 96.5661 228.568 96.9878 227.854 96.9878C227.508 96.9878 227.13 96.8797 226.73 96.685L227.032 95.8631C227.292 96.0362 227.551 96.1119 227.811 96.1119C228.2 96.1119 228.536 95.9064 228.698 95.4738L228.859 95.0305L226.643 89.3314H227.648L229.303 93.8193L230.915 89.3314ZM57.7628 105.331L56.0866 110.792H54.9619L53.7616 106.597L52.5504 110.792H51.4257L49.7495 105.331H50.7228L51.9988 109.668L53.1884 105.331H54.3239L55.5135 109.668L56.8004 105.331H57.7628ZM58.8686 103.039H59.7878V106.121C60.1122 105.558 60.6746 105.191 61.5072 105.191C62.5346 105.191 63.3457 105.785 63.3457 107.148V110.792H62.4265V107.364C62.4265 106.499 61.9398 106.067 61.2585 106.067C60.4258 106.067 59.7878 106.683 59.7878 107.656V110.792H58.8686V103.039ZM69.4908 108.327H65.5976C65.7058 109.527 66.4303 110.025 67.3063 110.025C67.966 110.025 68.4418 109.733 68.7662 109.149L69.4475 109.603C68.9392 110.49 68.1065 110.89 67.2306 110.89C65.8788 110.89 64.6893 109.992 64.6893 108.067C64.6893 106.142 65.9329 105.191 67.2198 105.191C68.3877 105.191 69.4908 105.926 69.4908 107.721V108.327ZM65.6085 107.635H68.5824C68.5824 106.51 67.966 106.013 67.209 106.013C66.4303 106.013 65.7382 106.542 65.6085 107.635ZM70.8867 105.331H71.6221L71.8059 106.11C72.1304 105.537 72.6927 105.191 73.5254 105.191C74.5528 105.191 75.3638 105.785 75.3638 107.148V110.792H74.4446V107.364C74.4446 106.499 73.958 106.067 73.2767 106.067C72.444 106.067 71.8059 106.683 71.8059 107.656V110.792H70.8867V105.331ZM83.2536 105.331H84.2377L81.8261 111.679C81.4908 112.566 80.9069 112.988 80.1931 112.988C79.8471 112.988 79.4686 112.88 79.0685 112.685L79.3713 111.863C79.6308 112.036 79.8903 112.112 80.1499 112.112C80.5392 112.112 80.8744 111.906 81.0366 111.474L81.1989 111.03L78.9819 105.331H79.9877L81.6422 109.819L83.2536 105.331ZM87.3931 105.191C89.0801 105.191 90.0318 106.499 90.0318 108.046C90.0318 109.592 89.0801 110.89 87.3931 110.89C85.7061 110.89 84.7653 109.592 84.7653 108.046C84.7653 106.499 85.7061 105.191 87.3931 105.191ZM85.7061 108.046C85.7061 109.084 86.2684 110.003 87.3931 110.003C88.5286 110.003 89.091 109.084 89.091 108.046C89.091 106.997 88.5286 106.077 87.3931 106.077C86.2684 106.077 85.7061 106.997 85.7061 108.046ZM95.7964 105.331V110.792H95.0502L94.8772 109.981C94.5419 110.555 94.0445 110.89 93.2118 110.89C92.1628 110.89 91.3734 110.295 91.3734 108.932V105.331H92.2926V108.727C92.2926 109.592 92.7576 110.014 93.4389 110.014C94.2716 110.014 94.8772 109.408 94.8772 108.435V105.331H95.7964ZM97.0871 105.418C97.617 105.288 98.0172 104.812 98.0496 104.239C97.9847 104.261 97.909 104.271 97.8225 104.271C97.444 104.271 97.1845 104.001 97.1845 103.633C97.1845 103.287 97.444 102.974 97.8766 102.974C98.3849 102.974 98.6768 103.428 98.6768 104.088C98.6768 104.92 98.2226 105.883 97.0871 106.121V105.418ZM99.95 105.331H100.686L100.87 106.11C101.129 105.558 101.605 105.266 102.221 105.266C102.394 105.266 102.557 105.288 102.741 105.331V106.24C102.546 106.175 102.34 106.132 102.146 106.132C101.443 106.132 100.87 106.672 100.87 107.71V110.792H99.95V105.331ZM108.344 108.327H104.451C104.559 109.527 105.284 110.025 106.16 110.025C106.82 110.025 107.295 109.733 107.62 109.149L108.301 109.603C107.793 110.49 106.96 110.89 106.084 110.89C104.732 110.89 103.543 109.992 103.543 108.067C103.543 106.142 104.786 105.191 106.073 105.191C107.241 105.191 108.344 105.926 108.344 107.721V108.327ZM104.462 107.635H107.436C107.436 106.51 106.82 106.013 106.063 106.013C105.284 106.013 104.592 106.542 104.462 107.635ZM112.402 105.331H113.137L113.321 106.11C113.58 105.558 114.056 105.266 114.673 105.266C114.846 105.266 115.008 105.288 115.192 105.331V106.24C114.997 106.175 114.792 106.132 114.597 106.132C113.894 106.132 113.321 106.672 113.321 107.71V110.792H112.402V105.331ZM120.741 105.331V110.792H119.995L119.822 109.981C119.487 110.555 118.989 110.89 118.157 110.89C117.108 110.89 116.318 110.295 116.318 108.932V105.331H117.238V108.727C117.238 109.592 117.703 110.014 118.384 110.014C119.217 110.014 119.822 109.408 119.822 108.435V105.331H120.741ZM122.519 105.331H123.254L123.438 106.11C123.762 105.537 124.325 105.191 125.157 105.191C126.185 105.191 126.996 105.785 126.996 107.148V110.792H126.077V107.364C126.077 106.499 125.59 106.067 124.909 106.067C124.076 106.067 123.438 106.683 123.438 107.656V110.792H122.519V105.331ZM128.718 105.331H129.453L129.637 106.11C129.962 105.537 130.524 105.191 131.357 105.191C132.384 105.191 133.195 105.785 133.195 107.148V110.792H132.276V107.364C132.276 106.499 131.789 106.067 131.108 106.067C130.275 106.067 129.637 106.683 129.637 107.656V110.792H128.718V105.331ZM135.404 102.963C135.815 102.963 136.107 103.266 136.107 103.666C136.107 104.055 135.815 104.369 135.404 104.369C134.982 104.369 134.701 104.055 134.701 103.666C134.701 103.266 134.982 102.963 135.404 102.963ZM134.939 110.792V105.331H135.869V110.792H134.939ZM137.663 105.331H138.398L138.582 106.11C138.907 105.537 139.469 105.191 140.302 105.191C141.329 105.191 142.14 105.785 142.14 107.148V110.792H141.221V107.364C141.221 106.499 140.734 106.067 140.053 106.067C139.22 106.067 138.582 106.683 138.582 107.656V110.792H137.663V105.331ZM149.053 104.499C149.053 105.083 148.61 105.861 147.907 105.904C148.231 106.283 148.404 106.737 148.404 107.213C148.404 108.273 147.625 109.235 146.187 109.235C145.809 109.235 145.43 109.159 145.084 108.954C144.749 109.051 144.576 109.322 144.576 109.581C144.576 109.906 144.803 110.198 145.279 110.198H147.398C148.491 110.198 148.999 110.857 148.999 111.56C148.999 112.361 148.372 113.193 147.096 113.193H145.246C144.122 113.193 143.581 112.469 143.581 111.777C143.581 111.257 143.895 110.771 144.489 110.641C144.057 110.468 143.851 110.068 143.851 109.679C143.851 109.224 144.122 108.781 144.63 108.63C144.251 108.284 144.068 107.764 144.068 107.235C144.068 106.142 144.879 105.191 146.176 105.191C146.771 105.191 147.096 105.439 147.452 105.439C147.799 105.439 148.09 105.093 148.09 104.499H149.053ZM144.435 111.658C144.435 112.069 144.771 112.447 145.473 112.447H147.15C147.799 112.447 148.145 112.058 148.145 111.658C148.145 111.29 147.863 110.976 147.301 110.976H145.625C145.387 110.976 145.16 110.965 144.954 110.933C144.619 111.03 144.435 111.344 144.435 111.658ZM144.922 107.213C144.922 107.851 145.354 108.478 146.23 108.478C147.106 108.478 147.55 107.862 147.55 107.213C147.55 106.575 147.117 105.937 146.241 105.937C145.354 105.937 144.922 106.575 144.922 107.213ZM155.141 105.191C156.828 105.191 157.78 106.499 157.78 108.046C157.78 109.592 156.828 110.89 155.141 110.89C153.454 110.89 152.513 109.592 152.513 108.046C152.513 106.499 153.454 105.191 155.141 105.191ZM153.454 108.046C153.454 109.084 154.016 110.003 155.141 110.003C156.276 110.003 156.839 109.084 156.839 108.046C156.839 106.997 156.276 106.077 155.141 106.077C154.016 106.077 153.454 106.997 153.454 108.046ZM159.175 105.331H159.911L160.094 106.11C160.419 105.537 160.981 105.191 161.814 105.191C162.841 105.191 163.652 105.785 163.652 107.148V110.792H162.733V107.364C162.733 106.499 162.246 106.067 161.565 106.067C160.732 106.067 160.094 106.683 160.094 107.656V110.792H159.175V105.331ZM169.061 103.039V110.792H168.141V103.039H169.061ZM171.31 102.963C171.721 102.963 172.013 103.266 172.013 103.666C172.013 104.055 171.721 104.369 171.31 104.369C170.889 104.369 170.607 104.055 170.607 103.666C170.607 103.266 170.889 102.963 171.31 102.963ZM170.845 110.792V105.331H171.775V110.792H170.845ZM172.877 105.331H173.807V104.088L174.738 103.742V105.331H175.895V106.142H174.738V109.278C174.738 109.83 174.997 110.046 175.386 110.046C175.549 110.046 175.722 110.014 175.895 109.927V110.738C175.646 110.847 175.376 110.89 175.127 110.89C174.424 110.89 173.807 110.479 173.807 109.354V106.142H172.877V105.331ZM176.521 105.331H177.451V104.088L178.381 103.742V105.331H179.538V106.142H178.381V109.278C178.381 109.83 178.641 110.046 179.03 110.046C179.192 110.046 179.365 110.014 179.538 109.927V110.738C179.289 110.847 179.018 110.89 178.77 110.89C178.066 110.89 177.451 110.479 177.451 109.354V106.142H176.521V105.331ZM181.776 103.039V110.792H180.857V103.039H181.776ZM187.962 108.327H184.069C184.177 109.527 184.902 110.025 185.777 110.025C186.437 110.025 186.913 109.733 187.237 109.149L187.919 109.603C187.41 110.49 186.578 110.89 185.702 110.89C184.35 110.89 183.16 109.992 183.16 108.067C183.16 106.142 184.404 105.191 185.691 105.191C186.859 105.191 187.962 105.926 187.962 107.721V108.327ZM184.079 107.635H187.053C187.053 106.51 186.437 106.013 185.68 106.013C184.902 106.013 184.208 106.542 184.079 107.635ZM194.747 106.651C194.574 106.186 194.109 105.969 193.644 105.969C193.103 105.969 192.714 106.261 192.714 106.737C192.714 107.278 193.255 107.44 193.816 107.613L194.228 107.732C194.877 107.927 195.73 108.186 195.73 109.214C195.73 110.273 194.812 110.89 193.698 110.89C192.681 110.89 191.751 110.382 191.459 109.354L192.249 109.084C192.454 109.776 193.103 110.111 193.752 110.111C194.325 110.111 194.833 109.852 194.833 109.311C194.833 108.781 194.357 108.597 193.816 108.435L193.428 108.327C192.757 108.143 191.816 107.851 191.816 106.77C191.816 105.764 192.637 105.191 193.665 105.191C194.508 105.191 195.18 105.558 195.471 106.294L194.747 106.651ZM197.976 103.039V110.792H197.057V103.039H197.976ZM204.161 108.327H200.269C200.377 109.527 201.102 110.025 201.978 110.025C202.637 110.025 203.113 109.733 203.438 109.149L204.118 109.603C203.611 110.49 202.778 110.89 201.902 110.89C200.55 110.89 199.361 109.992 199.361 108.067C199.361 106.142 200.604 105.191 201.891 105.191C203.059 105.191 204.161 105.926 204.161 107.721V108.327ZM200.28 107.635H203.254C203.254 106.51 202.637 106.013 201.88 106.013C201.102 106.013 200.41 106.542 200.28 107.635ZM209.98 108.327H206.088C206.196 109.527 206.921 110.025 207.797 110.025C208.456 110.025 208.932 109.733 209.257 109.149L209.938 109.603C209.43 110.49 208.597 110.89 207.721 110.89C206.369 110.89 205.18 109.992 205.18 108.067C205.18 106.142 206.423 105.191 207.71 105.191C208.878 105.191 209.98 105.926 209.98 107.721V108.327ZM206.099 107.635H209.073C209.073 106.51 208.456 106.013 207.699 106.013C206.921 106.013 206.229 106.542 206.099 107.635ZM211.377 105.331H212.112L212.329 106.229C212.653 105.504 213.421 105.191 214.156 105.191C215.692 105.191 216.503 106.488 216.503 107.959C216.503 109.419 215.724 110.792 214.124 110.792C213.389 110.792 212.652 110.5 212.296 109.776V112.988H211.377V105.331ZM212.296 108.056C212.296 109.051 212.815 109.927 213.918 109.927C215.043 109.927 215.562 108.997 215.562 108.002C215.562 106.997 215.031 106.077 213.951 106.077C212.826 106.077 212.296 107.051 212.296 108.056ZM54.0319 122.331H55.016L52.6044 128.679C52.2692 129.566 51.6852 129.988 50.9715 129.988C50.6254 129.988 50.2469 129.88 49.8468 129.685L50.1496 128.863C50.4092 129.036 50.6687 129.112 50.9282 129.112C51.3175 129.112 51.6528 128.906 51.815 128.474L51.9772 128.03L49.7603 122.331H50.766L52.4206 126.819L54.0319 122.331ZM58.1715 122.191C59.8585 122.191 60.8102 123.499 60.8102 125.046C60.8102 126.592 59.8585 127.89 58.1715 127.89C56.4845 127.89 55.5436 126.592 55.5436 125.046C55.5436 123.499 56.4845 122.191 58.1715 122.191ZM56.4845 125.046C56.4845 126.084 57.0468 127.003 58.1715 127.003C59.307 127.003 59.8693 126.084 59.8693 125.046C59.8693 123.997 59.307 123.077 58.1715 123.077C57.0468 123.077 56.4845 123.997 56.4845 125.046ZM66.5747 122.331V127.792H65.8285L65.6555 126.981C65.3203 127.555 64.8228 127.89 63.9901 127.89C62.9411 127.89 62.1517 127.295 62.1517 125.932V122.331H63.0709V125.727C63.0709 126.592 63.5359 127.014 64.2172 127.014C65.0499 127.014 65.6555 126.408 65.6555 125.435V122.331H66.5747ZM68.3521 122.331H69.0875L69.2714 123.11C69.5309 122.558 70.0067 122.266 70.6231 122.266C70.7962 122.266 70.9584 122.288 71.1422 122.331V123.24C70.9476 123.175 70.7421 123.132 70.5474 123.132C69.8445 123.132 69.2714 123.672 69.2714 124.71V127.792H68.3521V122.331ZM75.0507 123.651C74.8777 123.186 74.4127 122.969 73.9477 122.969C73.407 122.969 73.0176 123.261 73.0176 123.737C73.0176 124.278 73.5584 124.44 74.1207 124.613L74.5316 124.732C75.1805 124.927 76.0348 125.186 76.0348 126.214C76.0348 127.273 75.1156 127.89 74.0017 127.89C72.9852 127.89 72.0552 127.382 71.7632 126.354L72.5526 126.084C72.7581 126.776 73.407 127.111 74.0558 127.111C74.629 127.111 75.1372 126.852 75.1372 126.311C75.1372 125.781 74.6614 125.597 74.1207 125.435L73.7314 125.327C73.0609 125.143 72.1201 124.851 72.1201 123.77C72.1201 122.764 72.9419 122.191 73.9693 122.191C74.8128 122.191 75.4833 122.558 75.7753 123.294L75.0507 123.651ZM81.7835 125.327H77.8904C77.9985 126.527 78.7231 127.025 79.599 127.025C80.2587 127.025 80.7345 126.733 81.0589 126.149L81.7402 126.603C81.232 127.49 80.3993 127.89 79.5233 127.89C78.1715 127.89 76.982 126.992 76.982 125.067C76.982 123.142 78.2256 122.191 79.5125 122.191C80.6804 122.191 81.7835 122.926 81.7835 124.721V125.327ZM77.9012 124.635H80.8751C80.8751 123.51 80.2587 123.013 79.5017 123.013C78.7231 123.013 78.031 123.542 77.9012 124.635ZM84.0987 120.039V127.792H83.1795V120.039H84.0987ZM85.3212 122.331H86.2512V121.553C86.2512 120.504 86.8136 120.006 87.5922 120.006C87.8193 120.006 88.068 120.049 88.3275 120.125V120.958C88.1329 120.882 87.9707 120.839 87.8193 120.839C87.4191 120.839 87.1704 121.088 87.1704 121.574V122.331H88.3275V123.142H87.1704V127.792H86.2512V123.142H85.3212V122.331ZM89.6279 126.516C90.028 126.516 90.2983 126.819 90.2983 127.198C90.2983 127.565 90.028 127.868 89.6279 127.868C89.2277 127.868 88.9574 127.565 88.9574 127.198C88.9574 126.819 89.2277 126.516 89.6279 126.516ZM97.2947 120.201C98.852 120.201 99.5116 121.153 99.5116 122.083C99.5116 122.807 99.1007 123.499 98.4086 123.748C99.4251 123.997 99.9334 124.786 99.9334 125.597C99.9334 126.668 99.0683 127.792 97.3921 127.792H94.429V120.201H97.2947ZM95.4022 126.906H97.4894C98.4302 126.906 98.9169 126.246 98.9169 125.597C98.9169 124.927 98.4194 124.267 97.4353 124.267H95.4022V126.906ZM95.4022 123.434H97.2515C98.095 123.434 98.5167 122.818 98.5167 122.234C98.5167 121.65 98.1058 121.077 97.2731 121.077H95.4022V123.434ZM105.745 122.331V127.792H104.999L104.826 126.981C104.491 127.555 103.993 127.89 103.161 127.89C102.112 127.89 101.322 127.295 101.322 125.932V122.331H102.241V125.727C102.241 126.592 102.706 127.014 103.388 127.014C104.22 127.014 104.826 126.408 104.826 125.435V122.331H105.745ZM106.83 122.331H107.76V121.088L108.69 120.742V122.331H109.848V123.142H108.69V126.278C108.69 126.83 108.95 127.046 109.339 127.046C109.502 127.046 109.675 127.014 109.848 126.927V127.738C109.599 127.847 109.329 127.89 109.08 127.89C108.377 127.89 107.76 127.479 107.76 126.354V123.142H106.83V122.331ZM115.058 120.201V127.792H114.095V120.201H115.058ZM119.868 122.331H120.603L120.82 123.229C121.144 122.504 121.912 122.191 122.647 122.191C124.183 122.191 124.994 123.488 124.994 124.959C124.994 126.419 124.215 127.792 122.615 127.792C121.88 127.792 121.144 127.5 120.787 126.776V129.988H119.868V122.331ZM120.787 125.056C120.787 126.051 121.306 126.927 122.409 126.927C123.534 126.927 124.053 125.997 124.053 125.002C124.053 123.997 123.523 123.077 122.442 123.077C121.317 123.077 120.787 124.051 120.787 125.056ZM126.373 122.331H127.109L127.293 123.11C127.552 122.558 128.028 122.266 128.644 122.266C128.818 122.266 128.98 122.288 129.164 122.331V123.24C128.969 123.175 128.763 123.132 128.569 123.132C127.866 123.132 127.293 123.672 127.293 124.71V127.792H126.373V122.331ZM132.594 122.191C134.281 122.191 135.232 123.499 135.232 125.046C135.232 126.592 134.281 127.89 132.594 127.89C130.907 127.89 129.966 126.592 129.966 125.046C129.966 123.499 130.907 122.191 132.594 122.191ZM130.907 125.046C130.907 126.084 131.469 127.003 132.594 127.003C133.729 127.003 134.292 126.084 134.292 125.046C134.292 123.997 133.729 123.077 132.594 123.077C131.469 123.077 130.907 123.997 130.907 125.046ZM136.628 122.331H137.363L137.536 123.088C137.764 122.526 138.391 122.191 139.029 122.191C139.743 122.191 140.37 122.591 140.521 123.326C140.791 122.591 141.462 122.191 142.241 122.191C143.138 122.191 143.96 122.753 143.96 123.932V127.792H143.041V124.278C143.041 123.488 142.619 123.067 142.003 123.067C141.311 123.067 140.748 123.564 140.748 124.483V127.792H139.829V124.278C139.829 123.488 139.418 123.067 138.791 123.067C138.11 123.067 137.547 123.564 137.547 124.483V127.792H136.628V122.331ZM146.165 119.963C146.576 119.963 146.868 120.266 146.868 120.666C146.868 121.055 146.576 121.369 146.165 121.369C145.743 121.369 145.462 121.055 145.462 120.666C145.462 120.266 145.743 119.963 146.165 119.963ZM145.7 127.792V122.331H146.63V127.792H145.7ZM151.258 123.651C151.085 123.186 150.62 122.969 150.155 122.969C149.614 122.969 149.225 123.261 149.225 123.737C149.225 124.278 149.765 124.44 150.328 124.613L150.739 124.732C151.387 124.927 152.242 125.186 152.242 126.214C152.242 127.273 151.323 127.89 150.209 127.89C149.192 127.89 148.262 127.382 147.97 126.354L148.76 126.084C148.965 126.776 149.614 127.111 150.263 127.111C150.836 127.111 151.344 126.852 151.344 126.311C151.344 125.781 150.868 125.597 150.328 125.435L149.938 125.327C149.268 125.143 148.327 124.851 148.327 123.77C148.327 122.764 149.149 122.191 150.176 122.191C151.02 122.191 151.69 122.558 151.982 123.294L151.258 123.651ZM157.99 125.327H154.097C154.206 126.527 154.93 127.025 155.806 127.025C156.466 127.025 156.942 126.733 157.266 126.149L157.947 126.603C157.439 127.49 156.606 127.89 155.73 127.89C154.379 127.89 153.189 126.992 153.189 125.067C153.189 123.142 154.433 122.191 155.72 122.191C156.887 122.191 157.99 122.926 157.99 124.721V125.327ZM154.108 124.635H157.082C157.082 123.51 156.466 123.013 155.709 123.013C154.93 123.013 154.238 123.542 154.108 124.635ZM158.9 128.96C159.43 128.831 159.83 128.355 159.862 127.782C159.797 127.803 159.722 127.814 159.635 127.814C159.257 127.814 158.997 127.544 158.997 127.176C158.997 126.83 159.257 126.516 159.689 126.516C160.198 126.516 160.49 126.971 160.49 127.63C160.49 128.463 160.035 129.425 158.9 129.663V128.96ZM167.825 122.331H168.809L166.397 128.679C166.062 129.566 165.478 129.988 164.764 129.988C164.418 129.988 164.04 129.88 163.64 129.685L163.942 128.863C164.202 129.036 164.461 129.112 164.721 129.112C165.11 129.112 165.446 128.906 165.608 128.474L165.77 128.03L163.553 122.331H164.559L166.213 126.819L167.825 122.331ZM171.964 122.191C173.651 122.191 174.603 123.499 174.603 125.046C174.603 126.592 173.651 127.89 171.964 127.89C170.277 127.89 169.336 126.592 169.336 125.046C169.336 123.499 170.277 122.191 171.964 122.191ZM170.277 125.046C170.277 126.084 170.84 127.003 171.964 127.003C173.1 127.003 173.662 126.084 173.662 125.046C173.662 123.997 173.1 123.077 171.964 123.077C170.84 123.077 170.277 123.997 170.277 125.046ZM180.367 122.331V127.792H179.621L179.448 126.981C179.113 127.555 178.615 127.89 177.783 127.89C176.733 127.89 175.944 127.295 175.944 125.932V122.331H176.864V125.727C176.864 126.592 177.329 127.014 178.01 127.014C178.843 127.014 179.448 126.408 179.448 125.435V122.331H180.367ZM181.658 122.418C182.188 122.288 182.588 121.812 182.621 121.239C182.556 121.261 182.48 121.271 182.394 121.271C182.015 121.271 181.756 121.001 181.756 120.633C181.756 120.287 182.015 119.974 182.448 119.974C182.956 119.974 183.247 120.428 183.247 121.088C183.247 121.92 182.794 122.883 181.658 123.121V122.418ZM184.521 122.331H185.256L185.44 123.11C185.7 122.558 186.176 122.266 186.792 122.266C186.965 122.266 187.127 122.288 187.311 122.331V123.24C187.116 123.175 186.911 123.132 186.716 123.132C186.013 123.132 185.44 123.672 185.44 124.71V127.792H184.521V122.331ZM192.915 125.327H189.022C189.13 126.527 189.855 127.025 190.73 127.025C191.39 127.025 191.866 126.733 192.19 126.149L192.872 126.603C192.363 127.49 191.531 127.89 190.655 127.89C189.303 127.89 188.113 126.992 188.113 125.067C188.113 123.142 189.357 122.191 190.644 122.191C191.812 122.191 192.915 122.926 192.915 124.721V125.327ZM189.033 124.635H192.007C192.007 123.51 191.39 123.013 190.633 123.013C189.855 123.013 189.161 123.542 189.033 124.635ZM196.971 122.331H197.708L197.891 123.11C198.215 122.537 198.778 122.191 199.611 122.191C200.637 122.191 201.449 122.785 201.449 124.148V127.792H200.53V124.364C200.53 123.499 200.043 123.067 199.362 123.067C198.529 123.067 197.891 123.683 197.891 124.656V127.792H196.971V122.331ZM205.421 122.191C207.107 122.191 208.059 123.499 208.059 125.046C208.059 126.592 207.107 127.89 205.421 127.89C203.734 127.89 202.793 126.592 202.793 125.046C202.793 123.499 203.734 122.191 205.421 122.191ZM203.734 125.046C203.734 126.084 204.296 127.003 205.421 127.003C206.555 127.003 207.118 126.084 207.118 125.046C207.118 123.997 206.555 123.077 205.421 123.077C204.296 123.077 203.734 123.997 203.734 125.046ZM208.763 122.331H209.693V121.088L210.622 120.742V122.331H211.78V123.142H210.622V126.278C210.622 126.83 210.883 127.046 211.272 127.046C211.434 127.046 211.607 127.014 211.78 126.927V127.738C211.531 127.847 211.26 127.89 211.012 127.89C210.309 127.89 209.693 127.479 209.693 126.354V123.142H208.763V122.331ZM217.003 127.89C216.128 127.89 215.381 127.392 215.381 126.343C215.381 125.154 216.365 124.873 217.252 124.646L217.868 124.494C218.333 124.375 218.734 124.267 218.734 123.759C218.734 123.24 218.312 122.969 217.62 122.969C216.863 122.969 216.344 123.348 216.182 123.921L215.414 123.629C215.727 122.677 216.625 122.191 217.685 122.191C218.885 122.191 219.664 122.764 219.664 123.997V126.657C219.664 126.981 219.837 127.133 220.064 127.133C220.172 127.133 220.29 127.09 220.421 127.014V127.695C220.247 127.825 220.021 127.89 219.783 127.89C219.307 127.89 218.831 127.587 218.799 126.852C218.517 127.479 217.782 127.89 217.003 127.89ZM216.322 126.268C216.322 126.884 216.755 127.111 217.273 127.111C218.042 127.111 218.745 126.56 218.745 125.554V124.84C218.528 125.013 218.236 125.1 217.879 125.197L217.339 125.327C216.798 125.467 216.322 125.619 216.322 126.268ZM222.53 120.039V127.792H221.609V120.039H222.53ZM226.542 122.191C228.229 122.191 229.181 123.499 229.181 125.046C229.181 126.592 228.229 127.89 226.542 127.89C224.855 127.89 223.914 126.592 223.914 125.046C223.914 123.499 224.855 122.191 226.542 122.191ZM224.855 125.046C224.855 126.084 225.418 127.003 226.542 127.003C227.678 127.003 228.24 126.084 228.24 125.046C228.24 123.997 227.678 123.077 226.542 123.077C225.418 123.077 224.855 123.997 224.855 125.046ZM230.577 122.331H231.312L231.496 123.11C231.82 122.537 232.383 122.191 233.215 122.191C234.243 122.191 235.053 122.785 235.053 124.148V127.792H234.134V124.364C234.134 123.499 233.648 123.067 232.967 123.067C232.134 123.067 231.496 123.683 231.496 124.656V127.792H230.577V122.331ZM241.199 125.327H237.306C237.414 126.527 238.138 127.025 239.014 127.025C239.674 127.025 240.15 126.733 240.474 126.149L241.156 126.603C240.647 127.49 239.815 127.89 238.939 127.89C237.587 127.89 236.397 126.992 236.397 125.067C236.397 123.142 237.641 122.191 238.928 122.191C240.096 122.191 241.199 122.926 241.199 124.721V125.327ZM237.316 124.635H240.29C240.29 123.51 239.674 123.013 238.917 123.013C238.137 123.013 237.446 123.542 237.316 124.635ZM49.9766 140.678V139.867H57.7628V140.678H49.9766ZM58.3982 138.331H59.3283V137.088L60.2583 136.742V138.331H61.4154V139.142H60.2583V142.278C60.2583 142.83 60.5178 143.046 60.9071 143.046C61.0694 143.046 61.2424 143.014 61.4154 142.927V143.738C61.1667 143.847 60.8963 143.89 60.6476 143.89C59.9447 143.89 59.3283 143.479 59.3283 142.354V139.142H58.3982V138.331ZM62.7338 136.039H63.653V139.121C63.9775 138.558 64.5398 138.191 65.3725 138.191C66.3998 138.191 67.2109 138.785 67.2109 140.148V143.792H66.2917V140.364C66.2917 139.499 65.8051 139.067 65.1238 139.067C64.2911 139.067 63.653 139.683 63.653 140.656V143.792H62.7338V136.039ZM69.4196 135.963C69.8306 135.963 70.1226 136.266 70.1226 136.666C70.1226 137.055 69.8306 137.369 69.4196 137.369C68.9979 137.369 68.7167 137.055 68.7167 136.666C68.7167 136.266 68.9979 135.963 69.4196 135.963ZM68.9546 143.792V138.331H69.8846V143.792H68.9546ZM74.5121 139.651C74.3391 139.186 73.8741 138.969 73.4091 138.969C72.8684 138.969 72.479 139.261 72.479 139.737C72.479 140.278 73.0198 140.44 73.5821 140.613L73.993 140.732C74.6419 140.927 75.4962 141.186 75.4962 142.214C75.4962 143.273 74.577 143.89 73.4631 143.89C72.4466 143.89 71.5166 143.382 71.2246 142.354L72.014 142.084C72.2195 142.776 72.8684 143.111 73.5172 143.111C74.0904 143.111 74.5986 142.852 74.5986 142.311C74.5986 141.781 74.1228 141.597 73.5821 141.435L73.1928 141.327C72.5223 141.143 71.5815 140.851 71.5815 139.77C71.5815 138.764 72.4033 138.191 73.4307 138.191C74.2742 138.191 74.9447 138.558 75.2367 139.294L74.5121 139.651ZM79.9698 135.963C80.3808 135.963 80.6728 136.266 80.6728 136.666C80.6728 137.055 80.3808 137.369 79.9698 137.369C79.5481 137.369 79.2669 137.055 79.2669 136.666C79.2669 136.266 79.5481 135.963 79.9698 135.963ZM79.5048 143.792V138.331H80.4348V143.792H79.5048ZM85.0623 139.651C84.8893 139.186 84.4243 138.969 83.9593 138.969C83.4186 138.969 83.0292 139.261 83.0292 139.737C83.0292 140.278 83.57 140.44 84.1323 140.613L84.5432 140.732C85.1921 140.927 86.0464 141.186 86.0464 142.214C86.0464 143.273 85.1272 143.89 84.0133 143.89C82.9968 143.89 82.0668 143.382 81.7748 142.354L82.5642 142.084C82.7697 142.776 83.4186 143.111 84.0674 143.111C84.6406 143.111 85.1488 142.852 85.1488 142.311C85.1488 141.781 84.673 141.597 84.1323 141.435L83.743 141.327C83.0725 141.143 82.1317 140.851 82.1317 139.77C82.1317 138.764 82.9535 138.191 83.9809 138.191C84.8244 138.191 85.4949 138.558 85.7869 139.294L85.0623 139.651ZM92.7611 139.651C92.5881 139.186 92.1231 138.969 91.6581 138.969C91.1174 138.969 90.728 139.261 90.728 139.737C90.728 140.278 91.2688 140.44 91.8311 140.613L92.242 140.732C92.8909 140.927 93.7452 141.186 93.7452 142.214C93.7452 143.273 92.826 143.89 91.7121 143.89C90.6956 143.89 89.7656 143.382 89.4736 142.354L90.263 142.084C90.4685 142.776 91.1174 143.111 91.7662 143.111C92.3394 143.111 92.8476 142.852 92.8476 142.311C92.8476 141.781 92.3718 141.597 91.8311 141.435L91.4418 141.327C90.7713 141.143 89.8305 140.851 89.8305 139.77C89.8305 138.764 90.6523 138.191 91.6797 138.191C92.5232 138.191 93.1937 138.558 93.4857 139.294L92.7611 139.651ZM99.4398 138.331V143.792H98.6937L98.5206 142.981C98.1854 143.555 97.6879 143.89 96.8552 143.89C95.8063 143.89 95.0168 143.295 95.0168 141.932V138.331H95.936V141.727C95.936 142.592 96.401 143.014 97.0823 143.014C97.915 143.014 98.5206 142.408 98.5206 141.435V138.331H99.4398ZM101.218 138.331H101.953L102.169 139.229C102.494 138.504 103.262 138.191 103.997 138.191C105.533 138.191 106.344 139.488 106.344 140.959C106.344 142.419 105.565 143.792 103.965 143.792C103.229 143.792 102.494 143.5 102.137 142.776V145.988H101.218V138.331ZM102.137 141.056C102.137 142.051 102.656 142.927 103.759 142.927C104.884 142.927 105.403 141.997 105.403 141.002C105.403 139.997 104.873 139.077 103.792 139.077C102.667 139.077 102.137 140.051 102.137 141.056ZM112.146 141.327H108.253C108.361 142.527 109.086 143.025 109.962 143.025C110.621 143.025 111.097 142.733 111.422 142.149L112.103 142.603C111.595 143.49 110.762 143.89 109.886 143.89C108.534 143.89 107.345 142.992 107.345 141.067C107.345 139.142 108.588 138.191 109.875 138.191C111.043 138.191 112.146 138.926 112.146 140.721V141.327ZM108.264 140.635H111.238C111.238 139.51 110.621 139.013 109.864 139.013C109.086 139.013 108.394 139.542 108.264 140.635ZM113.542 138.331H114.278L114.461 139.11C114.721 138.558 115.197 138.266 115.813 138.266C115.986 138.266 116.148 138.288 116.332 138.331V139.24C116.138 139.175 115.932 139.132 115.737 139.132C115.035 139.132 114.461 139.672 114.461 140.71V143.792H113.542V138.331ZM123.575 140.116C123.37 139.402 122.84 139.067 122.191 139.067C121.282 139.067 120.525 139.715 120.525 141.046C120.525 142.365 121.272 143.014 122.212 143.014C122.883 143.014 123.37 142.679 123.64 141.997L124.397 142.354C123.975 143.403 123.121 143.89 122.137 143.89C120.796 143.89 119.585 142.981 119.585 141.067C119.585 139.11 120.85 138.191 122.212 138.191C123.164 138.191 124.073 138.688 124.386 139.813L123.575 140.116ZM127.989 138.191C129.676 138.191 130.628 139.499 130.628 141.046C130.628 142.592 129.676 143.89 127.989 143.89C126.302 143.89 125.361 142.592 125.361 141.046C125.361 139.499 126.302 138.191 127.989 138.191ZM126.302 141.046C126.302 142.084 126.865 143.003 127.989 143.003C129.125 143.003 129.687 142.084 129.687 141.046C129.687 139.997 129.125 139.077 127.989 139.077C126.865 139.077 126.302 139.997 126.302 141.046ZM132.024 138.331H132.759L132.932 139.088C133.159 138.526 133.786 138.191 134.424 138.191C135.138 138.191 135.765 138.591 135.917 139.326C136.187 138.591 136.857 138.191 137.636 138.191C138.534 138.191 139.356 138.753 139.356 139.932V143.792H138.436V140.278C138.436 139.488 138.015 139.067 137.398 139.067C136.706 139.067 136.144 139.564 136.144 140.483V143.792H135.225V140.278C135.225 139.488 134.814 139.067 134.186 139.067C133.505 139.067 132.943 139.564 132.943 140.483V143.792H132.024V138.331ZM141.074 138.331H141.809L141.982 139.088C142.21 138.526 142.837 138.191 143.475 138.191C144.189 138.191 144.816 138.591 144.967 139.326C145.238 138.591 145.908 138.191 146.687 138.191C147.584 138.191 148.406 138.753 148.406 139.932V143.792H147.487V140.278C147.487 139.488 147.065 139.067 146.449 139.067C145.757 139.067 145.194 139.564 145.194 140.483V143.792H144.275V140.278C144.275 139.488 143.864 139.067 143.237 139.067C142.556 139.067 141.993 139.564 141.993 140.483V143.792H141.074V138.331ZM152.374 138.191C154.061 138.191 155.013 139.499 155.013 141.046C155.013 142.592 154.061 143.89 152.374 143.89C150.687 143.89 149.746 142.592 149.746 141.046C149.746 139.499 150.687 138.191 152.374 138.191ZM150.687 141.046C150.687 142.084 151.249 143.003 152.374 143.003C153.51 143.003 154.072 142.084 154.072 141.046C154.072 139.997 153.51 139.077 152.374 139.077C151.249 139.077 150.687 139.997 150.687 141.046ZM156.408 138.331H157.144L157.328 139.11C157.652 138.537 158.214 138.191 159.047 138.191C160.074 138.191 160.885 138.785 160.885 140.148V143.792H159.966V140.364C159.966 139.499 159.48 139.067 158.798 139.067C157.966 139.067 157.328 139.683 157.328 140.656V143.792H156.408V138.331ZM166.512 143.89C165.636 143.89 164.89 143.392 164.89 142.343C164.89 141.154 165.874 140.873 166.761 140.646L167.378 140.494C167.843 140.375 168.243 140.267 168.243 139.759C168.243 139.24 167.821 138.969 167.129 138.969C166.372 138.969 165.853 139.348 165.691 139.921L164.923 139.629C165.236 138.677 166.134 138.191 167.194 138.191C168.394 138.191 169.173 138.764 169.173 139.997V142.657C169.173 142.981 169.346 143.133 169.573 143.133C169.681 143.133 169.8 143.09 169.93 143.014V143.695C169.757 143.825 169.53 143.89 169.292 143.89C168.816 143.89 168.34 143.587 168.308 142.852C168.026 143.479 167.291 143.89 166.512 143.89ZM165.831 142.268C165.831 142.884 166.264 143.111 166.783 143.111C167.551 143.111 168.254 142.56 168.254 141.554V140.84C168.037 141.013 167.745 141.1 167.388 141.197L166.848 141.327C166.307 141.467 165.831 141.619 165.831 142.268ZM170.322 138.331H171.252V137.088L172.182 136.742V138.331H173.339V139.142H172.182V142.278C172.182 142.83 172.441 143.046 172.831 143.046C172.993 143.046 173.166 143.014 173.339 142.927V143.738C173.09 143.847 172.82 143.89 172.571 143.89C171.868 143.89 171.252 143.479 171.252 142.354V139.142H170.322V138.331ZM177.329 136.32H181.871V137.315L179.492 139.434C179.676 139.391 179.859 139.38 180.033 139.38C181.255 139.38 182.228 140.191 182.228 141.532C182.228 143.111 180.92 143.965 179.59 143.965C178.487 143.965 177.416 143.382 177.037 142.159L177.935 141.824C178.162 142.668 178.887 143.079 179.633 143.079C180.476 143.079 181.277 142.538 181.277 141.532C181.277 140.559 180.53 140.105 179.73 140.105C179.363 140.105 178.973 140.213 178.648 140.397L178.184 139.597L180.79 137.239H177.329V136.32ZM186.484 138.331H187.221L187.394 139.088C187.621 138.526 188.247 138.191 188.885 138.191C189.6 138.191 190.227 138.591 190.379 139.326C190.649 138.591 191.318 138.191 192.098 138.191C192.995 138.191 193.816 138.753 193.816 139.932V143.792H192.898V140.278C192.898 139.488 192.475 139.067 191.859 139.067C191.167 139.067 190.605 139.564 190.605 140.483V143.792H189.686V140.278C189.686 139.488 189.275 139.067 188.648 139.067C187.967 139.067 187.405 139.564 187.405 140.483V143.792H186.484V138.331ZM197.785 138.191C199.472 138.191 200.424 139.499 200.424 141.046C200.424 142.592 199.472 143.89 197.785 143.89C196.098 143.89 195.157 142.592 195.157 141.046C195.157 139.499 196.098 138.191 197.785 138.191ZM196.098 141.046C196.098 142.084 196.661 143.003 197.785 143.003C198.921 143.003 199.483 142.084 199.483 141.046C199.483 139.997 198.921 139.077 197.785 139.077C196.661 139.077 196.098 139.997 196.098 141.046ZM201.82 138.331H202.555L202.739 139.11C203.063 138.537 203.626 138.191 204.458 138.191C205.486 138.191 206.297 138.785 206.297 140.148V143.792H205.378V140.364C205.378 139.499 204.891 139.067 204.21 139.067C203.377 139.067 202.739 139.683 202.739 140.656V143.792H201.82V138.331ZM207.327 138.331H208.257V137.088L209.187 136.742V138.331H210.344V139.142H209.187V142.278C209.187 142.83 209.446 143.046 209.836 143.046C209.998 143.046 210.171 143.014 210.344 142.927V143.738C210.095 143.847 209.824 143.89 209.576 143.89C208.872 143.89 208.257 143.479 208.257 142.354V139.142H207.327V138.331ZM211.661 136.039H212.581V139.121C212.906 138.558 213.468 138.191 214.301 138.191C215.327 138.191 216.139 138.785 216.139 140.148V143.792H215.22V140.364C215.22 139.499 214.733 139.067 214.052 139.067C213.22 139.067 212.581 139.683 212.581 140.656V143.792H211.661V136.039ZM220.695 139.651C220.522 139.186 220.057 138.969 219.592 138.969C219.051 138.969 218.661 139.261 218.661 139.737C218.661 140.278 219.202 140.44 219.765 140.613L220.176 140.732C220.825 140.927 221.678 141.186 221.678 142.214C221.678 143.273 220.76 143.89 219.646 143.89C218.629 143.89 217.699 143.382 217.407 142.354L218.197 142.084C218.402 142.776 219.051 143.111 219.7 143.111C220.273 143.111 220.781 142.852 220.781 142.311C220.781 141.781 220.305 141.597 219.765 141.435L219.375 141.327C218.705 141.143 217.764 140.851 217.764 139.77C217.764 138.764 218.586 138.191 219.613 138.191C220.457 138.191 221.127 138.558 221.419 139.294L220.695 139.651ZM223.275 142.516C223.674 142.516 223.945 142.819 223.945 143.198C223.945 143.565 223.674 143.868 223.275 143.868C222.875 143.868 222.604 143.565 222.604 143.198C222.604 142.819 222.875 142.516 223.275 142.516Z" fill="#343047"/>
</g>
<g filter="url(#filter2_d_239_1514)">
<path d="M319.043 40.4903C324.994 40.4903 329.818 35.6657 329.818 29.7144C329.818 23.763 324.994 18.9385 319.043 18.9385C313.091 18.9385 308.267 23.763 308.267 29.7144C308.267 35.6657 313.091 40.4903 319.043 40.4903Z" fill="white"/>
<path d="M319.382 22.7583C320.192 21.8766 321.061 21.2169 322.25 21.5577C323.711 21.9761 324.199 23.2575 324.205 24.9024C325.443 24.8309 326.571 24.9467 327.196 26.0558C327.942 27.3792 327.39 28.6348 326.239 29.8093C327.17 30.6278 327.892 31.5025 327.557 32.731C327.159 34.1967 325.884 34.7021 324.239 34.7297C324.327 35.9666 324.228 37.0965 323.127 37.7363C321.813 38.4993 320.55 37.9645 319.36 36.8294C318.555 37.7712 317.69 38.5044 316.458 38.1867C314.987 37.8076 314.462 36.5398 314.413 34.8961C313.177 35.0006 312.047 34.9151 311.393 33.8233C310.612 32.5203 311.129 31.2494 312.248 30.0445C311.295 29.2514 310.551 28.3963 310.852 27.1597C311.225 25.63 312.565 25.1029 314.296 25.0635C314.343 25.075 314.389 25.0913 314.435 25.105C314.331 23.7161 314.357 22.411 315.587 21.7288C316.933 20.9825 318.202 21.5678 319.382 22.7583Z" fill="#B5B8F0"/>
<path d="M317.156 26.5444C318.065 26.5444 318.802 27.2814 318.802 28.1899C318.802 29.0982 318.065 29.8344 317.156 29.8344C316.86 29.8344 316.583 29.7539 316.343 29.6167C316.838 29.3332 317.173 28.8012 317.173 28.1899C317.173 27.5782 316.838 27.0446 316.343 26.7612C316.583 26.6241 316.86 26.5445 317.156 26.5444Z" fill="white"/>
<path d="M316.343 26.7612C316.839 27.0445 317.174 27.5779 317.174 28.1899C317.174 28.8015 316.838 29.3333 316.343 29.6167C315.847 29.3333 315.513 28.8014 315.513 28.1899C315.513 27.578 315.847 27.0446 316.343 26.7612Z" fill="#2E2A42"/>
<path d="M321.049 26.5444C321.957 26.5444 322.694 27.2814 322.694 28.1899C322.694 29.0982 321.957 29.8344 321.049 29.8344C320.752 29.8344 320.475 29.7542 320.234 29.6167C320.73 29.3333 321.064 28.8014 321.064 28.1899C321.064 27.578 320.73 27.0446 320.234 26.7612C320.475 26.6239 320.752 26.5444 321.049 26.5444Z" fill="white"/>
<path d="M320.237 26.7612C320.733 27.0445 321.068 27.5779 321.068 28.1899C321.068 28.8015 320.732 29.3333 320.237 29.6167C319.742 29.3332 319.406 28.8013 319.406 28.1899C319.406 27.5781 319.741 27.0446 320.237 26.7612Z" fill="#2E2A42"/>
</g>
<g filter="url(#filter3_d_239_1514)">
<path d="M14.6228 160.372C20.5742 160.372 25.3987 155.548 25.3987 149.596C25.3987 143.645 20.5742 138.82 14.6228 138.82C8.67146 138.82 3.84692 143.645 3.84692 149.596C3.84692 155.548 8.67146 160.372 14.6228 160.372Z" fill="white"/>
<path fill-rule="evenodd" clip-rule="evenodd" d="M11.2421 141.881C10.0245 142.584 10.0206 143.888 10.1484 145.274C10.1026 145.261 10.0563 145.249 10.0095 145.239C8.27876 145.308 6.94684 145.857 6.60061 147.394C6.32085 148.635 7.07731 149.48 8.04305 150.256C6.94601 151.48 6.45218 152.759 7.25501 154.048C7.92795 155.129 9.05988 155.199 10.2929 155.073C10.3715 156.714 10.9186 157.972 12.3953 158.326C13.6331 158.622 14.4878 157.877 15.2772 156.921C16.486 158.034 17.7586 158.545 19.058 157.76C20.1472 157.101 20.2322 155.97 20.1231 154.736C21.7654 154.679 23.03 154.149 23.4034 152.677C23.7163 151.444 22.9825 150.579 22.0378 149.777C23.167 148.583 23.6948 147.317 22.9268 146.008C22.2831 144.91 21.1537 144.81 19.918 144.902C19.8834 143.259 19.3701 141.988 17.9035 141.595C16.7089 141.275 15.8495 141.947 15.0544 142.842C13.8539 141.673 12.5752 141.111 11.2421 141.881Z" fill="#FFA552"/>
<path d="M14.9534 148.083C14.9534 148.983 14.2232 149.714 13.3226 149.714C12.422 149.714 11.6919 148.983 11.6919 148.083C11.6919 147.182 12.422 146.452 13.3226 146.452C14.2232 146.452 14.9534 147.182 14.9534 148.083Z" fill="white"/>
<path d="M18.8132 148.083C18.8132 148.983 18.0831 149.714 17.1825 149.714C16.2819 149.714 15.5518 148.983 15.5518 148.083C15.5518 147.182 16.2819 146.452 17.1825 146.452C18.0831 146.452 18.8132 147.182 18.8132 148.083Z" fill="white"/>
<path fill-rule="evenodd" clip-rule="evenodd" d="M12.5156 149.5C13.0072 149.219 13.3385 148.69 13.3385 148.083C13.3385 147.476 13.0072 146.947 12.5156 146.666C12.7538 146.53 13.0296 146.452 13.3235 146.452C14.2242 146.452 14.9543 147.182 14.9543 148.083C14.9543 148.983 14.2242 149.714 13.3235 149.714C13.0296 149.714 12.7538 149.636 12.5156 149.5Z" fill="white"/>
<path fill-rule="evenodd" clip-rule="evenodd" d="M16.3755 149.5C16.8671 149.219 17.1984 148.69 17.1984 148.083C17.1984 147.476 16.8671 146.947 16.3755 146.666C16.6136 146.53 16.8894 146.452 17.1833 146.452C18.0839 146.452 18.814 147.182 18.814 148.083C18.814 148.983 18.0839 149.714 17.1833 149.714C16.8894 149.714 16.6136 149.636 16.3755 149.5Z" fill="white"/>
<path d="M14.1605 148.637C14.1605 149.087 13.7955 149.452 13.3451 149.452C12.8948 149.452 12.5298 149.087 12.5298 148.637C12.5298 148.187 12.8948 147.822 13.3451 147.822C13.7955 147.822 14.1605 148.187 14.1605 148.637Z" fill="#2E2A42"/>
<path d="M18.0199 148.637C18.0199 149.087 17.6548 149.452 17.2045 149.452C16.7542 149.452 16.3892 149.087 16.3892 148.637C16.3892 148.187 16.7542 147.822 17.2045 147.822C17.6548 147.822 18.0199 148.187 18.0199 148.637Z" fill="#2E2A42"/>
</g>
</g>
<defs>
<filter id="filter0_d_239_1514" x="81.9702" y="0.0800781" width="218.809" height="45.2388" filterUnits="userSpaceOnUse" color-interpolation-filters="sRGB">
<feFlood flood-opacity="0" result="BackgroundImageFix"/>
<feColorMatrix in="SourceAlpha" type="matrix" values="0 0 0 0 0 0 0 0 0 0 0 0 0 0 0 0 0 0 127 0" result="hardAlpha"/>
<feOffset dy="2.69605"/>
<feGaussianBlur stdDeviation="1.34802"/>
<feComposite in2="hardAlpha" operator="out"/>
<feColorMatrix type="matrix" values="0 0 0 0 0 0 0 0 0 0 0 0 0 0 0 0 0 0 0.1 0"/>
<feBlend mode="normal" in2="BackgroundImageFix" result="effect1_dropShadow_239_1514"/>
<feBlend mode="normal" in="SourceGraphic" in2="effect1_dropShadow_239_1514" result="shape"/>
</filter>
<filter id="filter1_d_239_1514" x="32.1323" y="56.6533" width="218.809" height="109.399" filterUnits="userSpaceOnUse" color-interpolation-filters="sRGB">
<feFlood flood-opacity="0" result="BackgroundImageFix"/>
<feColorMatrix in="SourceAlpha" type="matrix" values="0 0 0 0 0 0 0 0 0 0 0 0 0 0 0 0 0 0 127 0" result="hardAlpha"/>
<feOffset dy="2.69605"/>
<feGaussianBlur stdDeviation="1.34802"/>
<feComposite in2="hardAlpha" operator="out"/>
<feColorMatrix type="matrix" values="0 0 0 0 0 0 0 0 0 0 0 0 0 0 0 0 0 0 0.1 0"/>
<feBlend mode="normal" in2="BackgroundImageFix" result="effect1_dropShadow_239_1514"/>
<feBlend mode="normal" in="SourceGraphic" in2="effect1_dropShadow_239_1514" result="shape"/>
</filter>
<filter id="filter2_d_239_1514" x="305.571" y="18.9385" width="26.9438" height="26.9438" filterUnits="userSpaceOnUse" color-interpolation-filters="sRGB">
<feFlood flood-opacity="0" result="BackgroundImageFix"/>
<feColorMatrix in="SourceAlpha" type="matrix" values="0 0 0 0 0 0 0 0 0 0 0 0 0 0 0 0 0 0 127 0" result="hardAlpha"/>
<feOffset dy="2.69605"/>
<feGaussianBlur stdDeviation="1.34802"/>
<feComposite in2="hardAlpha" operator="out"/>
<feColorMatrix type="matrix" values="0 0 0 0 0 0 0 0 0 0 0 0 0 0 0 0 0 0 0.1 0"/>
<feBlend mode="normal" in2="BackgroundImageFix" result="effect1_dropShadow_239_1514"/>
<feBlend mode="normal" in="SourceGraphic" in2="effect1_dropShadow_239_1514" result="shape"/>
</filter>
<filter id="filter3_d_239_1514" x="1.15088" y="138.82" width="26.9438" height="26.9438" filterUnits="userSpaceOnUse" color-interpolation-filters="sRGB">
<feFlood flood-opacity="0" result="BackgroundImageFix"/>
<feColorMatrix in="SourceAlpha" type="matrix" values="0 0 0 0 0 0 0 0 0 0 0 0 0 0 0 0 0 0 127 0" result="hardAlpha"/>
<feOffset dy="2.69605"/>
<feGaussianBlur stdDeviation="1.34802"/>
<feComposite in2="hardAlpha" operator="out"/>
<feColorMatrix type="matrix" values="0 0 0 0 0 0 0 0 0 0 0 0 0 0 0 0 0 0 0.1 0"/>
<feBlend mode="normal" in2="BackgroundImageFix" result="effect1_dropShadow_239_1514"/>
<feBlend mode="normal" in="SourceGraphic" in2="effect1_dropShadow_239_1514" result="shape"/>
</filter>
<clipPath id="clip0_239_1514">
<rect width="333" height="167" fill="white" transform="translate(0.166504 0.0400391)"/>
</clipPath>
</defs>
</svg>
