<svg width="215" height="157" viewBox="0 0 215 157" fill="none" xmlns="http://www.w3.org/2000/svg">
<path fill-rule="evenodd" clip-rule="evenodd" d="M184.838 154.075C183.968 154.097 183.245 153.409 183.224 152.538L182.228 112.216C182.207 111.346 182.895 110.623 183.765 110.602C184.635 110.58 185.358 111.268 185.379 112.138L186.375 152.461C186.396 153.331 185.708 154.054 184.838 154.075Z" fill="#2E2A42"/>
<path d="M197.644 153.658L185.209 154.055C184.017 154.093 183.03 153.127 183.03 151.935C183.033 146.877 183.094 146.82 186.807 147.014C192.794 147.327 196.533 149.038 198.815 150.677C200.207 151.677 199.358 153.603 197.644 153.658Z" fill="#2E2A42"/>
<path fill-rule="evenodd" clip-rule="evenodd" d="M168.63 154.076C169.5 154.097 170.223 153.409 170.245 152.539L171.24 112.217C171.262 111.347 170.574 110.624 169.704 110.602C168.833 110.581 168.111 111.269 168.089 112.139L167.094 152.461C167.072 153.331 167.76 154.054 168.63 154.076Z" fill="#2E2A42"/>
<path d="M155.822 153.658L168.059 154.048C169.333 154.088 170.343 152.992 170.293 151.718C170.104 146.935 171.104 146.793 167.452 146.984C161.312 147.305 157.251 149.107 154.759 150.791C153.338 151.751 154.109 153.603 155.822 153.658Z" fill="#2E2A42"/>
<path d="M201.549 88.4267C204.759 92.035 204.119 96.0419 203.542 100.384C205.43 106.321 213.737 117.262 214.398 122.874C214.933 127.416 211.262 131.664 206.772 132.083C188.878 133.762 168.423 130.772 150.245 132.083C144.812 131.758 141.739 127.164 142.735 121.898C143.91 115.678 151.903 105.377 153.99 98.8216C151.798 91.9301 152.196 85.112 158.196 80.3499C160.252 78.724 163.735 78.0002 164.805 76.9303C168.014 73.6996 169 65.1718 173.584 61.9516C178.734 58.3328 183.266 60.7243 186.171 65.5494C189.077 70.3745 192.643 81.0107 195.675 84.5456C196.787 85.8358 199.986 86.6749 201.549 88.4371V88.4267Z" fill="#4598E6"/>
<path d="M169.528 86.9048C173.42 86.9048 176.575 90.12 176.575 94.0864C176.575 98.053 173.42 101.269 169.528 101.269C168.259 101.269 167.07 100.925 166.042 100.327C168.168 99.0902 169.603 96.7601 169.603 94.0864C169.603 91.4126 168.168 89.0816 166.042 87.8452C167.07 87.2474 168.26 86.9048 169.528 86.9048Z" fill="white"/>
<path d="M166.068 87.8425C168.194 89.079 169.629 91.4092 169.629 94.0828C169.629 96.7563 168.194 99.0865 166.068 100.323C163.941 99.0865 162.506 96.7564 162.506 94.0828C162.506 91.4091 163.941 89.079 166.068 87.8425Z" fill="#2E2A42"/>
<path d="M186.229 86.9048C190.121 86.9049 193.276 90.12 193.276 94.0864C193.276 98.053 190.121 101.269 186.229 101.269C184.96 101.269 183.771 100.926 182.743 100.328C184.87 99.0913 186.304 96.7604 186.304 94.0864C186.304 91.4123 184.87 89.0805 182.743 87.8442C183.771 87.2466 184.961 86.9048 186.229 86.9048Z" fill="white"/>
<path d="M182.706 87.8425C184.832 89.079 186.267 91.409 186.267 94.0828C186.267 96.7565 184.832 99.0865 182.706 100.323C180.58 99.0864 179.145 96.7561 179.145 94.0828C179.145 91.4094 180.58 89.0791 182.706 87.8425Z" fill="#2E2A42"/>
<path fill-rule="evenodd" clip-rule="evenodd" d="M122.702 83.3685C122.207 84.7322 122.911 86.2388 124.275 86.7335C130.59 89.0241 135.061 91.4762 139.072 95.423C143.137 99.4232 146.877 105.103 151.459 114.113C152.116 115.406 153.698 115.922 154.991 115.264C156.284 114.607 156.799 113.025 156.141 111.732C151.477 102.559 147.43 96.2774 142.757 91.6784C138.029 87.0261 132.809 84.2408 126.067 81.7949C124.703 81.3002 123.196 82.0047 122.702 83.3685Z" fill="#2E2A42"/>
<path d="M145.605 119.749C147.607 117.82 148.454 116.887 149.579 113.786C150.226 112.002 149.843 110.019 148.692 108.51L154.084 108.089C156.363 111.488 160.09 113.697 161.853 117.39C163.86 121.594 164.309 125.958 159.862 129.191C155.946 132.037 156.493 122.779 153.276 119.87C153.089 119.7 152.804 119.733 152.623 119.909C150.201 122.27 147.237 122.655 145.529 120.983C145.181 120.642 145.254 120.088 145.605 119.749Z" fill="#2E2A42"/>
<path fill-rule="evenodd" clip-rule="evenodd" d="M45.0286 83.3752C45.5233 84.7389 44.8188 86.2455 43.4551 86.7402C37.1405 89.0308 32.669 91.4828 28.6582 95.4297C24.5931 99.4298 20.8535 105.109 16.2716 114.12C15.614 115.413 14.0327 115.928 12.7396 115.271C11.4464 114.613 10.9312 113.032 11.5888 111.739C16.2534 102.565 20.2999 96.2841 24.9735 91.6851C29.7013 87.0328 34.9211 84.2475 41.6636 81.8016C43.0273 81.3069 44.5339 82.0114 45.0286 83.3752Z" fill="#2E2A42"/>
<path d="M22.1236 119.756C20.1217 117.827 19.275 116.894 18.1498 113.793C17.5027 112.009 17.8862 110.026 19.0367 108.517L13.645 108.095C11.3663 111.495 7.63865 113.703 5.87595 117.397C3.86947 121.601 3.41993 125.965 7.86714 129.197C11.7828 132.044 11.2364 122.786 14.453 119.876C14.6404 119.707 14.9246 119.74 15.1056 119.916C17.5278 122.277 20.492 122.662 22.1999 120.99C22.5481 120.649 22.4746 120.095 22.1236 119.756Z" fill="#2E2A42"/>
<path fill-rule="evenodd" clip-rule="evenodd" d="M93.9689 156.509C92.5186 156.545 91.3139 155.398 91.2781 153.948L89.6189 86.7446C89.5831 85.2943 90.7297 84.0896 92.18 84.0538C93.6302 84.018 94.8349 85.1646 94.8707 86.6149L96.53 153.818C96.5658 155.269 95.4191 156.473 93.9689 156.509Z" fill="#2E2A42"/>
<path d="M115.312 155.814L94.5862 156.475C92.5992 156.538 90.9544 154.93 90.9554 152.942C90.9599 144.512 91.0624 144.417 97.2499 144.74C107.228 145.262 113.459 148.114 117.263 150.845C119.584 152.512 118.168 155.723 115.312 155.814Z" fill="#2E2A42"/>
<path fill-rule="evenodd" clip-rule="evenodd" d="M66.9554 156.51C68.4056 156.546 69.6103 155.399 69.6461 153.949L71.3054 86.7455C71.3412 85.2953 70.1945 84.0906 68.7443 84.0548C67.294 84.019 66.0893 85.1656 66.0535 86.6159L64.3943 153.819C64.3585 155.27 65.5051 156.474 66.9554 156.51Z" fill="#2E2A42"/>
<path d="M45.6091 155.814L66.0029 156.463C68.1268 156.531 69.8096 154.704 69.726 152.581C69.4122 144.609 71.0788 144.372 64.9912 144.69C54.7584 145.225 47.9908 148.229 43.8361 151.036C41.4683 152.636 42.7528 155.723 45.6091 155.814Z" fill="#2E2A42"/>
<path d="M121.832 47.0837C127.182 53.0976 126.115 59.7758 125.154 67.0135C128.301 76.9084 142.147 95.1423 143.248 104.495C144.14 112.065 138.021 119.145 130.538 119.845C100.714 122.642 66.6234 117.659 36.3267 119.845C27.2709 119.303 22.1486 111.646 23.8094 102.869C25.7675 92.5025 39.0889 75.335 42.5679 64.4086C38.9141 52.9228 39.5784 41.5593 49.5783 33.6224C53.0048 30.9127 58.8089 29.7064 60.592 27.9232C65.9416 22.5387 67.5849 8.32564 75.2247 2.9586C83.8084 -3.07276 91.3607 0.913221 96.2033 8.95504C101.046 16.9969 106.99 34.7238 112.042 40.6153C113.895 42.7656 119.227 44.1642 121.832 47.1012V47.0837Z" fill="#4598E6"/>
<path d="M109.018 53.1833C104.999 52.0888 100.522 53.1172 97.3657 56.2683C94.2094 59.4194 93.1793 63.8892 94.2754 67.9011C92.3286 67.3709 90.4894 66.3426 88.9604 64.816C84.2749 60.1384 84.2749 52.5544 88.9604 47.8768C93.6458 43.1991 101.242 43.1991 105.928 47.8768C107.457 49.4034 108.487 51.2396 109.018 53.1833Z" fill="white"/>
<path d="M109.019 53.1789C105 52.0845 100.523 53.1128 97.3661 56.264C94.2099 59.4149 93.1798 63.8846 94.2757 67.8964C98.2944 68.9909 102.772 67.9625 105.928 64.8114C109.085 61.6604 110.115 57.1907 109.019 53.1789Z" fill="#2E2A42"/>
<path d="M77.5135 47.8768C72.8281 43.1991 65.2315 43.1991 60.5461 47.8768C55.8606 52.5544 55.8606 60.1384 60.5461 64.816C62.0757 66.3431 63.9156 67.3717 65.8631 67.9017C64.7668 63.8896 65.7968 59.4195 68.9533 56.2683C72.1091 53.1177 76.5856 52.0892 80.6037 53.1827C80.0726 51.2392 79.0426 49.4032 77.5135 47.8768Z" fill="white"/>
<path d="M80.6046 53.1789C76.586 52.0845 72.1085 53.1128 68.9521 56.264C65.7959 59.4149 64.7658 63.8846 65.8617 67.8964C69.8803 68.9909 74.3579 67.9625 77.5143 64.8114C80.6704 61.6604 81.7006 57.1907 80.6046 53.1789Z" fill="#2E2A42"/>
</svg>
