<svg width="77" height="84" viewBox="0 0 77 84" fill="none" xmlns="http://www.w3.org/2000/svg">
<path fill-rule="evenodd" clip-rule="evenodd" d="M53.9418 42.8767C53.6929 43.5629 54.0474 44.3208 54.7335 44.5697C57.9104 45.7222 60.1601 46.9558 62.178 48.9415C64.2232 50.9541 66.1047 53.8115 68.4099 58.3449C68.7407 58.9954 69.5363 59.2547 70.1869 58.9238C70.8375 58.593 71.0967 57.7974 70.7659 57.1468C68.419 52.5316 66.3832 49.3714 64.0319 47.0576C61.6532 44.717 59.027 43.3156 55.6348 42.0851C54.9487 41.8362 54.1907 42.1906 53.9418 42.8767Z" fill="#2E2A42"/>
<path d="M65.8001 60.8546C66.5752 60.0842 66.9653 59.5563 67.4643 58.1812C67.7899 57.2839 67.5969 56.286 67.0181 55.527L69.7307 55.3148C70.8772 57.0251 72.7526 58.1363 73.6395 59.9945C74.6489 62.1097 74.8751 64.3051 72.6377 65.9315C70.8581 67.2252 70.9104 63.5497 69.7443 61.7478C69.4698 61.3237 68.9022 61.3909 68.4925 61.6864C67.5577 62.3608 66.5415 62.4984 65.8004 62.0827C65.3494 61.8297 65.4334 61.2192 65.8001 60.8546Z" fill="#2E2A42"/>
<path fill-rule="evenodd" clip-rule="evenodd" d="M22.2454 42.8765C22.4943 43.5627 22.1399 44.3206 21.4538 44.5695C18.2768 45.722 16.0272 46.9556 14.0092 48.9413C11.964 50.9539 10.0826 53.8114 7.77737 58.3447C7.44654 58.9953 6.65095 59.2545 6.00036 58.9236C5.34978 58.5928 5.09056 57.7972 5.42139 57.1467C7.76825 52.5314 9.80405 49.3712 12.1554 47.0574C14.534 44.7168 17.1602 43.3154 20.5524 42.0849C21.2385 41.836 21.9965 42.1904 22.2454 42.8765Z" fill="#2E2A42"/>
<path d="M10.3869 60.8545C9.61177 60.084 9.22167 59.5561 8.72272 58.181C8.39714 57.2837 8.59009 56.2858 9.16889 55.5268L6.45629 55.3146C5.30983 57.0249 3.43439 58.1361 2.54755 59.9943C1.53807 62.1095 1.3119 64.3049 3.54935 65.9314C5.32891 67.225 5.27663 63.5495 6.44271 61.7476C6.71718 61.3235 7.28477 61.3907 7.69448 61.6863C8.62934 62.3606 9.64546 62.4982 10.3866 62.0825C10.8376 61.8295 10.7536 61.219 10.3869 60.8545Z" fill="#2E2A42"/>
<path fill-rule="evenodd" clip-rule="evenodd" d="M42.5188 79.222C41.7891 79.24 41.183 78.6631 41.165 77.9335L40.3302 44.1225C40.3122 43.3929 40.8891 42.7868 41.6188 42.7688C42.3484 42.7507 42.9545 43.3276 42.9725 44.0573L43.8073 77.8682C43.8253 78.5979 43.2484 79.204 42.5188 79.222Z" fill="#2E2A42"/>
<path d="M53.2563 78.8721L42.8291 79.2047C41.8295 79.2366 41.0019 78.4274 41.0024 77.4272C41.0047 73.1861 41.0563 73.1381 44.1693 73.3008C49.1896 73.5632 52.3245 74.9982 54.238 76.3722C55.4058 77.2108 54.6933 78.8263 53.2563 78.8721Z" fill="#2E2A42"/>
<path fill-rule="evenodd" clip-rule="evenodd" d="M28.928 79.2225C29.6576 79.2405 30.2637 78.6636 30.2818 77.934L31.1165 44.123C31.1346 43.3934 30.5577 42.7873 29.828 42.7692C29.0984 42.7512 28.4923 43.3281 28.4743 44.0578L27.6395 77.8687C27.6215 78.5984 28.1984 79.2045 28.928 79.2225Z" fill="#2E2A42"/>
<path d="M18.1881 78.8721L28.4485 79.1988C29.517 79.2329 30.3637 78.3138 30.3216 77.2455C30.1637 73.2349 31.0022 73.1156 27.9395 73.2757C22.7912 73.5447 19.3863 75.0561 17.2961 76.4684C16.1047 77.2733 16.751 78.8264 18.1881 78.8721Z" fill="#2E2A42"/>
<path d="M36.1003 56.4538C33.1167 59.578 29.9304 61.892 25.6649 60.5822C20.428 58.9741 18.744 54.3222 18.8333 48.3939C14.3657 48.5666 10.3064 48.0589 8.1286 44.0167C5.5303 39.1939 7.59894 34.6998 11.8262 30.5427C8.52442 27.5276 5.99141 24.315 7.28037 19.9077C8.81815 14.65 13.4466 12.9041 19.3752 12.9139C19.1426 8.44853 19.5953 4.38218 23.6083 2.15027C28.3959 -0.512306 32.9173 1.49593 37.1306 5.66708C40.1013 2.32513 43.2797 -0.250893 47.7039 0.979042C52.982 2.44638 54.7901 7.05134 54.8594 12.98C59.3215 12.6875 63.3937 13.0858 65.6792 17.0688C68.4058 21.8206 66.4582 26.3688 62.3432 30.6378C65.7243 33.5633 68.3421 36.707 67.1716 41.1469C65.7231 46.6411 60.8496 48.4482 54.6008 48.4722C54.4328 48.4279 54.2668 48.3798 54.1029 48.3278C54.3831 53.3418 54.1997 58.0423 49.7182 60.4181C44.8118 63.0192 40.2759 60.8267 36.1003 56.4538Z" fill="url(#paint0_radial_43_678)"/>
<path d="M48.8468 20.3554C46.4124 17.921 42.4655 17.921 40.0311 20.3554C37.5967 22.7899 37.5967 26.7369 40.0311 29.1713C40.8256 29.9659 41.7814 30.5011 42.793 30.777C42.2235 28.6891 42.7587 26.3627 44.3986 24.7228C46.0384 23.0829 48.3646 22.5477 50.4524 23.117C50.1765 22.1055 49.6413 21.1499 48.8468 20.3554Z" fill="white"/>
<path d="M50.4541 23.1173C48.3662 22.5477 46.0398 23.0829 44.3998 24.7229C42.7599 26.3628 42.2247 28.6891 42.7942 30.7771C44.8822 31.3467 47.2086 30.8115 48.8485 29.1715C50.4884 27.5316 51.0236 25.2053 50.4541 23.1173Z" fill="#2E2A42"/>
<path d="M34.0916 20.3549C31.6572 17.9205 27.7103 17.9205 25.2759 20.3549C22.8415 22.7894 22.8415 26.7364 25.2759 29.1708C26.0704 29.9654 27.0261 30.5006 28.0378 30.7765C27.4683 28.6886 28.0036 26.3623 29.6434 24.7224C31.2833 23.0826 33.6094 22.5473 35.6973 23.1167C35.4214 22.1051 34.8862 21.1495 34.0916 20.3549Z" fill="white"/>
<path d="M35.6975 23.1173C33.6096 22.5477 31.2832 23.0829 29.6432 24.7229C28.0033 26.3628 27.4681 28.6891 28.0376 30.7771C30.1256 31.3467 32.452 30.8115 34.0919 29.1715C35.7318 27.5316 36.267 25.2053 35.6975 23.1173Z" fill="#2E2A42"/>
<defs>
<radialGradient id="paint0_radial_43_678" cx="0" cy="0" r="1" gradientUnits="userSpaceOnUse" gradientTransform="translate(10.9524 55.1925) rotate(132.813) scale(68.9462 69.1509)">
<stop stop-color="#FF93AB"/>
<stop offset="0.826964" stop-color="#FFA552"/>
</radialGradient>
</defs>
</svg>
