<svg width="178" height="180" viewBox="0 0 178 180" fill="none" xmlns="http://www.w3.org/2000/svg">
<path fill-rule="evenodd" clip-rule="evenodd" d="M57.347 162.551C55.8609 162.07 55.046 160.476 55.5268 158.99L77.6637 90.5694C78.1445 89.0833 79.739 88.2684 81.2251 88.7492C82.7112 89.23 83.5261 90.8245 83.0453 92.3106L60.9084 160.731C60.4276 162.217 58.8331 163.032 57.347 162.551Z" fill="#2E2A42"/>
<path d="M72.3097 178.841L55.8301 162.006C55.1159 161.276 55.1698 160.095 55.892 159.373C63.7015 151.57 59.6418 146.839 72.1407 164.006C75.4721 168.581 76.8099 173.191 77.2458 176.911C77.5815 179.777 74.328 180.902 72.3097 178.841Z" fill="#2E2A42"/>
<path fill-rule="evenodd" clip-rule="evenodd" d="M95.6834 146.792C95.6834 145.23 96.9496 143.964 98.5115 143.964C114.814 143.964 124.007 136.719 125.806 127.688C127.654 118.413 122.185 105.318 104.826 92.8077C103.559 91.8945 103.272 90.127 104.185 88.8598C105.098 87.5927 106.866 87.3058 108.133 88.219C126.25 101.276 133.838 116.32 131.353 128.793C128.82 141.509 116.29 149.62 98.5116 149.62C96.9496 149.62 95.6834 148.354 95.6834 146.792Z" fill="#2E2A42"/>
<path d="M103.587 170.715L95.723 148.508C95.3822 147.546 95.9269 146.494 96.8975 146.177C107.337 142.768 106.36 140.385 109.677 157.187C110.773 162.74 110.047 167.484 108.876 171.043C107.975 173.784 104.55 173.435 103.587 170.715Z" fill="#2E2A42"/>
<path fill-rule="evenodd" clip-rule="evenodd" d="M175.571 15.3941C183.238 50.4345 159.212 75.5239 131.981 75.5239C130.419 75.5239 129.153 74.2577 129.153 72.6958C129.153 71.1339 130.419 69.8677 131.981 69.8677C155.52 69.8677 176.958 48.196 170.045 16.6031C169.712 15.0773 170.678 13.5697 172.204 13.2358C173.729 12.902 175.237 13.8683 175.571 15.3941Z" fill="#2E2A42"/>
<path d="M170.546 19.1285L176.242 19.8809C175.546 8.93014 171.001 1.46218 164.427 3.02299C156.208 4.974 157.508 14.2706 160.99 17.3481C163.093 19.2059 165.637 17.2695 167.462 15.1592C168.08 14.4439 169.318 14.6854 169.529 15.6074L170.546 19.1285Z" fill="#2E2A42"/>
<path fill-rule="evenodd" clip-rule="evenodd" d="M56.4136 81.8604C57.0739 83.2755 56.4619 84.9579 55.0468 85.6181C48.4943 88.675 43.9335 91.7296 40.0087 96.3431C36.0308 101.019 32.5618 107.464 28.5066 117.561C27.9247 119.011 26.2782 119.713 24.8291 119.131C23.3801 118.55 22.6772 116.903 23.2591 115.454C27.3875 105.175 31.1283 98.0547 35.7016 92.6789C40.3279 87.2408 45.6595 83.7576 52.6559 80.4935C54.0711 79.8333 55.7534 80.4453 56.4136 81.8604Z" fill="#2E2A42"/>
<path d="M34.5437 122.416C32.7461 120.921 31.8149 119.869 30.4915 117.033C29.7505 115.446 29.8091 113.628 30.529 112.052C30.6841 111.713 30.4486 111.298 30.0756 111.302C27.0139 111.334 24.1915 113.02 22.2248 115.367C20.4667 117.465 18.6337 119.492 17.6745 122.066C15.9233 126.764 15.8566 131.486 20.9325 134.529C25.1591 137.063 24.0767 128.37 26.6292 124.52C27.0262 123.922 27.8411 123.947 28.4317 124.356C30.7105 125.933 33.1487 126.145 34.7754 125.033C35.6887 124.409 35.3943 123.123 34.5437 122.416Z" fill="#2E2A42"/>
<path d="M94.8777 113.74C88.9875 119.908 82.6978 124.476 74.277 121.89C63.9379 118.715 60.6134 109.531 60.7896 97.8275C51.9691 98.1685 43.955 97.1659 39.6554 89.1854C34.5257 79.6639 38.6102 70.7924 46.9559 62.5851C40.4366 56.632 35.4339 50.2888 37.979 41.587C41.015 31.2067 50.1537 27.76 61.8585 27.7794C61.3993 18.9635 62.2936 10.9356 70.2165 6.5293C79.6685 1.2726 88.5945 5.23765 96.9128 13.4727C102.778 6.87471 109.053 1.78768 117.787 4.21575C128.208 7.11272 131.777 16.2053 131.914 27.9104C140.723 27.3331 148.763 28.1196 153.275 35.9831C158.658 45.3643 154.813 54.3435 146.689 62.7715C153.364 68.5474 158.533 74.7533 156.222 83.519C153.363 94.3663 143.74 97.9344 131.403 97.9816C131.072 97.8942 130.744 97.7995 130.421 97.6969C130.974 107.596 130.612 116.876 121.765 121.567C112.078 126.702 103.122 122.374 94.8777 113.74Z" fill="url(#mascot_paint0)"/>/>
<path d="M119.608 60.2814C114.812 65.0775 107.036 65.0775 102.24 60.2815C97.4438 55.4854 97.4438 47.7095 102.24 42.9134C103.805 41.348 105.688 40.2935 107.681 39.75C106.559 43.8635 107.614 48.4466 110.844 51.6774C114.075 54.9081 118.658 55.9625 122.771 54.8408C122.228 56.8336 121.173 58.7162 119.608 60.2814Z" fill="white"/>
<path d="M122.775 54.8404C118.662 55.9626 114.079 54.9082 110.848 51.6773C107.617 48.4465 106.563 43.8635 107.685 39.7501C111.798 38.6279 116.381 39.6823 119.612 42.9132C122.843 46.144 123.897 50.727 122.775 54.8404Z" fill="#2E2A42"/>
<path d="M90.541 60.2815C85.745 65.0775 77.969 65.0775 73.173 60.2815C68.3769 55.4854 68.3769 47.7095 73.173 42.9135C74.7384 41.348 76.6214 40.2935 78.6145 39.75C77.4926 43.8634 78.547 48.4464 81.7778 51.6771C85.0084 54.9077 89.591 55.9622 93.7043 54.8406C93.1607 56.8335 92.1063 58.7162 90.541 60.2815Z" fill="white"/>
<path d="M93.7049 54.8404C89.5914 55.9626 85.0081 54.9082 81.7772 51.6773C78.5464 48.4465 77.492 43.8635 78.614 39.7501C82.7275 38.6279 87.3108 39.6823 90.5417 42.9132C93.7725 46.144 94.8269 50.727 93.7049 54.8404Z" fill="#2E2A42"/>
<defs>
<radialGradient id="mascot_paint0" cx="0" cy="0" r="1" gradientUnits="userSpaceOnUse" gradientTransform="translate(151.022 17.4834) rotate(-44.8545) scale(136.748 137.244)">
<stop stop-color="#FF93AB"/>
<stop offset="0.826964" stop-color="#FFA552"/>
</radialGradient>
</defs>
</svg>
