<svg width="778" height="97" viewBox="0 0 778 97" fill="none" xmlns="http://www.w3.org/2000/svg">
<path fill-rule="evenodd" clip-rule="evenodd" d="M564.103 74.7456C565.637 75.1678 566.538 76.7535 566.116 78.2875C562.326 92.0584 550.964 103.117 540.053 105.728C534.473 107.064 528.705 106.226 524.384 101.965C520.167 97.8079 517.869 90.9101 517.869 81.3082C517.869 79.7172 519.159 78.4275 520.75 78.4275C522.341 78.4275 523.631 79.7172 523.631 81.3082C523.631 90.1605 525.769 95.2403 528.429 97.8628C530.984 100.382 534.533 101.126 538.712 100.125C547.321 98.0646 557.254 88.776 560.561 76.7585C560.984 75.2246 562.569 74.3234 564.103 74.7456Z" fill="#2E2A42"/>
<path d="M523.707 84.4463L518.218 87.7079C515.679 76.8233 517.918 68.2047 524.789 67.7954C533.377 67.2838 534.841 76.7324 532.349 80.7569C530.844 83.1866 527.794 82.0456 525.394 80.5234C524.581 80.0074 523.444 80.6068 523.51 81.5677L523.707 84.4463Z" fill="#2E2A42"/>
<path fill-rule="evenodd" clip-rule="evenodd" d="M652.982 74.7544C651.448 75.1766 650.547 76.7623 650.969 78.2962C654.759 92.0672 666.121 103.126 677.032 105.737C682.613 107.073 688.38 106.235 692.701 101.974C696.918 97.8167 699.216 90.9189 699.216 81.317C699.216 79.726 697.926 78.4363 696.335 78.4363C694.744 78.4363 693.454 79.726 693.454 81.317C693.454 90.1693 691.316 95.2491 688.656 97.8716C686.102 100.391 682.553 101.135 678.373 100.134C669.764 98.0734 659.832 88.7848 656.524 76.7673C656.102 75.2334 654.516 74.3322 652.982 74.7544Z" fill="#2E2A42"/>
<path d="M693.4 84.4532L698.889 87.7148C701.428 76.8302 699.19 68.2115 692.319 67.8022C683.73 67.2906 682.266 76.7393 684.759 80.7638C686.263 83.1934 689.314 82.0525 691.713 80.5303C692.527 80.0143 693.663 80.6136 693.598 81.5745L693.4 84.4532Z" fill="#2E2A42"/>
<path d="M611.587 11.6915C578.033 12.5535 544.221 33.9541 538.539 69.0183C534.916 91.3887 543.513 122.746 564.675 133.91C623.808 165.073 681.655 122.94 671.835 57.3159C666.625 22.5103 644.992 10.8079 611.587 11.6699V11.6915Z" fill="#FFA552"/>
<path fill-rule="evenodd" clip-rule="evenodd" d="M480.933 61.9798C479.696 61.221 478.078 61.6091 477.319 62.8465C476.387 64.3656 475.333 66.0478 474.211 67.839C469.374 75.5573 463.269 85.2989 460.254 92.733C459.708 94.0781 460.357 95.6108 461.702 96.1563C463.047 96.7018 464.58 96.0535 465.125 94.7084C467.946 87.7527 473.694 78.5733 478.527 70.8546C479.689 68.9998 480.798 67.2293 481.8 65.5943C482.559 64.3568 482.171 62.7386 480.933 61.9798Z" fill="#2E2A42"/>
<path d="M524.258 12.1364C540.357 9.97978 557.231 14.3839 563.548 30.5927C573.102 55.1557 545.077 66.7108 541.452 87.301C538.305 105.281 556.023 130.343 535.09 140.967C510.212 153.567 481.024 129.004 474.776 105.417C466.339 73.4304 487.979 17.0399 524.258 12.1591V12.1364Z" fill="#62D09E"/>
<path d="M538.702 53.7751C535.597 52.9301 532.137 53.7241 529.698 56.1569C527.259 58.5896 526.463 62.0405 527.31 65.1378C525.805 64.7285 524.384 63.9346 523.203 62.756C519.582 59.1447 519.582 53.2896 523.203 49.6782C526.823 46.0669 532.694 46.0669 536.314 49.6782C537.496 50.8568 538.292 52.2745 538.702 53.7751Z" fill="white"/>
<path d="M538.694 53.7779C535.588 52.9329 532.128 53.7269 529.689 56.1597C527.25 58.5923 526.454 62.0431 527.301 65.1404C530.406 65.9854 533.867 65.1914 536.306 62.7586C538.745 60.326 539.541 56.8752 538.694 53.7779Z" fill="#2E2A42"/>
<path d="M514.367 49.6782C510.747 46.0669 504.876 46.0669 501.256 49.6782C497.635 53.2896 497.635 59.1447 501.256 62.756C502.438 63.935 503.859 64.7291 505.364 65.1383C504.517 62.0408 505.313 58.5897 507.752 56.1569C510.191 53.7245 513.65 52.9304 516.755 53.7746C516.345 52.2742 515.549 50.8567 514.367 49.6782Z" fill="white"/>
<path d="M516.745 53.7779C513.64 52.9329 510.18 53.7269 507.741 56.1597C505.302 58.5923 504.506 62.0431 505.353 65.1404C508.458 65.9854 511.918 65.1914 514.357 62.7586C516.796 60.326 517.592 56.8752 516.745 53.7779Z" fill="#2E2A42"/>
<path fill-rule="evenodd" clip-rule="evenodd" d="M337.009 171.441C335.419 171.481 334.099 170.223 334.059 168.633L332.24 94.9509C332.201 93.3609 333.458 92.04 335.048 92.0008C336.638 91.9615 337.959 93.2187 337.998 94.8088L339.817 168.491C339.857 170.081 338.6 171.402 337.009 171.441Z" fill="#2E2A42"/>
<path fill-rule="evenodd" clip-rule="evenodd" d="M317.776 171.441C319.366 171.481 320.687 170.223 320.726 168.633L322.545 94.9509C322.584 93.3608 321.327 92.04 319.737 92.0007C318.147 91.9615 316.826 93.2187 316.787 94.8087L314.968 168.491C314.928 170.081 316.186 171.402 317.776 171.441Z" fill="#2E2A42"/>
<path d="M490.855 131.753C490.855 126.513 491.061 121.123 491.297 116.033C492.778 82.4332 486.747 34.1399 455.391 14.8482C431.676 0.261854 395.127 -3.30988 367.613 2.9567C366.733 3.14919 354.457 8.15384 351.753 9.24461C323.767 20.7084 297.111 58.8854 297.111 89.0847V131.732H357.204C359.908 113.445 359.544 95.1802 371.82 80.0592C386.285 62.2432 414.099 61.7514 426.139 82.091C427.041 83.6309 431.171 87.9971 431.87 105.167V131.753H490.855Z" fill="#FFD55D"/>
<path fill-rule="evenodd" clip-rule="evenodd" d="M724.267 175.358C722.677 175.299 721.45 174.911 721.509 173.321L724.288 98.673C724.347 97.0833 725.684 95.8425 727.274 95.9015C728.864 95.9606 730.105 97.2972 730.045 98.8869L727.267 173.535C727.208 175.125 725.857 175.417 724.267 175.358Z" fill="#2E2A42"/>
<path fill-rule="evenodd" clip-rule="evenodd" d="M694.242 175.358C695.832 175.299 697.058 174.911 696.999 173.321L694.221 98.673C694.162 97.0833 692.825 95.8425 691.235 95.9015C689.645 95.9606 688.404 97.2972 688.463 98.8869L691.241 173.535C691.301 175.125 692.652 175.417 694.242 175.358Z" fill="#2E2A42"/>
<path fill-rule="evenodd" clip-rule="evenodd" d="M657.747 66.6182C656.156 66.6182 654.866 67.9079 654.866 69.4989L654.867 138.139C654.867 139.73 656.157 141.02 657.748 141.02C659.339 141.02 660.628 139.73 660.628 138.139L660.627 69.4988C660.627 67.9078 659.338 66.6181 657.747 66.6182Z" fill="#2E2A42"/>
<path fill-rule="evenodd" clip-rule="evenodd" d="M763.609 66.6182C762.018 66.6182 760.728 67.9079 760.728 69.4989L760.729 138.139C760.729 139.73 762.019 141.02 763.61 141.02C765.201 141.02 766.491 139.73 766.491 138.139L766.49 69.4988C766.49 67.9078 765.2 66.6181 763.609 66.6182Z" fill="#2E2A42"/>
<path d="M718.193 12.5921C717.007 11.4758 712.753 7.01067 711.947 6.63114C710.917 6.13997 710.312 5.82741 709.26 6.63114L664.054 51.2156C631.207 90.2186 666.965 142.438 714.432 138.71C761.742 135.004 788.297 84.8605 753.772 47.8221C742.935 36.1904 729.747 23.621 718.171 12.5921H718.193Z" fill="#D7BEFC"/>
<path fill-rule="evenodd" clip-rule="evenodd" d="M232.413 85.0318C232.258 83.4485 230.848 82.2909 229.265 82.4464C226.776 82.6907 223.385 81.7058 219.395 79.4044C215.48 77.1468 211.331 73.8199 207.452 69.9374C203.579 66.0614 200.045 61.7031 197.335 57.4409C194.599 53.1395 192.815 49.1147 192.242 45.8879C191.963 44.3215 190.468 43.2773 188.901 43.5557C187.335 43.8341 186.291 45.3296 186.569 46.896C187.328 51.168 189.541 55.9234 192.473 60.5328C195.43 65.1814 199.234 69.8645 203.376 74.0097C207.512 78.1486 212.056 81.8227 216.516 84.3953C220.901 86.9241 225.568 88.5984 229.828 88.1802C231.411 88.0247 232.569 86.6151 232.413 85.0318Z" fill="#2E2A42"/>
<path d="M190.113 21.3994C191.612 21.3995 192.829 22.6156 192.829 24.1152V33.5654C194.124 32.831 195.773 33.278 196.519 34.5703C197.269 35.8691 196.824 37.5304 195.525 38.2803L193.494 39.4521L193.5 39.4736C191.935 40.3663 191.177 42.2107 191.664 43.9463L192.24 46.0039L188.37 52.6387L186.28 46.7803C185.82 45.4918 184.572 44.7071 183.263 44.3096C181.063 43.6414 179.402 41.9572 178.606 39.4844C178.56 39.4002 178.519 39.3122 178.482 39.2217L177.21 36.1348C176.64 34.7481 177.301 33.1608 178.688 32.5898C178.949 32.4823 179.218 32.418 179.485 32.3945C179.513 31.2855 180.224 30.2772 181.308 29.9014L180.254 25.9668C179.866 24.5183 180.726 23.0289 182.174 22.6406C183.623 22.2525 185.112 23.113 185.5 24.5615L186.603 28.6748C186.726 29.1312 187.398 29.0422 187.398 28.5693V24.1152C187.398 22.6156 188.613 21.3995 190.113 21.3994Z" fill="#2E2A42"/>
<path fill-rule="evenodd" clip-rule="evenodd" d="M315.343 86.0561C315.815 84.5367 317.429 83.6878 318.948 84.1598C339.101 90.4209 347.345 106.832 344.664 118.964C343.306 125.105 339.063 130.114 332.297 131.431C325.718 132.711 317.431 130.366 307.973 123.583C306.68 122.656 306.383 120.856 307.31 119.563C308.238 118.27 310.037 117.974 311.33 118.901C320.155 125.23 326.82 126.627 331.196 125.775C335.385 124.96 338.1 121.963 339.038 117.721C340.947 109.086 335.129 95.2198 317.239 89.6617C315.72 89.1897 314.871 87.5754 315.343 86.0561Z" fill="#2E2A42"/>
<path d="M241.465 13.1278L263.315 47.0441L276.443 9.51562C278.437 14.3219 287.752 43.2473 287.752 43.2473L330.159 24.527L308.922 58.3027C321.458 60.607 337.873 64.8647 350.146 68.3102C337.829 70.3074 322.379 73.7968 310.171 76.4304L353.894 101.471C338.509 99.7815 320.647 97.4771 305.175 97.082L311.399 137.112L289.527 109.592L275.785 144.596L260.729 109.592L226.453 134.589L238.945 93.3292L201.469 94.5582C207.671 89.1813 224.199 78.9955 231.321 73.7723L196.472 47.0441L241.443 52.1734C241.443 41.3318 241.575 29.0165 241.465 18.1749V13.1278Z" fill="#FF93AB"/>
<path fill-rule="evenodd" clip-rule="evenodd" d="M229.941 94.9389C229.399 96.4341 230.171 98.0859 231.666 98.6283C238.59 101.14 243.492 103.828 247.89 108.156C252.347 112.541 256.447 118.769 261.47 128.648C262.191 130.066 263.925 130.63 265.343 129.91C266.761 129.189 267.326 127.455 266.605 126.037C261.49 115.979 257.054 109.092 251.93 104.05C246.746 98.9492 241.023 95.8953 233.631 93.2137C232.135 92.6713 230.483 93.4437 229.941 94.9389Z" fill="#2E2A42"/>
<path fill-rule="evenodd" clip-rule="evenodd" d="M144.778 94.9467C145.321 96.4419 144.548 98.0937 143.053 98.6361C136.13 101.148 131.227 103.836 126.83 108.163C122.373 112.549 118.273 118.776 113.249 128.656C112.528 130.073 110.794 130.638 109.376 129.917C107.959 129.196 107.394 127.463 108.115 126.045C113.229 115.987 117.666 109.1 122.79 104.058C127.973 98.957 133.696 95.9031 141.089 93.2215C142.584 92.6791 144.236 93.4515 144.778 94.9467Z" fill="#2E2A42"/>
<path fill-rule="evenodd" clip-rule="evenodd" d="M198.438 175.135C196.848 175.174 195.527 173.917 195.488 172.327L193.669 98.6444C193.629 97.0543 194.886 95.7335 196.477 95.6943C198.067 95.655 199.387 96.9122 199.427 98.5023L201.246 172.185C201.285 173.775 200.028 175.096 198.438 175.135Z" fill="#2E2A42"/>
<path d="M221.838 174.373L199.115 175.097C196.936 175.167 195.133 173.403 195.134 171.224C195.139 161.981 195.251 161.877 202.035 162.231C212.976 162.803 219.807 165.93 223.977 168.925C226.522 170.752 224.97 174.273 221.838 174.373Z" fill="#2E2A42"/>
<path fill-rule="evenodd" clip-rule="evenodd" d="M168.82 175.136C170.41 175.175 171.731 173.918 171.77 172.328L173.589 98.6455C173.629 97.0554 172.372 95.7346 170.781 95.6953C169.191 95.6561 167.871 96.9132 167.831 98.5033L166.012 172.186C165.973 173.776 167.23 175.097 168.82 175.136Z" fill="#2E2A42"/>
<path d="M145.416 174.373L167.776 175.085C170.104 175.159 171.95 173.156 171.858 170.828C171.514 162.088 173.341 161.828 166.667 162.177C155.447 162.763 148.027 166.057 143.472 169.134C140.876 170.888 142.284 174.273 145.416 174.373Z" fill="#2E2A42"/>
<path d="M228.988 55.156C234.853 61.7497 233.684 69.0717 232.63 77.0071C236.08 87.856 251.261 107.848 252.468 118.103C253.446 126.402 246.737 134.165 238.533 134.932C205.833 137.999 168.456 132.536 135.239 134.932C125.31 134.337 119.694 125.942 121.515 116.32C123.662 104.954 138.267 86.1309 142.082 74.1512C138.076 61.558 138.804 49.099 149.768 40.3969C153.525 37.426 159.889 36.1034 161.844 34.1483C167.709 28.2447 169.511 12.6614 177.887 6.77692C187.298 0.164085 195.579 4.53435 200.888 13.3515C206.198 22.1686 212.714 41.6045 218.254 48.064C220.286 50.4216 226.132 51.955 228.988 55.1752V55.156Z" fill="#4598E6"/>
<path d="M214.941 61.8457C210.535 60.6458 205.626 61.7732 202.165 65.228C198.704 68.6826 197.575 73.5831 198.776 77.9815C196.642 77.4003 194.625 76.2729 192.949 74.5992C187.811 69.4709 187.811 61.1562 192.949 56.0279C198.086 50.8996 206.416 50.8996 211.553 56.0279C213.23 57.7016 214.359 59.7147 214.941 61.8457Z" fill="white"/>
<path d="M214.943 61.8448C210.537 60.6449 205.627 61.7724 202.166 65.2271C198.706 68.6816 197.576 73.582 198.778 77.9803C203.184 79.1802 208.094 78.0528 211.554 74.598C215.015 71.1435 216.145 66.2432 214.943 61.8448Z" fill="#2E2A42"/>
<path d="M180.399 56.0279C175.261 50.8996 166.932 50.8996 161.794 56.0279C156.657 61.1562 156.657 69.4709 161.794 74.5992C163.472 76.2734 165.489 77.4011 167.624 77.9822C166.422 73.5836 167.552 68.6827 171.013 65.228C174.473 61.7738 179.381 60.6462 183.787 61.845C183.205 59.7143 182.075 57.7014 180.399 56.0279Z" fill="white"/>
<path d="M183.788 61.8448C179.382 60.6449 174.472 61.7724 171.011 65.2271C167.551 68.6816 166.421 73.582 167.623 77.9803C172.029 79.1802 176.939 78.0528 180.399 74.598C183.86 71.1435 184.99 66.2432 183.788 61.8448Z" fill="#2E2A42"/>
<path fill-rule="evenodd" clip-rule="evenodd" d="M121.747 100.226C121.185 101.775 121.985 103.485 123.533 104.047C130.703 106.648 135.779 109.432 140.333 113.913C144.948 118.454 149.194 124.903 154.397 135.133C155.143 136.601 156.938 137.186 158.407 136.44C159.875 135.693 160.46 133.898 159.713 132.43C154.417 122.014 149.823 114.883 144.517 109.661C139.149 104.379 133.222 101.217 125.567 98.4398C124.019 97.8781 122.308 98.6779 121.747 100.226Z" fill="#2E2A42"/>
<path fill-rule="evenodd" clip-rule="evenodd" d="M50.2002 100.226C50.7618 101.775 49.962 103.485 48.4136 104.047C41.2442 106.648 36.1675 109.432 31.6137 113.913C26.9983 118.454 22.7524 124.903 17.5503 135.133C16.8037 136.601 15.0083 137.186 13.5401 136.44C12.072 135.693 11.487 133.898 12.2336 132.43C17.5297 122.014 22.1239 114.883 27.4301 109.661C32.798 104.379 38.7244 101.217 46.3796 98.4398C47.928 97.8781 49.6385 98.6779 50.2002 100.226Z" fill="#2E2A42"/>
<path d="M81.4587 130.875C74.7257 137.925 67.5352 143.147 57.9093 140.191C46.0913 136.563 42.291 126.064 42.4925 112.686C32.4105 113.076 23.2499 111.93 18.3353 102.808C12.4717 91.9246 17.14 81.7829 26.6797 72.4015C19.2285 65.5973 13.5123 58.3474 16.4211 48.4016C19.8914 36.5364 30.3363 32.5966 43.7155 32.6188C43.1905 22.5417 44.212 13.3652 53.2682 8.32847C64.0723 2.31984 74.2756 6.85181 83.7838 16.2648C90.4878 8.72307 97.6603 2.90977 107.644 5.68536C119.555 8.99669 123.636 19.3887 123.792 32.7678C133.862 32.1079 143.051 33.0067 148.209 41.9951C154.362 52.7184 149.967 62.9823 140.681 72.6161C148.311 79.2181 154.219 86.3123 151.577 96.3319C148.308 108.731 137.31 112.809 123.209 112.863C122.829 112.763 122.455 112.654 122.085 112.537C122.717 123.852 122.304 134.46 112.19 139.821C101.118 145.691 90.8818 140.743 81.4587 130.875Z" fill="url(#paint0_radial_47_3171)"/>
<path d="M110.229 49.4527C104.728 43.9662 95.8094 43.9662 90.3083 49.4527C84.8072 54.9391 84.8072 63.8343 90.3083 69.3207C92.1038 71.1114 94.2635 72.3177 96.5495 72.9395C95.2626 68.2339 96.472 62.9911 100.178 59.2952C103.883 55.5995 109.14 54.3932 113.858 55.6764C113.234 53.3967 112.025 51.2432 110.229 49.4527Z" fill="white"/>
<path d="M113.869 55.6708C109.151 54.3872 103.894 55.5933 100.188 59.2893C96.4823 62.9851 95.2729 68.2278 96.5598 72.9333C101.278 74.217 106.535 73.0109 110.241 69.3149C113.947 65.6191 115.156 60.3764 113.869 55.6708Z" fill="#2E2A42"/>
<path d="M76.8941 49.4527C71.3931 43.9663 62.474 43.9663 56.9729 49.4527C51.4719 54.9391 51.4719 63.8343 56.9729 69.3207C58.7684 71.1114 60.9281 72.3177 63.2141 72.9395C61.9273 68.234 63.1367 62.9914 66.8424 59.2956C70.548 55.5999 75.8045 54.3937 80.5225 55.6769C79.899 53.3971 78.6896 51.2433 76.8941 49.4527Z" fill="white"/>
<path d="M80.5337 55.6708C75.8154 54.3872 70.5585 55.5933 66.8526 59.2893C63.1469 62.9851 61.9375 68.2278 63.2243 72.9333C67.9426 74.217 73.1996 73.0109 76.9054 69.3149C80.6112 65.6191 81.8206 60.3764 80.5337 55.6708Z" fill="#2E2A42"/>
<path d="M268.612 74.417C268.612 79.8126 264.238 84.1864 258.843 84.1865C253.447 84.1865 249.073 79.8126 249.072 74.417C249.072 72.6556 249.542 71.0042 250.357 69.5771C252.04 72.5213 255.209 74.5068 258.843 74.5068C262.477 74.5067 265.646 72.5216 267.329 69.5771C268.145 71.0041 268.612 72.6558 268.612 74.417Z" fill="white"/>
<path d="M291.738 74.417C291.738 79.8126 287.364 84.1864 281.968 84.1865C276.573 84.1865 272.198 79.8126 272.198 74.417C272.198 72.6556 272.667 71.0042 273.483 69.5771C275.166 72.5213 278.334 74.5068 281.968 74.5068C285.602 74.5067 288.772 72.5216 290.455 69.5771C291.27 71.0041 291.738 72.6558 291.738 74.417Z" fill="white"/>
<path d="M267.328 69.5762C265.646 72.5208 262.477 74.5067 258.843 74.5068C255.209 74.5068 252.041 72.5207 250.358 69.5762C252.041 66.6321 255.209 64.6465 258.843 64.6465C262.477 64.6466 265.645 66.632 267.328 69.5762Z" fill="#2E2A42"/>
<path d="M290.451 69.5762C288.768 72.5209 285.599 74.5068 281.965 74.5068C278.331 74.5067 275.162 72.5208 273.479 69.5762C275.162 66.632 278.331 64.6466 281.965 64.6465C285.599 64.6465 288.768 66.6318 290.451 69.5762Z" fill="#2E2A42"/>
<path d="M470.158 85.291C464.457 85.291 459.835 80.6696 459.834 74.9687C459.834 69.2677 464.457 64.6455 470.158 64.6455C472.02 64.6455 473.765 65.1415 475.273 66.0039C472.163 67.7823 470.065 71.1296 470.065 74.9687C470.065 78.8079 472.163 82.1553 475.273 83.9336C473.765 84.7959 472.019 85.291 470.158 85.291Z" fill="white"/>
<path d="M475.273 83.9336C472.163 82.1555 470.065 78.8084 470.064 74.9687C470.064 71.1289 472.163 67.7811 475.273 66.0029C478.384 67.7811 480.482 71.1289 480.482 74.9688C480.482 78.8084 478.384 82.1555 475.273 83.9336Z" fill="#2E2A42"/>
<path d="M445.725 85.291C440.024 85.291 435.402 80.6696 435.402 74.9687C435.402 69.2677 440.024 64.6455 445.725 64.6455C447.586 64.6455 449.331 65.1412 450.838 66.0029C447.727 67.781 445.628 71.1288 445.628 74.9687C445.629 78.8087 447.727 82.1565 450.838 83.9346C449.331 84.7962 447.586 85.291 445.725 85.291Z" fill="white"/>
<path d="M450.838 83.9346C447.727 82.1565 445.63 78.8085 445.629 74.9687C445.629 71.1289 447.727 67.7811 450.838 66.0029C453.949 67.7811 456.047 71.1289 456.047 74.9688C456.047 78.8085 453.949 82.1565 450.838 83.9346Z" fill="#2E2A42"/>
<path fill-rule="evenodd" clip-rule="evenodd" d="M687.938 81.0305C692.556 85.6486 700.043 85.6486 704.661 81.0305C709.279 76.4124 709.279 68.9249 704.661 64.3068C703.154 62.7995 701.341 61.7841 699.422 61.2607C700.502 65.2216 699.487 69.6347 696.376 72.7457C693.265 75.8565 688.853 76.8718 684.892 75.7917C685.415 77.7106 686.431 79.5233 687.938 81.0305Z" fill="white"/>
<path fill-rule="evenodd" clip-rule="evenodd" d="M684.891 75.7921C688.852 76.8726 693.265 75.8573 696.376 72.7463C699.486 69.6354 700.502 65.2224 699.421 61.2616C695.461 60.181 691.048 61.1963 687.937 64.3073C684.826 67.4183 683.811 71.8312 684.891 75.7921Z" fill="#2E2A42"/>
<path fill-rule="evenodd" clip-rule="evenodd" d="M715.926 81.0304C720.544 85.6485 728.031 85.6485 732.649 81.0304C737.267 76.4122 737.267 68.9248 732.649 64.3067C731.142 62.7994 729.329 61.7841 727.41 61.2607C728.49 65.2215 727.475 69.6344 724.364 72.7453C721.254 75.8561 716.841 76.8714 712.88 75.7913C713.404 77.7103 714.419 79.5232 715.926 81.0304Z" fill="white"/>
<path fill-rule="evenodd" clip-rule="evenodd" d="M712.882 75.7921C716.843 76.8726 721.256 75.8573 724.367 72.7463C727.478 69.6354 728.493 65.2224 727.413 61.2616C723.452 60.181 719.039 61.1963 715.928 64.3073C712.817 67.4183 711.802 71.8312 712.882 75.7921Z" fill="#2E2A42"/>
<path d="M111.326 69.9739C105.758 75.5424 96.7295 75.5424 91.1611 69.9739C85.5928 64.4054 85.5928 55.3771 91.1611 49.8086C92.9786 47.9911 95.1647 46.7668 97.4787 46.1357C96.176 50.9117 97.4002 56.233 101.151 59.9842C104.902 63.7351 110.223 64.9594 114.998 63.657C114.367 65.9708 113.143 68.1566 111.326 69.9739Z" fill="white"/>
<path d="M115.001 63.6573C110.225 64.9602 104.904 63.7361 101.153 59.9848C97.4018 56.2337 96.1776 50.9125 97.4802 46.1366C102.256 44.8337 107.577 46.0579 111.329 49.8092C115.08 53.5603 116.304 58.8814 115.001 63.6573Z" fill="#2E2A42"/>
<path d="M77.5783 69.974C72.01 75.5425 62.9819 75.5425 57.4136 69.974C51.8452 64.4055 51.8452 55.3772 57.4136 49.8087C59.2311 47.9911 61.4172 46.7668 63.7313 46.1357C62.4288 50.9116 63.653 56.2327 67.404 59.9838C71.1548 63.7347 76.4754 64.959 81.2509 63.6568C80.6198 65.9707 79.3956 68.1566 77.5783 69.974Z" fill="white"/>
<path d="M81.2505 63.6573C76.4745 64.9602 71.1533 63.7361 67.4021 59.9848C63.6511 56.2337 62.4269 50.9125 63.7295 46.1366C68.5054 44.8337 73.8267 46.0579 77.5778 49.8092C81.3289 53.5603 82.5531 58.8814 81.2505 63.6573Z" fill="#2E2A42"/>
<path d="M603.387 59.2773C603.387 66.8132 597.279 72.9228 589.743 72.9229C582.207 72.9229 576.098 66.8133 576.098 59.2773C576.098 56.8177 576.75 54.5104 577.888 52.5176C580.239 56.6306 584.667 59.4033 589.743 59.4033C594.819 59.4033 599.248 56.6308 601.598 52.5176C602.737 54.5103 603.387 56.8179 603.387 59.2773Z" fill="white"/>
<path d="M635.685 59.2773C635.685 66.8132 629.576 72.9228 622.041 72.9229C614.505 72.9229 608.396 66.8133 608.396 59.2773C608.396 56.8177 609.047 54.5104 610.186 52.5176C612.536 56.6306 616.964 59.4033 622.041 59.4033C627.117 59.4033 631.546 56.6309 633.896 52.5176C635.035 54.5103 635.685 56.8179 635.685 59.2773Z" fill="white"/>
<path d="M601.598 52.5186C599.248 56.6312 594.819 59.4032 589.743 59.4033C584.667 59.4033 580.239 56.63 577.889 52.5166C580.239 48.4046 584.667 45.633 589.742 45.6328C594.819 45.6328 599.248 48.4053 601.598 52.5186Z" fill="#2E2A42"/>
<path d="M633.892 52.5176C631.542 56.6306 627.114 59.4033 622.038 59.4033C616.961 59.4033 612.533 56.6306 610.183 52.5176C612.533 48.4049 616.962 45.6328 622.038 45.6328C627.114 45.6328 631.542 48.4049 633.892 52.5176Z" fill="#2E2A42"/>
<defs>
<radialGradient id="paint0_radial_47_3171" cx="0" cy="0" r="1" gradientUnits="userSpaceOnUse" gradientTransform="translate(24.7078 128.029) rotate(132.813) scale(155.59 156.052)">
<stop stop-color="#FF93AB"/>
<stop offset="0.591364" stop-color="#FF914D"/>
<stop offset="0.788485" stop-color="#FFA552"/>
</radialGradient>
</defs>
</svg>
