<svg width="143" height="143" viewBox="0 0 143 143" fill="none" xmlns="http://www.w3.org/2000/svg">
<path d="M33.2819 104.255C62.7991 104.255 86.7286 80.3263 86.7286 50.8084C86.7286 34.0785 79.0417 19.144 67.0066 9.34382C65.3876 8.02551 66.0671 5.31195 68.1535 5.23737C68.9537 5.20877 69.7576 5.19434 70.5651 5.19434C107.184 5.19434 136.87 34.8802 136.87 71.4998C136.87 108.119 107.184 137.806 70.5651 137.806C45.9687 137.806 24.5003 124.413 13.0548 104.523C12.0129 102.712 13.9589 100.699 15.9349 101.377C21.3744 103.243 27.2093 104.255 33.2819 104.255Z" fill="url(#paint0_linear_246_1569)"/>
<path d="M27.7464 17.4599C28.0735 14.2223 32.7911 14.2223 33.118 17.4599L33.3984 20.2356C34.0837 27.0218 39.2011 32.5226 45.9201 33.6958C48.3198 34.1148 48.3198 37.5593 45.9201 37.9782C39.2011 39.1515 34.0837 44.6523 33.3984 51.4386L33.118 54.2141C32.7911 57.4517 28.0735 57.4517 27.7464 54.2141L27.4662 51.4386C26.7807 44.6523 21.6633 39.1515 14.9444 37.9782C12.5446 37.5593 12.5446 34.1148 14.9444 33.6958C21.6633 32.5226 26.7807 27.0218 27.4662 20.2356L27.7464 17.4599Z" fill="url(#paint1_linear_246_1569)"/>
<path d="M52.5031 51.8769C52.7031 49.8962 55.5894 49.8962 55.7894 51.8769L55.961 53.5751C56.3802 57.7268 59.5112 61.0924 63.6218 61.8101C65.09 62.0664 65.09 64.1738 63.6218 64.4303C59.5112 65.148 56.3802 68.5134 55.961 72.6653L55.7894 74.3635C55.5894 76.3442 52.7031 76.3442 52.5031 74.3635L52.3315 72.6653C51.9121 68.5134 48.7813 65.148 44.6705 64.4303C43.2023 64.1738 43.2023 62.0664 44.6705 61.8101C48.7813 61.0924 51.9121 57.7268 52.3315 53.5751L52.5031 51.8769Z" fill="url(#paint2_linear_246_1569)"/>
<mask id="mask0_246_1569" style="mask-type:alpha" maskUnits="userSpaceOnUse" x="12" y="5" width="125" height="133">
<path d="M33.2823 104.255C62.7995 104.255 86.7292 80.3263 86.7292 50.8084C86.7292 34.0785 79.0423 19.144 67.007 9.34382C65.388 8.02551 66.0675 5.31195 68.1539 5.23737C68.9543 5.20877 69.7582 5.19434 70.5655 5.19434C107.185 5.19434 136.871 34.8802 136.871 71.4998C136.871 108.119 107.185 137.806 70.5655 137.806C45.969 137.806 24.5009 124.413 13.0553 104.523C12.0134 102.712 13.9594 100.699 15.9354 101.377C21.3749 103.243 27.2097 104.255 33.2823 104.255Z" fill="url(#paint3_linear_246_1569)"/>
</mask>
<g mask="url(#mask0_246_1569)">
<path fill-rule="evenodd" clip-rule="evenodd" d="M92.2494 64.9954C89.8161 64.1365 87.3235 64.2907 85.7907 65.2863C84.7557 65.9584 83.372 65.6644 82.6996 64.6297C82.0275 63.5947 82.3216 62.211 83.3563 61.5386C86.4159 59.5514 90.4657 59.6267 93.737 60.7816C97.0008 61.9339 100.222 64.4304 101.076 68.1419C101.353 69.3446 100.602 70.5438 99.3998 70.8204C98.1973 71.0973 96.9981 70.3468 96.7212 69.1442C96.3354 67.4671 94.6902 65.857 92.2494 64.9954Z" fill="#2E2A42"/>
<path fill-rule="evenodd" clip-rule="evenodd" d="M115.965 73.4759C113.532 72.617 111.039 72.7712 109.506 73.7668C108.471 74.4389 107.088 74.1449 106.416 73.1101C105.743 72.0752 106.037 70.6914 107.072 70.0191C110.132 68.0318 114.181 68.1071 117.453 69.2621C120.717 70.4144 123.938 72.9108 124.792 76.6226C125.069 77.8251 124.318 79.0243 123.116 79.3009C121.913 79.5777 120.714 78.8272 120.437 77.6247C120.051 75.9476 118.406 74.3377 115.965 73.4759Z" fill="#2E2A42"/>
<path fill-rule="evenodd" clip-rule="evenodd" d="M76.8633 76.8101C77.8899 76.1258 79.2773 76.4035 79.9617 77.4302C82.6507 81.4655 87.5284 85.2087 93.3203 87.5468C98.4701 89.6259 104.143 90.5129 109.369 89.6397C109.186 87.1642 109.792 84.6336 111.03 82.4077C111.629 81.3292 112.99 80.9411 114.069 81.5408C115.147 82.1405 115.535 83.501 114.935 84.5795C113.802 86.6177 113.526 88.8686 114.089 90.7582C114.632 92.5828 116.009 94.2629 118.615 95.1984C119.776 95.6153 120.38 96.8947 119.963 98.0564C119.546 99.2178 118.266 99.8213 117.105 99.4044C114.02 98.297 111.84 96.3469 110.589 93.9623C104.238 95.1407 97.5281 94.0647 91.6475 91.6906C85.2259 89.0983 79.5405 84.8566 76.243 79.9085C75.5586 78.8816 75.8363 77.4943 76.8633 76.8101Z" fill="#2E2A42"/>
</g>
<g style="mix-blend-mode:multiply" opacity="0.27">
<path d="M73.9547 125.137C73.4779 128.87 66.6718 131.076 58.7527 130.064C50.8336 129.053 44.8006 125.207 45.2774 121.474C45.7542 117.741 52.5603 115.536 60.4794 116.547C68.3985 117.559 74.4315 121.405 73.9547 125.137Z" fill="#FEB255"/>
</g>
<path d="M120.828 40.7303C118.785 42.193 114.763 40.0745 111.846 35.999C108.929 31.9235 108.22 27.434 110.263 25.9714C112.306 24.509 116.327 26.6272 119.245 30.7029C122.162 34.7784 122.871 39.2679 120.828 40.7303Z" fill="#FEB255"/>
<path d="M92.1023 123.169C90.7762 121.035 93.1525 117.16 97.4096 114.515C101.667 111.87 106.193 111.455 107.519 113.589C108.845 115.723 106.469 119.598 102.212 122.243C97.9546 124.888 93.4284 125.303 92.1023 123.169Z" fill="#FEB255"/>
<defs>
<linearGradient id="paint0_linear_246_1569" x1="102.085" y1="59.9381" x2="48.6617" y2="115.457" gradientUnits="userSpaceOnUse">
<stop stop-color="#FFDF78"/>
<stop offset="0.945335" stop-color="#FDB154"/>
</linearGradient>
<linearGradient id="paint1_linear_246_1569" x1="48.2747" y1="59.4282" x2="6.61507" y2="27.2441" gradientUnits="userSpaceOnUse">
<stop offset="0.400572" stop-color="#FF93AB"/>
<stop offset="1" stop-color="#FDB154"/>
</linearGradient>
<linearGradient id="paint2_linear_246_1569" x1="48.2745" y1="59.4285" x2="6.61492" y2="27.2443" gradientUnits="userSpaceOnUse">
<stop offset="0.400572" stop-color="#FF93AB"/>
<stop offset="1" stop-color="#FDB154"/>
</linearGradient>
<linearGradient id="paint3_linear_246_1569" x1="102.086" y1="59.9381" x2="48.6621" y2="115.457" gradientUnits="userSpaceOnUse">
<stop stop-color="#FFDF78"/>
<stop offset="0.945335" stop-color="#FDB154"/>
</linearGradient>
</defs>
</svg>
