<svg width="464" height="593" viewBox="0 0 464 593" fill="none" xmlns="http://www.w3.org/2000/svg">
<path fill-rule="evenodd" clip-rule="evenodd" d="M4.38876 201.526C4.38941 203.435 4.40005 234.471 4.40078 236.579C4.40145 238.559 4.11894 240.417 3.92985 241.443C3.84018 241.928 3.41258 242.266 2.92043 242.264L1.3659 242.26C0.953832 242.26 0.576821 242.018 0.404833 241.643L0.254352 241.314C0.189857 241.175 0.156599 241.025 0.156546 240.871L0.142032 198.534C0.141972 198.358 0.184883 198.187 0.268807 198.032L0.372234 197.837C0.557646 197.493 0.916922 197.278 1.30751 197.278L3.01047 197.278C3.45379 197.278 3.84644 197.553 3.95596 197.981C4.14369 198.71 4.38822 199.961 4.38876 201.526Z" fill="url(#paint0_linear_167_1433)"/>
<path fill-rule="evenodd" clip-rule="evenodd" d="M4.38876 201.526C4.38941 203.435 4.40005 234.471 4.40078 236.579C4.40145 238.559 4.11894 240.417 3.92985 241.443C3.84018 241.928 3.41258 242.266 2.92043 242.264L1.3659 242.26C0.953832 242.26 0.576821 242.018 0.404833 241.643L0.254352 241.314C0.189857 241.175 0.156599 241.025 0.156546 240.871L0.142032 198.534C0.141972 198.358 0.184883 198.187 0.268807 198.032L0.372234 197.837C0.557646 197.493 0.916922 197.278 1.30751 197.278L3.01047 197.278C3.45379 197.278 3.84644 197.553 3.95596 197.981C4.14369 198.71 4.38822 199.961 4.38876 201.526Z" fill="url(#paint1_linear_167_1433)"/>
<mask id="mask0_167_1433" style="mask-type:luminance" maskUnits="userSpaceOnUse" x="0" y="197" width="5" height="46">
<path fill-rule="evenodd" clip-rule="evenodd" d="M4.39413 201.526C4.39478 203.435 4.40542 234.471 4.40615 236.579C4.40717 239.559 3.76752 242.266 3.76752 242.266L0.693602 242.26L0.161997 241.103L0.147312 198.268L0.678181 197.278L3.7521 197.278C3.7521 197.278 4.39326 198.987 4.39413 201.526Z" fill="white"/>
</mask>
<g mask="url(#mask0_167_1433)">
<path d="M-0.388184 197.278L0.674233 197.278L0.689892 242.954L-0.372525 242.954L-0.388184 197.278Z" fill="#717B85"/>
<mask id="mask1_167_1433" style="mask-type:luminance" maskUnits="userSpaceOnUse" x="-1" y="197" width="3" height="46">
<path d="M1.73663 197.276L-0.38623 197.276L-0.370571 242.952L1.75229 242.952L1.73663 197.276Z" fill="white"/>
<path d="M-0.38623 197.276L0.676186 197.276L0.691845 242.952L-0.370571 242.952L-0.38623 197.276Z" fill="black"/>
</mask>
<g mask="url(#mask1_167_1433)">
<path d="M0.149902 197.276L0.165562 242.952L1.22798 242.952L1.21232 197.276L0.149902 197.276Z" fill="url(#paint2_linear_167_1433)"/>
</g>
</g>
<path fill-rule="evenodd" clip-rule="evenodd" d="M4.41561 279.069C4.41627 280.978 4.43601 338.57 4.43674 340.679C4.43741 342.658 4.1549 344.517 3.96581 345.541C3.87614 346.025 3.44853 346.363 2.95639 346.363L1.40186 346.359C0.989791 346.359 0.612781 346.117 0.440793 345.742L0.290311 345.414C0.225816 345.275 0.192558 345.122 0.192506 344.97L0.168888 276.077C0.168828 275.903 0.211738 275.729 0.295663 275.577L0.39909 275.381C0.584502 275.037 0.943778 274.821 1.33437 274.821L3.03733 274.821C3.48065 274.821 3.8733 275.096 3.98281 275.526C4.17054 276.253 4.41508 277.504 4.41561 279.069Z" fill="url(#paint3_linear_167_1433)"/>
<path fill-rule="evenodd" clip-rule="evenodd" d="M4.41561 279.069C4.41627 280.978 4.43601 338.57 4.43674 340.679C4.43741 342.658 4.1549 344.517 3.96581 345.541C3.87614 346.025 3.44853 346.363 2.95639 346.363L1.40186 346.359C0.989791 346.359 0.612781 346.117 0.440793 345.742L0.290311 345.414C0.225816 345.275 0.192558 345.122 0.192506 344.97L0.168888 276.077C0.168828 275.903 0.211738 275.729 0.295663 275.577L0.39909 275.381C0.584502 275.037 0.943778 274.821 1.33437 274.821L3.03733 274.821C3.48065 274.821 3.8733 275.096 3.98281 275.526C4.17054 276.253 4.41508 277.504 4.41561 279.069Z" fill="url(#paint4_linear_167_1433)"/>
<mask id="mask2_167_1433" style="mask-type:luminance" maskUnits="userSpaceOnUse" x="-1" y="274" width="6" height="73">
<path fill-rule="evenodd" clip-rule="evenodd" d="M4.42001 279.069C4.42066 280.978 4.44041 338.57 4.44113 340.679C4.44215 343.659 3.80251 346.366 3.80251 346.366L0.728585 346.36L0.19698 345.203L0.173191 275.812L0.70406 274.821L3.77798 274.821C3.77798 274.821 4.41914 276.531 4.42001 279.069Z" fill="white"/>
<path fill-rule="evenodd" clip-rule="evenodd" d="M4.42001 279.069C4.42066 280.978 4.44041 338.57 4.44113 340.679C4.44215 343.659 3.80251 346.366 3.80251 346.366L0.728585 346.36L0.19698 345.203L0.173191 275.812L0.70406 274.821L3.77798 274.821C3.77798 274.821 4.41914 276.531 4.42001 279.069Z" stroke="white" stroke-width="0.557041"/>
</mask>
<g mask="url(#mask2_167_1433)">
<path d="M-0.361816 274.82L0.7006 274.82L0.725362 347.05L-0.337054 347.05L-0.361816 274.82Z" fill="#717B85"/>
<mask id="mask3_167_1433" style="mask-type:luminance" maskUnits="userSpaceOnUse" x="-1" y="274" width="3" height="74">
<path d="M1.76251 274.82L-0.360352 274.82L-0.335589 347.051L1.78728 347.051L1.76251 274.82Z" fill="white"/>
<path d="M-0.360352 274.82L0.702065 274.82L0.726827 347.051L-0.335589 347.051L-0.360352 274.82Z" fill="black"/>
</mask>
<g mask="url(#mask3_167_1433)">
<path d="M0.17627 274.82L0.201033 347.05L1.26345 347.05L1.23869 274.82L0.17627 274.82Z" fill="url(#paint5_linear_167_1433)"/>
</g>
</g>
<path fill-rule="evenodd" clip-rule="evenodd" d="M4.44686 370.421C4.44752 372.331 4.46726 429.923 4.46799 432.031C4.46866 434.009 4.18615 435.869 3.99706 436.893C3.90739 437.378 3.47978 437.716 2.98764 437.714L1.43311 437.712C1.02104 437.71 0.644031 437.47 0.472042 437.092L0.321561 436.764C0.257066 436.625 0.223808 436.475 0.223756 436.323L0.200138 367.43C0.200077 367.254 0.242988 367.082 0.326912 366.927L0.430339 366.732C0.615751 366.388 0.975028 366.173 1.36562 366.173L3.06858 366.173C3.5119 366.173 3.90455 366.449 4.01406 366.877C4.20179 367.606 4.44633 368.856 4.44686 370.421Z" fill="url(#paint6_linear_167_1433)"/>
<path fill-rule="evenodd" clip-rule="evenodd" d="M4.44686 370.421C4.44752 372.331 4.46726 429.923 4.46799 432.031C4.46866 434.009 4.18615 435.869 3.99706 436.893C3.90739 437.378 3.47978 437.716 2.98764 437.714L1.43311 437.712C1.02104 437.71 0.644031 437.47 0.472042 437.092L0.321561 436.764C0.257066 436.625 0.223808 436.475 0.223756 436.323L0.200138 367.43C0.200077 367.254 0.242988 367.082 0.326912 366.927L0.430339 366.732C0.615751 366.388 0.975028 366.173 1.36562 366.173L3.06858 366.173C3.5119 366.173 3.90455 366.449 4.01406 366.877C4.20179 367.606 4.44633 368.856 4.44686 370.421Z" fill="url(#paint7_linear_167_1433)"/>
<mask id="mask4_167_1433" style="mask-type:luminance" maskUnits="userSpaceOnUse" x="-1" y="365" width="6" height="73">
<path fill-rule="evenodd" clip-rule="evenodd" d="M4.45126 370.421C4.45191 372.33 4.47166 429.922 4.47238 432.031C4.4734 435.009 3.83376 437.715 3.83376 437.715L0.759834 437.709L0.228229 436.552L0.204441 367.161L0.73531 366.172L3.80923 366.172C3.80923 366.172 4.45039 367.882 4.45126 370.421Z" fill="white"/>
<path fill-rule="evenodd" clip-rule="evenodd" d="M4.45126 370.421C4.45191 372.33 4.47166 429.922 4.47238 432.031C4.4734 435.009 3.83376 437.715 3.83376 437.715L0.759834 437.709L0.228229 436.552L0.204441 367.161L0.73531 366.172L3.80923 366.172C3.80923 366.172 4.45039 367.882 4.45126 370.421Z" stroke="white" stroke-width="0.557041"/>
</mask>
<g mask="url(#mask4_167_1433)">
<path d="M-0.330566 366.173L0.73185 366.173L0.756613 438.404L-0.305804 438.404L-0.330566 366.173Z" fill="#717B85"/>
<mask id="mask5_167_1433" style="mask-type:luminance" maskUnits="userSpaceOnUse" x="-1" y="366" width="3" height="73">
<path d="M1.79425 366.172L-0.328613 366.172L-0.30385 438.402L1.81901 438.402L1.79425 366.172Z" fill="white"/>
<path d="M-0.328613 366.172L0.733803 366.172L0.758566 438.402L-0.30385 438.402L-0.328613 366.172Z" fill="black"/>
</mask>
<g mask="url(#mask5_167_1433)">
<path d="M0.207031 366.171L0.231794 438.402L1.29421 438.402L1.26945 366.171L0.207031 366.171Z" fill="url(#paint8_linear_167_1433)"/>
</g>
</g>
<path fill-rule="evenodd" clip-rule="evenodd" d="M3.3057 133.334C3.28979 86.9314 3.28184 63.73 12.3003 46.006C20.2337 30.4159 32.8962 17.7414 48.4741 9.79787C66.1843 0.767827 89.3716 0.767822 135.744 0.767822L327.254 0.767821C373.629 0.767821 396.814 0.767826 414.531 9.79787C430.114 17.7414 442.785 30.4159 450.729 46.006C459.76 63.73 459.768 86.9314 459.784 133.334L460.022 828.453C460.038 874.855 460.046 898.055 451.028 915.779C443.094 931.369 430.432 944.043 414.854 951.989C397.144 961.019 373.958 961.017 327.584 961.017L136.074 961.017C89.7008 961.017 66.5135 961.019 48.7971 951.989C33.2138 944.043 20.5426 931.369 12.5985 915.779C3.56787 898.055 3.55991 874.855 3.544 828.453L3.3057 133.334Z" fill="#CCD0DD"/>
<mask id="mask6_167_1433" style="mask-type:luminance" maskUnits="userSpaceOnUse" x="3" y="0" width="458" height="962">
<path fill-rule="evenodd" clip-rule="evenodd" d="M3.3057 133.334C3.28979 86.9314 3.28184 63.73 12.3003 46.006C20.2337 30.4159 32.8962 17.7414 48.4741 9.79787C66.1843 0.767827 89.3716 0.767822 135.744 0.767822L327.254 0.767821C373.629 0.767821 396.814 0.767826 414.531 9.79787C430.114 17.7414 442.785 30.4159 450.729 46.006C459.76 63.73 459.768 86.9314 459.784 133.334L460.022 828.453C460.038 874.855 460.046 898.055 451.028 915.779C443.094 931.369 430.432 944.043 414.854 951.989C397.144 961.019 373.958 961.017 327.584 961.017L136.074 961.017C89.7008 961.017 66.5135 961.019 48.7971 951.989C33.2138 944.043 20.5426 931.369 12.5985 915.779C3.56787 898.055 3.55991 874.855 3.544 828.453L3.3057 133.334Z" fill="white"/>
</mask>
<g mask="url(#mask6_167_1433)">
<g filter="url(#filter0_f_167_1433)">
<path fill-rule="evenodd" clip-rule="evenodd" d="M5.43314 135.459C5.41723 89.0559 5.40928 65.8545 14.4278 48.1305C22.3612 32.5424 35.0256 19.8659 50.6035 11.9224C68.3117 2.89231 91.499 2.89233 137.874 2.89233L324.074 2.89233C370.448 2.89233 393.636 2.89231 411.35 11.9224C426.935 19.8659 439.607 32.5424 447.551 48.1305C456.581 65.8545 456.589 89.0559 456.605 135.459L456.842 825.266C456.858 871.669 456.865 894.87 447.847 912.592C439.914 928.182 427.251 940.857 411.671 948.802C393.963 957.832 370.776 957.832 324.401 957.832L138.201 957.832C91.8264 957.832 68.639 957.832 50.9246 948.802C35.3413 940.857 22.6682 928.182 14.7241 912.592C5.69348 894.87 5.68552 871.669 5.66961 825.266L5.43314 135.459Z" fill="#DEE1E4"/>
</g>
<g filter="url(#filter1_d_167_1433)">
<path fill-rule="evenodd" clip-rule="evenodd" d="M8.61147 131.848C8.59638 87.8254 8.58884 65.814 17.1448 48.9987C24.6722 34.2079 36.6846 22.1841 51.4639 14.647C68.2661 6.08008 90.2641 6.08008 134.258 6.08008L328.74 6.08008C372.736 6.08007 394.734 6.08008 411.543 14.647C426.327 22.1841 438.348 34.2079 445.885 48.9987C454.453 65.814 454.46 87.8254 454.475 131.848L454.715 829.941C454.73 873.963 454.737 895.975 446.181 912.788C438.654 927.579 426.641 939.604 411.862 947.14C395.06 955.708 373.062 955.708 329.066 955.708L134.584 955.708C90.5896 955.708 68.5916 955.708 51.7836 947.14C36.9991 939.604 24.9785 927.579 17.4409 912.788C8.87343 895.975 8.86588 873.963 8.85079 829.941L8.61147 131.848Z" fill="white" fill-opacity="0.1"/>
</g>
<path fill-rule="evenodd" clip-rule="evenodd" d="M461.891 100.616L453.409 100.616L453.421 106.991L461.905 106.991L461.891 100.616Z" fill="url(#paint9_linear_167_1433)"/>
<path fill-rule="evenodd" clip-rule="evenodd" d="M0.111816 100.616L9.65586 100.616L9.66782 106.991L0.123776 106.991L0.111816 100.616Z" fill="url(#paint10_linear_167_1433)"/>
<path fill-rule="evenodd" clip-rule="evenodd" d="M359.954 0.853817L366.324 0.767822L366.326 7.71869L359.956 7.80465L359.954 0.853817Z" fill="url(#paint11_linear_167_1433)"/>
</g>
<path fill-rule="evenodd" clip-rule="evenodd" d="M3.30492 133.334C3.28901 86.9314 3.28106 63.73 12.2996 46.006C20.2329 30.4159 32.8954 17.7414 48.4733 9.79787C66.1835 0.767827 89.3708 0.767822 135.744 0.767822L327.254 0.767822C373.626 0.767822 396.814 0.767827 414.53 9.79787C430.113 17.7414 442.785 30.4159 450.729 46.006C459.759 63.73 459.767 86.9314 459.783 133.334L459.84 299.252H462.494L463.026 300.243L463.064 412.123L462.533 413.279L459.879 413.285L460.021 828.453C460.037 874.855 460.045 898.055 451.027 915.779C443.093 931.369 430.431 944.043 414.853 951.989C397.143 961.019 373.956 961.017 327.583 961.017H136.073C89.7 961.017 66.5127 961.019 48.7963 951.989C33.213 944.043 20.5418 931.369 12.5977 915.779C3.56709 898.055 3.55913 874.855 3.54322 828.453L3.40927 437.716L0.755222 437.71L0.223618 436.553L0.199828 367.162L0.730697 366.173H3.38474L3.37795 346.364L0.723904 346.358L0.1923 345.203L0.168511 275.812L0.69938 274.821H3.35342L3.34226 242.267L0.688217 242.261L0.156613 241.105L0.141928 198.27L0.672796 197.279H3.32684L3.30492 133.334Z" fill="#41434A"/>
<path d="M9.67037 129.51C9.65568 86.677 9.64836 65.2597 17.974 48.8997C25.2965 34.5095 36.9848 22.8081 51.3658 15.4762C67.713 7.13988 89.1153 7.13989 131.922 7.13989L331.074 7.13989C373.882 7.13989 395.285 7.13987 411.638 15.4762C426.022 22.8081 437.72 34.5095 445.052 48.8997C453.389 65.2597 453.397 86.677 453.411 129.51L453.652 832.276C453.667 875.109 453.674 896.526 445.349 912.884C438.026 927.277 426.336 938.976 411.957 946.308C395.61 954.644 374.207 954.644 331.399 954.644L132.247 954.644C89.4402 954.644 68.0378 954.644 51.6849 946.308C37.2989 938.976 25.6026 927.277 18.2702 912.884C9.93333 896.526 9.92598 875.109 9.91129 832.276L9.67037 129.51Z" fill="#393C46" stroke="black" stroke-width="0.27852"/>
<path d="M186.918 9.2657L185.855 7.67114L276.089 7.67114L275.03 9.2657L186.918 9.2657Z" fill="url(#paint12_linear_167_1433)"/>
<g filter="url(#filter2_ii_167_1433)">
<path fill-rule="evenodd" clip-rule="evenodd" d="M185.056 7.13989C185.53 7.13989 185.767 7.13989 185.964 7.22392C186.138 7.29622 186.29 7.41543 186.404 7.5659C186.531 7.73786 186.589 7.96844 186.705 8.42766L186.712 8.46088C186.83 8.93378 187.256 9.26598 187.742 9.26598L274.195 9.26598C274.683 9.26598 275.107 8.93378 275.226 8.46088L275.234 8.42766C275.349 7.96844 275.405 7.73786 275.534 7.5659C275.647 7.41543 275.798 7.29622 275.973 7.22392C276.169 7.13989 276.407 7.13989 276.88 7.13989L331.074 7.13989C373.882 7.13989 395.285 7.13987 411.638 15.4762C426.022 22.8081 437.72 34.5095 445.052 48.8997C453.389 65.2597 453.397 86.677 453.411 129.51L453.652 832.276C453.667 875.109 453.674 896.526 445.349 912.884C438.026 927.277 426.336 938.976 411.957 946.308C395.61 954.644 374.207 954.644 331.399 954.644L132.247 954.644C89.4402 954.644 68.0378 954.644 51.6849 946.308C37.2989 938.976 25.6026 927.277 18.2702 912.884C9.93333 896.526 9.92598 875.109 9.91129 832.276L9.67037 129.51C9.65568 86.677 9.64836 65.2597 17.974 48.8997C25.2965 34.5095 36.9848 22.8081 51.3658 15.4762C67.713 7.13988 89.1153 7.13989 131.922 7.13989L185.056 7.13989Z" fill="#383B45"/>
<path fill-rule="evenodd" clip-rule="evenodd" d="M185.056 7.13989C185.53 7.13989 185.767 7.13989 185.964 7.22392C186.138 7.29622 186.29 7.41543 186.404 7.5659C186.531 7.73786 186.589 7.96844 186.705 8.42766L186.712 8.46088C186.83 8.93378 187.256 9.26598 187.742 9.26598L274.195 9.26598C274.683 9.26598 275.107 8.93378 275.226 8.46088L275.234 8.42766C275.349 7.96844 275.405 7.73786 275.534 7.5659C275.647 7.41543 275.798 7.29622 275.973 7.22392C276.169 7.13989 276.407 7.13989 276.88 7.13989L331.074 7.13989C373.882 7.13989 395.285 7.13987 411.638 15.4762C426.022 22.8081 437.72 34.5095 445.052 48.8997C453.389 65.2597 453.397 86.677 453.411 129.51L453.652 832.276C453.667 875.109 453.674 896.526 445.349 912.884C438.026 927.277 426.336 938.976 411.957 946.308C395.61 954.644 374.207 954.644 331.399 954.644L132.247 954.644C89.4402 954.644 68.0378 954.644 51.6849 946.308C37.2989 938.976 25.6026 927.277 18.2702 912.884C9.93333 896.526 9.92598 875.109 9.91129 832.276L9.67037 129.51C9.65568 86.677 9.64836 65.2597 17.974 48.8997C25.2965 34.5095 36.9848 22.8081 51.3658 15.4762C67.713 7.13988 89.1153 7.13989 131.922 7.13989L185.056 7.13989Z" fill="url(#paint13_linear_167_1433)" fill-opacity="0.2"/>
</g>
<path d="M186.87 8.41998L186.862 8.38673L186.553 8.46492L186.559 8.49813L186.87 8.41998ZM187.745 9.10391C187.331 9.10391 186.969 8.82253 186.87 8.41998L186.559 8.49813C186.696 9.04138 187.184 9.42242 187.745 9.42242L187.745 9.10391ZM274.198 9.10391L187.745 9.10391L187.745 9.42242L274.198 9.42242L274.198 9.10391ZM275.073 8.41998C274.973 8.82253 274.614 9.10391 274.198 9.10391L274.198 9.42242C274.759 9.42242 275.247 9.04138 275.383 8.49813L275.073 8.41998ZM275.082 8.38673L275.073 8.41998L275.383 8.49813L275.391 8.46492L275.082 8.38673ZM276.883 7.2983L331.077 7.2983L331.077 6.97976L276.883 6.97976L276.883 7.2983ZM331.077 7.2983C352.483 7.2983 368.529 7.29831 381.266 8.33986C394.004 9.38141 403.419 11.4626 411.569 15.617L411.713 15.3337C403.511 11.1518 394.048 9.06482 381.293 8.02132C368.538 6.97976 352.477 6.97976 331.077 6.97976L331.077 7.2983ZM411.569 15.617C425.923 22.9333 437.596 34.6092 444.913 48.9702L445.198 48.8256C437.85 34.4041 426.128 22.6812 411.713 15.3337L411.569 15.617ZM444.913 48.9702C449.068 57.1248 451.151 66.5456 452.196 79.2885C453.241 92.0334 453.247 108.089 453.254 129.508L453.573 129.508C453.565 108.094 453.56 92.0236 452.514 79.2612C451.467 66.4988 449.378 57.031 445.198 48.8256L444.913 48.9702ZM453.254 129.508L453.495 832.275L453.813 832.275L453.573 129.508L453.254 129.508ZM453.495 832.275C453.503 853.694 453.508 869.749 452.471 882.494C451.435 895.237 449.358 904.658 445.209 912.81L445.494 912.955C449.669 904.749 451.751 895.282 452.79 882.519C453.826 869.759 453.821 853.688 453.813 832.275L453.495 832.275ZM445.209 912.81C437.902 927.173 426.237 938.847 411.888 946.165L412.032 946.449C426.442 939.101 438.156 927.376 445.494 912.955L445.209 912.81ZM411.888 946.165C403.741 950.32 394.327 952.401 381.59 953.442C368.853 954.482 352.808 954.482 331.402 954.482L331.402 954.803C352.802 954.803 368.863 954.803 381.618 953.759C394.372 952.718 403.833 950.629 412.032 946.449L411.888 946.165ZM331.402 954.482L132.25 954.482L132.25 954.803L331.402 954.803L331.402 954.482ZM132.25 954.482C110.845 954.482 94.8 954.482 82.0606 953.442C69.325 952.401 59.9092 950.32 51.7601 946.165L51.6156 946.449C59.8175 950.629 69.2802 952.718 82.0353 953.759C94.7884 954.803 110.849 954.803 132.25 954.803L132.25 954.482ZM51.7601 946.165C37.4054 938.847 25.7325 927.173 18.4137 912.81L18.1306 912.955C25.4787 927.376 37.2004 939.101 51.6156 946.449L51.7601 946.165ZM18.4137 912.81C14.259 904.658 12.1759 895.237 11.1325 882.494C10.0872 869.749 10.0817 853.694 10.0744 832.275L9.75607 832.275C9.76341 853.688 9.76695 869.759 10.8142 882.519C11.8614 895.282 13.9485 904.749 18.1306 912.955L18.4137 912.81ZM10.0744 832.275L9.83347 129.508L9.51515 129.508L9.75607 832.275L10.0744 832.275ZM9.83347 129.508C9.82613 108.089 9.82063 92.0334 10.8572 79.2885C11.8918 66.5456 13.9684 57.1248 18.1176 48.9702L17.8344 48.8256C13.6579 57.031 11.5773 66.4988 10.5388 79.2612C9.50033 92.0236 9.50781 108.094 9.51515 129.508L9.83347 129.508ZM18.1176 48.9702C25.4265 34.6093 37.0914 22.9333 51.4411 15.617L51.2964 15.3337C36.8862 22.6812 25.1725 34.4041 17.8344 48.8256L18.1176 48.9702ZM51.4411 15.617C59.5873 11.4626 69.0017 9.38141 81.7366 8.33986C94.4753 7.29831 110.521 7.2983 131.925 7.2983L131.925 6.97976C110.525 6.97976 94.4635 6.97977 81.7111 8.02132C68.9567 9.06483 59.4954 11.1518 51.2964 15.3337L51.4411 15.617ZM131.925 7.2983L185.059 7.2983L185.059 6.97976L131.925 6.97976L131.925 7.2983ZM275.391 8.46492C275.508 7.99006 275.559 7.79855 275.664 7.65981L275.408 7.46829C275.258 7.67152 275.194 7.94119 275.082 8.38673L275.391 8.46492ZM276.883 6.97976C276.424 6.97976 276.148 6.97587 275.914 7.07553L276.037 7.36864C276.197 7.3022 276.394 7.2983 276.883 7.2983L276.883 6.97976ZM275.664 7.65981C275.76 7.53084 275.889 7.43117 276.037 7.36864L275.914 7.07553C275.713 7.15956 275.539 7.29437 275.408 7.46829L275.664 7.65981ZM186.862 8.38673C186.75 7.94119 186.686 7.67152 186.533 7.46829L186.278 7.65981C186.383 7.79855 186.434 7.99006 186.553 8.46492L186.862 8.38673ZM185.059 7.2983C185.547 7.2983 185.746 7.3022 185.907 7.36864L186.029 7.07553C185.795 6.97587 185.518 6.97976 185.059 6.97976L185.059 7.2983ZM186.533 7.46829C186.403 7.29437 186.229 7.15956 186.029 7.07553L185.907 7.36864C186.053 7.43117 186.182 7.53084 186.278 7.65981L186.533 7.46829Z" fill="black"/>
<path d="M185.173 31.8389L278.905 31.8389C289.525 31.8389 298.127 40.2846 298.13 50.6924C298.134 61.1001 289.538 69.5478 278.918 69.5478L185.186 69.5478C174.568 69.5478 165.966 61.1001 165.963 50.6924C165.959 40.2847 174.555 31.8389 185.173 31.8389Z" stroke="white" stroke-opacity="0.02" stroke-width="0.27852"/>
<path fill-rule="evenodd" clip-rule="evenodd" d="M278.904 31.5715L185.174 31.5715C174.414 31.5715 165.693 40.1306 165.696 50.6908C165.7 61.2509 174.427 69.8119 185.188 69.8119L278.917 69.8119C289.678 69.8119 298.399 61.2509 298.395 50.6908C298.392 40.1306 289.665 31.5715 278.904 31.5715Z" fill="#383B45"/>
<g filter="url(#filter3_di_167_1433)">
<path fill-rule="evenodd" clip-rule="evenodd" d="M282.59 55.7576C285.265 54.2724 286.233 50.8957 284.748 48.2166C283.262 45.5375 279.891 44.5682 277.214 46.0533C274.539 47.5385 273.572 50.9152 275.057 53.5963C276.542 56.2754 279.915 57.2427 282.59 55.7576Z" fill="url(#paint14_linear_167_1433)"/>
</g>
<g filter="url(#filter4_d_167_1433)">
<path fill-rule="evenodd" clip-rule="evenodd" d="M281.697 54.1395C283.482 53.1488 284.126 50.8976 283.135 49.1116C282.146 47.3235 279.898 46.6787 278.114 47.6694C276.329 48.6601 275.685 50.9113 276.676 52.6974C277.665 54.4835 279.913 55.1283 281.697 54.1395Z" fill="url(#paint15_linear_167_1433)"/>
</g>
<defs>
<filter id="filter0_f_167_1433" x="3.91745" y="1.37814" width="454.44" height="957.968" filterUnits="userSpaceOnUse" color-interpolation-filters="sRGB">
<feFlood flood-opacity="0" result="BackgroundImageFix"/>
<feBlend mode="normal" in="SourceGraphic" in2="BackgroundImageFix" result="shape"/>
<feGaussianBlur stdDeviation="0.757096" result="effect1_foregroundBlur_167_1433"/>
</filter>
<filter id="filter1_d_167_1433" x="8.05331" y="5.52304" width="446.663" height="950.185" filterUnits="userSpaceOnUse" color-interpolation-filters="sRGB">
<feFlood flood-opacity="0" result="BackgroundImageFix"/>
<feColorMatrix in="SourceAlpha" type="matrix" values="0 0 0 0 0 0 0 0 0 0 0 0 0 0 0 0 0 0 127 0" result="hardAlpha"/>
<feOffset dx="-0.27852" dy="-0.27852"/>
<feGaussianBlur stdDeviation="0.13926"/>
<feColorMatrix type="matrix" values="0 0 0 0 0.992157 0 0 0 0 0.988235 0 0 0 0 0.984314 0 0 0 0.8 0"/>
<feBlend mode="normal" in2="BackgroundImageFix" result="effect1_dropShadow_167_1433"/>
<feBlend mode="normal" in="SourceGraphic" in2="effect1_dropShadow_167_1433" result="shape"/>
</filter>
<filter id="filter2_ii_167_1433" x="9.39042" y="6.86137" width="444.541" height="948.061" filterUnits="userSpaceOnUse" color-interpolation-filters="sRGB">
<feFlood flood-opacity="0" result="BackgroundImageFix"/>
<feBlend mode="normal" in="SourceGraphic" in2="BackgroundImageFix" result="shape"/>
<feColorMatrix in="SourceAlpha" type="matrix" values="0 0 0 0 0 0 0 0 0 0 0 0 0 0 0 0 0 0 127 0" result="hardAlpha"/>
<feOffset dx="0.27852" dy="0.27852"/>
<feGaussianBlur stdDeviation="0.27852"/>
<feComposite in2="hardAlpha" operator="arithmetic" k2="-1" k3="1"/>
<feColorMatrix type="matrix" values="0 0 0 0 1 0 0 0 0 1 0 0 0 0 1 0 0 0 0.2 0"/>
<feBlend mode="normal" in2="shape" result="effect1_innerShadow_167_1433"/>
<feColorMatrix in="SourceAlpha" type="matrix" values="0 0 0 0 0 0 0 0 0 0 0 0 0 0 0 0 0 0 127 0" result="hardAlpha"/>
<feOffset dx="-0.27852" dy="-0.27852"/>
<feGaussianBlur stdDeviation="0.27852"/>
<feComposite in2="hardAlpha" operator="arithmetic" k2="-1" k3="1"/>
<feColorMatrix type="matrix" values="0 0 0 0 1 0 0 0 0 1 0 0 0 0 1 0 0 0 0.2 0"/>
<feBlend mode="normal" in2="effect1_innerShadow_167_1433" result="effect2_innerShadow_167_1433"/>
</filter>
<filter id="filter3_di_167_1433" x="274.36" y="45.3572" width="11.084" height="11.654" filterUnits="userSpaceOnUse" color-interpolation-filters="sRGB">
<feFlood flood-opacity="0" result="BackgroundImageFix"/>
<feColorMatrix in="SourceAlpha" type="matrix" values="0 0 0 0 0 0 0 0 0 0 0 0 0 0 0 0 0 0 127 0" result="hardAlpha"/>
<feOffset/>
<feColorMatrix type="matrix" values="0 0 0 0 1 0 0 0 0 1 0 0 0 0 1 0 0 0 0.0762948 0"/>
<feBlend mode="normal" in2="BackgroundImageFix" result="effect1_dropShadow_167_1433"/>
<feBlend mode="normal" in="SourceGraphic" in2="effect1_dropShadow_167_1433" result="shape"/>
<feColorMatrix in="SourceAlpha" type="matrix" values="0 0 0 0 0 0 0 0 0 0 0 0 0 0 0 0 0 0 127 0" result="hardAlpha"/>
<feOffset dy="0.557041"/>
<feGaussianBlur stdDeviation="0.27852"/>
<feComposite in2="hardAlpha" operator="arithmetic" k2="-1" k3="1"/>
<feColorMatrix type="matrix" values="0 0 0 0 0 0 0 0 0 0 0 0 0 0 0 0 0 0 0.197945 0"/>
<feBlend mode="normal" in2="shape" result="effect2_innerShadow_167_1433"/>
</filter>
<filter id="filter4_d_167_1433" x="275.097" y="46.0905" width="9.61732" height="9.6266" filterUnits="userSpaceOnUse" color-interpolation-filters="sRGB">
<feFlood flood-opacity="0" result="BackgroundImageFix"/>
<feColorMatrix in="SourceAlpha" type="matrix" values="0 0 0 0 0 0 0 0 0 0 0 0 0 0 0 0 0 0 127 0" result="hardAlpha"/>
<feOffset/>
<feGaussianBlur stdDeviation="0.557041"/>
<feColorMatrix type="matrix" values="0 0 0 0 0 0 0 0 0 0 0 0 0 0 0 0 0 0 0.538462 0"/>
<feBlend mode="normal" in2="BackgroundImageFix" result="effect1_dropShadow_167_1433"/>
<feBlend mode="normal" in="SourceGraphic" in2="effect1_dropShadow_167_1433" result="shape"/>
</filter>
<linearGradient id="paint0_linear_167_1433" x1="5.45049" y1="199.554" x2="0.142383" y2="199.556" gradientUnits="userSpaceOnUse">
<stop offset="0.232734" stop-color="white"/>
<stop offset="1" stop-color="#A1ABB4"/>
</linearGradient>
<linearGradient id="paint1_linear_167_1433" x1="2.26445" y1="197.278" x2="2.26445" y2="242.266" gradientUnits="userSpaceOnUse">
<stop stop-color="#717B85"/>
<stop offset="0.0157517" stop-color="#717B85" stop-opacity="0"/>
<stop offset="0.981733" stop-color="#717B85" stop-opacity="0"/>
<stop offset="1" stop-color="#717B85"/>
</linearGradient>
<linearGradient id="paint2_linear_167_1433" x1="0.149902" y1="197.276" x2="0.149902" y2="242.952" gradientUnits="userSpaceOnUse">
<stop offset="0.0182704" stop-color="#C6C7C7"/>
<stop offset="0.0404758" stop-color="#EFEFEF"/>
<stop offset="0.971716" stop-color="#F5F6F6"/>
<stop offset="1" stop-color="#909090"/>
</linearGradient>
<linearGradient id="paint3_linear_167_1433" x1="5.4778" y1="278.444" x2="0.1697" y2="278.445" gradientUnits="userSpaceOnUse">
<stop offset="0.232734" stop-color="white"/>
<stop offset="1" stop-color="#A1ABB4"/>
</linearGradient>
<linearGradient id="paint4_linear_167_1433" x1="2.29131" y1="274.821" x2="2.29131" y2="346.365" gradientUnits="userSpaceOnUse">
<stop stop-color="#717B85"/>
<stop offset="0.0157517" stop-color="#717B85" stop-opacity="0"/>
<stop offset="0.981733" stop-color="#717B85" stop-opacity="0"/>
<stop offset="1" stop-color="#717B85"/>
</linearGradient>
<linearGradient id="paint5_linear_167_1433" x1="0.17627" y1="274.82" x2="0.176269" y2="347.05" gradientUnits="userSpaceOnUse">
<stop offset="0.0182704" stop-color="#C6C7C7"/>
<stop offset="0.0404758" stop-color="#EFEFEF"/>
<stop offset="0.926118" stop-color="#F5F6F6"/>
<stop offset="1" stop-color="#909090"/>
</linearGradient>
<linearGradient id="paint6_linear_167_1433" x1="5.50905" y1="369.794" x2="0.200949" y2="369.796" gradientUnits="userSpaceOnUse">
<stop offset="0.232734" stop-color="white"/>
<stop offset="1" stop-color="#A1ABB4"/>
</linearGradient>
<linearGradient id="paint7_linear_167_1433" x1="2.32256" y1="366.173" x2="2.32256" y2="437.716" gradientUnits="userSpaceOnUse">
<stop stop-color="#717B85"/>
<stop offset="0.0157517" stop-color="#717B85" stop-opacity="0"/>
<stop offset="0.981733" stop-color="#717B85" stop-opacity="0"/>
<stop offset="1" stop-color="#717B85"/>
</linearGradient>
<linearGradient id="paint8_linear_167_1433" x1="0.207031" y1="366.171" x2="0.207031" y2="438.402" gradientUnits="userSpaceOnUse">
<stop offset="0.0182704" stop-color="#C6C7C7"/>
<stop offset="0.0404758" stop-color="#EFEFEF"/>
<stop offset="0.971716" stop-color="#F5F6F6"/>
<stop offset="1" stop-color="#909090"/>
</linearGradient>
<linearGradient id="paint9_linear_167_1433" x1="453.411" y1="105.928" x2="461.904" y2="105.952" gradientUnits="userSpaceOnUse">
<stop stop-color="#BAC0CF"/>
<stop offset="0.11" stop-color="white"/>
<stop offset="0.315386" stop-color="white"/>
<stop offset="0.982876" stop-color="#B9BECE"/>
</linearGradient>
<linearGradient id="paint10_linear_167_1433" x1="2.23649" y1="105.928" x2="9.66747" y2="105.95" gradientUnits="userSpaceOnUse">
<stop offset="0.0171239" stop-color="#B9BECE"/>
<stop offset="0.684614" stop-color="white"/>
<stop offset="0.89" stop-color="white"/>
<stop offset="1" stop-color="#BAC0CF"/>
</linearGradient>
<linearGradient id="paint11_linear_167_1433" x1="363.846" y1="0.767822" x2="363.834" y2="7.14024" gradientUnits="userSpaceOnUse">
<stop offset="0.0171239" stop-color="#B9BECE"/>
<stop offset="0.684614" stop-color="white"/>
<stop offset="0.89" stop-color="white"/>
<stop offset="1" stop-color="#BAC0CF"/>
</linearGradient>
<linearGradient id="paint12_linear_167_1433" x1="230.973" y1="9.2657" x2="230.973" y2="6.61006" gradientUnits="userSpaceOnUse">
<stop stop-color="#41444D"/>
<stop offset="1"/>
</linearGradient>
<linearGradient id="paint13_linear_167_1433" x1="231.5" y1="9.26599" x2="231.5" y2="26.7926" gradientUnits="userSpaceOnUse">
<stop stop-color="white" stop-opacity="0.55"/>
<stop offset="1" stop-opacity="0"/>
</linearGradient>
<linearGradient id="paint14_linear_167_1433" x1="274.359" y1="45.3577" x2="274.359" y2="56.4552" gradientUnits="userSpaceOnUse">
<stop stop-color="#292B33"/>
<stop offset="1" stop-color="#2E313B"/>
</linearGradient>
<linearGradient id="paint15_linear_167_1433" x1="276.209" y1="47.2043" x2="276.209" y2="54.6027" gradientUnits="userSpaceOnUse">
<stop stop-color="#383B45"/>
<stop offset="1" stop-color="#292B33"/>
</linearGradient>
</defs>
</svg>
