<svg width="60" height="61" viewBox="0 0 60 61" fill="none" xmlns="http://www.w3.org/2000/svg">
<circle cx="30" cy="30.0957" r="30" fill="white"/>
<path d="M30.941 10.7297C33.1971 8.27618 35.62 6.44322 38.9295 7.39149C42.9921 8.55559 44.3588 12.1192 44.3763 16.6929C47.8206 16.4944 50.9598 16.8266 52.6989 19.9132C54.7734 23.5956 53.2423 27.0918 50.0417 30.3601C52.6319 32.6375 54.6326 35.0789 53.7026 38.4967C52.5931 42.574 49.0485 43.9879 44.4762 44.0669C44.7207 47.5078 44.4313 50.6505 41.3685 52.4305C37.7145 54.554 34.1975 53.0714 30.8869 49.9153C28.6442 52.5363 26.2306 54.5697 22.8002 53.6855C18.707 52.6304 17.2451 49.1041 17.1057 44.5312C13.6674 44.822 10.5203 44.5756 8.69912 41.5361C6.52684 37.9106 7.96146 34.3735 11.0733 31.0208C8.42359 28.8139 6.35894 26.4277 7.1967 22.9869C8.23396 18.7279 11.9676 17.2629 16.7871 17.1534C16.9169 17.1851 17.0453 17.2192 17.1721 17.2568C16.883 13.3938 16.9558 9.76599 20.3775 7.86831C24.1249 5.79016 27.6561 7.41631 30.941 10.7297Z" fill="#A786D7"/>
<path d="M24.7441 21.27C27.2735 21.27 29.3242 23.3207 29.3242 25.8501C29.3242 28.3794 27.2735 30.4302 24.7441 30.4302C23.9189 30.4302 23.1452 30.2106 22.4766 29.8286C23.8574 29.0399 24.789 27.5542 24.7891 25.8501C24.7891 24.1459 23.8576 22.6593 22.4766 21.8706C23.1452 21.4888 23.9191 21.27 24.7441 21.27Z" fill="white"/>
<path d="M22.4746 21.8726C23.8539 22.6616 24.784 24.1462 24.7842 25.8491C24.7842 27.552 23.8539 29.0365 22.4746 29.8257C21.0955 29.0365 20.165 27.5519 20.165 25.8491C20.1652 24.1464 21.0955 22.6617 22.4746 21.8726Z" fill="#2E2A42"/>
<path d="M35.583 21.27C38.1123 21.2701 40.1631 23.3208 40.1631 25.8501C40.1631 28.3794 38.1123 30.4301 35.583 30.4302C34.7575 30.4302 33.9833 30.2108 33.3145 29.8286C34.6956 29.04 35.6269 27.5544 35.627 25.8501C35.627 24.1456 34.6958 22.6592 33.3145 21.8706C33.9832 21.4886 34.7577 21.27 35.583 21.27Z" fill="white"/>
<path d="M33.3145 21.8716C34.6953 22.6602 35.6268 24.1451 35.627 25.8491C35.627 27.5534 34.6955 29.0389 33.3145 29.8276C31.934 29.0388 31.0029 27.5529 31.0029 25.8491C31.0031 24.1455 31.9342 22.6604 33.3145 21.8716Z" fill="#2E2A42"/>
</svg>
