<svg
	width="102"
	height="83"
	viewBox="0 0 102 83"
	fill="none"
	xmlns="http://www.w3.org/2000/svg"
>
	<path
		clip-rule="evenodd"
		d="M67.4907 72.8818C67.5405 72.099 66.9463 71.424 66.1635 71.3742C59.058 70.922 53.7045 68.2579 50.7363 64.2801C47.7979 60.3422 47.0048 54.8588 49.5211 48.2974C49.8019 47.5651 49.4359 46.7437 48.7035 46.4628C47.9712 46.1819 47.1498 46.548 46.8689 47.2803C44.0754 54.5645 44.8282 61.112 48.4597 65.9788C52.0615 70.8058 58.3021 73.7202 65.9831 74.209C66.7659 74.2588 67.4409 73.6646 67.4907 72.8818Z"
		fill="#2E2A42"
	/>
	<path
		d="M66.7825 77.5693C66.7825 77.5693 63.1387 78.2826 61.843 79.9873C61.3219 80.6728 62.0061 81.4532 62.8605 81.5597C66.6209 82.0285 70.2633 82.0978 71.564 79.7343C72.4922 78.0479 71.2956 76.0834 69.9417 74.715L67.0331 71.7754L63.3595 73.0518C63.1196 73.9596 66.7825 77.5693 66.7825 77.5693Z"
		fill="#2E2A42"
	/>
	<path
		clip-rule="evenodd"
		d="M28.331 32.6696C28.6626 31.959 28.3552 31.1141 27.6446 30.7825C24.354 29.2474 22.0636 27.7134 20.0926 25.3965C18.0949 23.0484 16.3528 19.8115 14.3163 14.7408C14.0241 14.0131 13.1972 13.6601 12.4695 13.9524C11.7418 14.2446 11.3888 15.0715 11.6811 15.7992C13.7543 20.9614 15.6329 24.537 17.9296 27.2367C20.2529 29.9676 22.9304 31.7169 26.4439 33.3561C27.1546 33.6876 27.9995 33.3803 28.331 32.6696Z"
		fill="#2E2A42"
	/>
	<path
		d="M17.3473 12.3048C16.4445 13.0557 15.9769 13.5837 15.3123 15.0079C14.9402 15.8053 14.9696 16.7183 15.3311 17.5093C15.409 17.6796 15.2907 17.8883 15.1034 17.8864C13.5659 17.8703 12.1485 17.0232 11.1608 15.8447C10.2779 14.7912 9.35738 13.7731 8.8757 12.4807C7.99626 10.1211 7.96276 7.74999 10.5118 6.22183C12.6344 4.94938 12.0908 9.31498 13.3727 11.248C13.572 11.5486 13.9813 11.5357 14.2779 11.3304C15.4223 10.5384 16.6467 10.432 17.4636 10.9905C17.9223 11.3041 17.7744 11.9495 17.3473 12.3048Z"
		fill="#2E2A42"
	/>
	<path
		clip-rule="evenodd"
		d="M73.2452 41.5706C72.9136 42.2813 73.2209 43.1261 73.9316 43.4577C77.2222 44.9929 79.5126 46.5268 81.4836 48.8437C83.4812 51.1918 85.2234 54.4287 87.2598 59.4994C87.5521 60.2271 88.3789 60.5801 89.1066 60.2878C89.8343 59.9956 90.1873 59.1688 89.8951 58.4411C87.8218 53.2788 85.9433 49.7032 83.6466 47.0036C81.3233 44.2726 78.6458 42.5234 75.1322 40.8842C74.4216 40.5526 73.5767 40.8599 73.2452 41.5706Z"
		fill="#2E2A42"
	/>
	<path
		d="M84.2302 61.939C85.1329 61.1881 85.6006 60.6601 86.2652 59.2359C86.6373 58.4385 86.6079 57.5256 86.2463 56.7346C86.1685 56.5642 86.2867 56.3555 86.474 56.3574C88.0116 56.3735 89.429 57.2206 90.4167 58.3991C91.2996 59.4526 92.2201 60.4707 92.7018 61.7631C93.5812 64.1227 93.6147 66.4938 91.0656 68.022C88.9431 69.2944 89.4867 64.9288 88.2048 62.9958C88.0054 62.6952 87.5962 62.7081 87.2996 62.9134C86.1552 63.7054 84.9308 63.8118 84.1139 63.2533C83.6552 62.9397 83.8031 62.2943 84.2302 61.939Z"
		fill="#2E2A42"
	/>
	<path
		clip-rule="evenodd"
		d="M45.6354 81.5504C46.3219 81.9298 47.186 81.6808 47.5654 80.9943L65.7684 48.0562C66.1478 47.3697 65.8989 46.5056 65.2124 46.1262C64.5258 45.7468 63.6617 45.9958 63.2823 46.6823L45.0793 79.6204C44.6999 80.3069 44.9489 81.171 45.6354 81.5504Z"
		fill="#2E2A42"
	/>
	<path
		d="M34.1646 74.7238L46.3417 81.9358C46.6086 82.0939 46.9538 81.9946 47.1022 81.7221C50.0333 76.3383 51.4019 77.1924 42.9626 73.7303C39.4885 72.3051 36.3877 72.5244 34.3457 73.0086C33.4925 73.2109 33.4102 74.277 34.1646 74.7238Z"
		fill="#2E2A42"
	/>
	<path
		d="M53.9329 57.7759C56.8912 60.8737 60.0487 63.1704 64.278 61.8717C69.47 60.2773 71.1385 55.6648 71.05 49.7872C75.4799 49.9585 79.5055 49.455 81.6648 45.4469C84.2405 40.6654 82.1885 36.2107 77.9973 32.0892C81.2714 29.0996 83.7841 25.9144 82.5061 21.5444C80.9814 16.3314 76.3918 14.6009 70.5135 14.6108C70.7443 10.1828 70.296 6.15019 66.3166 3.93706C61.5694 1.29706 57.0862 3.28907 52.9085 7.42558C49.9633 4.11246 46.8132 1.55753 42.4271 2.77672C37.194 4.23152 35.4005 8.79755 35.3317 14.6755C30.9082 14.3857 26.8717 14.78 24.6059 18.7287C21.9025 23.4399 23.8335 27.9489 27.9133 32.1815C24.561 35.0821 21.965 38.1984 23.1254 42.6005C24.5615 48.0479 29.3937 49.8403 35.5892 49.864C35.7557 49.8201 35.9201 49.7726 36.0824 49.7211C35.8047 54.692 35.9866 59.3521 40.4293 61.7076C45.2945 64.2869 49.7925 62.1124 53.9329 57.7759Z"
		fill="url(#paint0_radial_462_1035)"
	/>
	<path
		d="M41.1324 30.6586C43.5442 33.0704 47.4544 33.0704 49.8662 30.6586C52.278 28.2468 52.278 24.3365 49.8662 21.9248C49.079 21.1376 48.1322 20.6073 47.1299 20.334C47.6942 22.4025 47.1639 24.7072 45.5392 26.3319C43.9147 27.9565 41.6101 28.4868 39.5417 27.9227C39.815 28.9248 40.3453 29.8715 41.1324 30.6586Z"
		fill="white"
	/>
	<path
		d="M39.5407 27.9209C41.6093 28.4852 43.9141 27.955 45.5388 26.3303C47.1635 24.7056 47.6937 22.401 47.1295 20.3325C45.0609 19.7682 42.7562 20.2984 41.1315 21.9231C39.5068 23.5478 38.9766 25.8524 39.5407 27.9209Z"
		fill="#2E2A42"
	/>
	<path
		d="M55.7493 30.6586C58.1611 33.0704 62.0714 33.0704 64.4832 30.6586C66.8949 28.2468 66.8949 24.3366 64.4832 21.9248C63.6959 21.1376 62.7491 20.6073 61.7468 20.334C62.3109 22.4025 61.7807 24.7071 60.1561 26.3318C58.5315 27.9563 56.227 28.4866 54.1586 27.9226C54.4319 28.9247 54.9622 29.8715 55.7493 30.6586Z"
		fill="white"
	/>
	<path
		d="M54.1592 27.9209C56.2277 28.4852 58.5325 27.955 60.1572 26.3303C61.7819 24.7056 62.3121 22.401 61.7479 20.3325C59.6794 19.7682 57.3746 20.2984 55.7499 21.9231C54.1252 23.5478 53.595 25.8524 54.1592 27.9209Z"
		fill="#2E2A42"
	/>
	<defs>
		<radialGradient
			id="paint0_radial_462_1035"
			cx="0"
			cy="0"
			r="1"
			gradientUnits="userSpaceOnUse"
			gradientTransform="translate(25.7371 9.4397) rotate(-135.146) scale(68.6735 68.9226)"
		>
			<stop stop-color="#FF93AB" />
			<stop offset="0.826964" stop-color="#FFA552" />
		</radialGradient>
	</defs>
</svg>