<svg width="211" height="166" viewBox="0 0 211 166" fill="none" xmlns="http://www.w3.org/2000/svg">
<path fill-rule="evenodd" clip-rule="evenodd" d="M168.085 157.4C168.934 157.364 169.594 156.647 169.558 155.798L167.937 117.425C167.901 116.576 167.184 115.916 166.334 115.952C165.485 115.988 164.826 116.706 164.862 117.555L166.483 155.928C166.519 156.777 167.236 157.436 168.085 157.4Z" fill="#2E2A42"/>
<path d="M153.877 157.296L168.331 157.296C168.808 157.296 169.193 156.901 169.184 156.425C169.079 150.882 168.604 150.346 159.743 151.791C156.646 152.296 154.369 153.64 152.833 154.935C151.785 155.818 152.506 157.296 153.877 157.296Z" fill="#2E2A42"/>
<path fill-rule="evenodd" clip-rule="evenodd" d="M190.43 143.3C193.513 142.936 196.948 141.106 200.598 137.817C201.23 137.248 201.28 136.275 200.711 135.643C200.142 135.012 199.169 134.961 198.538 135.53C195.121 138.609 192.261 139.985 190.07 140.243C187.988 140.489 186.395 139.748 185.226 138.193C183.997 136.558 183.183 133.929 183.093 130.409C183.003 126.916 183.63 122.677 185.139 117.969C185.398 117.16 184.952 116.294 184.142 116.034C183.333 115.775 182.467 116.221 182.207 117.03C180.617 121.996 179.915 126.583 180.016 130.488C180.116 134.368 181.013 137.71 182.766 140.043C184.579 142.455 187.238 143.676 190.43 143.3Z" fill="#2E2A42"/>
<path d="M207.447 145.76L200.883 135.902C200.557 135.414 199.888 135.301 199.407 135.637C194.785 138.863 194.137 137.759 200.086 144.369C201.944 146.433 204.007 147.601 205.788 148.253C207.344 148.824 208.366 147.14 207.447 145.76Z" fill="#2E2A42"/>
<path d="M173.421 130.359C169.862 134.084 166.062 136.844 160.976 135.282C154.73 133.364 152.722 127.816 152.828 120.747C147.5 120.953 142.659 120.347 140.062 115.526C136.964 109.775 139.431 104.415 144.472 99.4576C140.534 95.8619 137.513 92.0306 139.051 86.7747C140.885 80.5044 146.404 78.4223 153.475 78.434C153.197 73.1087 153.737 68.2593 158.523 65.5975C164.232 62.4222 169.625 64.8172 174.649 69.7916C178.192 65.8061 181.982 62.734 187.259 64.2008C193.553 65.9507 195.709 71.4424 195.792 78.5128C201.114 78.164 205.97 78.639 208.696 83.3891C211.947 89.0559 209.624 94.48 204.717 99.5711C208.749 103.06 211.871 106.809 210.475 112.104C208.748 118.656 202.936 120.811 195.484 120.84C195.283 120.787 195.085 120.73 194.89 120.668C195.224 126.647 195.005 132.253 189.661 135.086C183.81 138.188 178.4 135.574 173.421 130.359Z" fill="url(#paint0_radial_94_1352)"/>
<path d="M160.48 97.8448C163.376 100.756 168.07 100.756 170.966 97.8448C173.862 94.934 173.862 90.2147 170.966 87.3039C170.021 86.3539 168.884 85.7139 167.681 85.384C168.358 87.8806 167.722 90.6621 165.771 92.6229C163.82 94.5837 161.054 95.2236 158.57 94.5428C158.898 95.7523 159.535 96.8949 160.48 97.8448Z" fill="white"/>
<path d="M158.578 94.5358C161.061 95.2168 163.828 94.5769 165.779 92.616C167.73 90.6552 168.366 87.8737 167.689 85.3772C165.205 84.6962 162.438 85.3361 160.487 87.297C158.537 89.2578 157.9 92.0393 158.578 94.5358Z" fill="#2E2A42"/>
<path d="M178.044 97.8448C180.94 100.756 185.635 100.756 188.531 97.8448C191.426 94.934 191.426 90.2147 188.531 87.3039C187.586 86.3539 186.449 85.7139 185.245 85.384C185.923 87.8805 185.286 90.6619 183.336 92.6227C181.385 94.5834 178.618 95.2234 176.135 94.5426C176.463 95.7521 177.099 96.8948 178.044 97.8448Z" fill="white"/>
<path d="M176.142 94.5358C178.625 95.2168 181.392 94.5769 183.343 92.616C185.294 90.6552 185.93 87.8737 185.253 85.3772C182.769 84.6962 180.002 85.3361 178.051 87.297C176.101 89.2578 175.464 92.0393 176.142 94.5358Z" fill="#2E2A42"/>
<path fill-rule="evenodd" clip-rule="evenodd" d="M95.0887 89.7312C95.2017 91.1775 96.4658 92.2583 97.9121 92.1453C104.609 91.6219 109.694 92.007 114.977 93.9438C120.332 95.9067 126.084 99.5334 133.98 105.845C135.113 106.751 136.766 106.567 137.672 105.434C138.578 104.301 138.394 102.648 137.261 101.742C129.222 95.3159 122.942 91.268 116.785 89.0113C110.558 86.7284 104.653 86.3489 97.5028 86.9078C96.0565 87.0208 94.9757 88.2849 95.0887 89.7312Z" fill="#2E2A42"/>
<path d="M130.979 113.396C132.005 110.812 132.39 109.612 132.133 106.323C131.985 104.432 130.817 102.784 129.146 101.886L133.881 99.2739C137.361 101.428 141.668 101.899 144.799 104.534C148.364 107.533 150.576 111.321 147.862 116.102C145.473 120.313 142.145 111.656 138.014 110.336C137.773 110.259 137.528 110.406 137.436 110.642C136.205 113.792 133.665 115.368 131.419 114.551C130.961 114.384 130.799 113.849 130.979 113.396Z" fill="#2E2A42"/>
<path fill-rule="evenodd" clip-rule="evenodd" d="M45.0642 84.6886C45.5589 86.0524 44.8544 87.559 43.4907 88.0537C37.1761 90.3443 32.7047 92.7963 28.6938 96.7431C24.6288 100.743 20.8891 106.423 16.3072 115.433C15.6497 116.727 14.0683 117.242 12.7752 116.584C11.4821 115.927 10.9669 114.345 11.6244 113.052C16.2891 103.879 20.3355 97.5976 25.0091 92.9986C29.7369 88.3463 34.9568 85.561 41.6992 83.1151C43.0629 82.6204 44.5695 83.3249 45.0642 84.6886Z" fill="#2E2A42"/>
<path d="M22.1605 121.07C20.1586 119.141 19.3119 118.207 18.1867 115.106C17.5396 113.323 17.9231 111.339 19.0735 109.831L13.6819 109.409C11.4032 112.808 7.67551 115.017 5.91281 118.71C3.90634 122.914 3.4568 127.278 7.90401 130.511C11.8197 133.357 11.2732 124.1 14.4898 121.19C14.6773 121.02 14.9614 121.053 15.1425 121.229C17.5646 123.59 20.5289 123.976 22.2367 122.303C22.585 121.962 22.5115 121.408 22.1605 121.07Z" fill="#2E2A42"/>
<path fill-rule="evenodd" clip-rule="evenodd" d="M85.3785 156.933C83.9282 156.969 82.7236 155.822 82.6877 154.372L81.0285 87.1681C80.9927 85.7178 82.1394 84.5131 83.5896 84.4773C85.0399 84.4415 86.2446 85.5882 86.2804 87.0384L87.9396 154.242C87.9754 155.692 86.8288 156.897 85.3785 156.933Z" fill="#2E2A42"/>
<path d="M106.714 156.23L85.9881 156.891C84.0012 156.954 82.3564 155.346 82.3574 153.358C82.3618 144.928 82.4644 144.833 88.6518 145.156C98.6305 145.677 104.861 148.53 108.665 151.261C110.986 152.927 109.57 156.138 106.714 156.23Z" fill="#2E2A42"/>
<path fill-rule="evenodd" clip-rule="evenodd" d="M58.3485 156.933C59.7988 156.969 61.0035 155.822 61.0393 154.372L62.6985 87.1681C62.7343 85.7178 61.5877 84.5131 60.1374 84.4773C58.6872 84.4415 57.4825 85.5881 57.4467 87.0384L55.7875 154.242C55.7516 155.692 56.8983 156.897 58.3485 156.933Z" fill="#2E2A42"/>
<path d="M36.9997 156.233L57.3935 156.882C59.5174 156.95 61.2003 155.123 61.1167 153C60.8029 145.028 62.4694 144.791 56.3819 145.109C46.149 145.644 39.3814 148.648 35.2268 151.455C32.8589 153.055 34.1435 156.142 36.9997 156.233Z" fill="#2E2A42"/>
<path d="M72.5967 111.68C66.6664 117.89 60.3333 122.489 51.8551 119.886C41.4462 116.689 38.099 107.443 38.2765 95.6598C29.3965 96.0031 21.3281 94.9939 16.9995 86.9596C11.8351 77.3736 15.9468 68.4411 24.349 60.1782C17.7863 54.1853 12.7516 47.7999 15.3136 39.0399C18.3701 28.5894 27.5696 25.1193 39.3536 25.1388C38.8912 16.2633 39.7909 8.18091 47.7674 3.74471C57.2833 -1.5475 66.27 2.44412 74.6445 10.7348C80.5492 4.09226 86.8666 -1.02791 95.6602 1.41674C106.151 4.33326 109.745 13.4862 109.883 25.2701C118.752 24.6889 126.846 25.4805 131.388 33.3973C136.808 42.842 132.937 51.8821 124.758 60.3673C131.478 66.1821 136.681 72.4305 134.355 81.2554C131.476 92.1757 121.789 95.7677 109.369 95.8153C109.035 95.7272 108.705 95.6317 108.379 95.5283C108.936 105.494 108.572 114.837 99.664 119.559C89.9118 124.729 80.8962 120.372 72.5967 111.68Z" fill="url(#paint1_radial_94_1352)"/>
<path d="M97.9373 39.9671C93.0918 35.1351 85.2357 35.1351 80.3903 39.9671C75.5448 44.7991 75.5448 52.6333 80.3903 57.4652C81.9718 59.0424 83.8741 60.1047 85.8877 60.6523C84.7541 56.5081 85.8194 51.8906 89.0835 48.6356C92.3474 45.3807 96.9774 44.3184 101.133 45.4485C100.584 43.4407 99.5186 41.5441 97.9373 39.9671Z" fill="white"/>
<path d="M101.143 45.4458C96.9866 44.3152 92.3562 45.3775 89.092 48.6326C85.8279 51.8876 84.7626 56.5049 85.8961 60.6491C90.052 61.7797 94.6825 60.7174 97.9467 57.4623C101.211 54.2073 102.276 49.59 101.143 45.4458Z" fill="#2E2A42"/>
<path d="M68.5753 39.9669C63.7299 35.1349 55.8738 35.1349 51.0283 39.9669C46.1829 44.7989 46.1829 52.6331 51.0283 57.465C52.6099 59.0421 54.5121 60.1045 56.5257 60.6521C55.3922 56.5079 56.4575 51.8907 59.7216 48.6357C62.9855 45.3809 67.6155 44.3185 71.7712 45.4487C71.2221 43.4408 70.1568 41.5439 68.5753 39.9669Z" fill="white"/>
<path d="M71.781 45.4455C67.6251 44.315 62.9946 45.3772 59.7304 48.6324C56.4663 51.8873 55.401 56.5047 56.5345 60.6489C60.6905 61.7795 65.3209 60.7172 68.5851 57.4621C71.8492 54.2071 72.9145 49.5898 71.781 45.4455Z" fill="#2E2A42"/>
<defs>
<radialGradient id="paint0_radial_94_1352" cx="0" cy="0" r="1" gradientUnits="userSpaceOnUse" gradientTransform="translate(143.43 128.854) rotate(132.813) scale(82.2235 82.4675)">
<stop stop-color="#FF93AB"/>
<stop offset="0.591364" stop-color="#FF914D"/>
<stop offset="0.788485" stop-color="#FFA552"/>
</radialGradient>
<radialGradient id="paint1_radial_94_1352" cx="0" cy="0" r="1" gradientUnits="userSpaceOnUse" gradientTransform="translate(22.6123 109.173) rotate(132.813) scale(137.039 137.446)">
<stop stop-color="#FF93AB"/>
<stop offset="0.591364" stop-color="#FF914D"/>
<stop offset="0.788485" stop-color="#FFA552"/>
</radialGradient>
</defs>
</svg>
