<svg width="55" height="41" viewBox="0 0 55 41" fill="none" xmlns="http://www.w3.org/2000/svg">
<path d="M14.3451 3.45443C13.3446 3.42901 12.7143 2.12459 13.6152 1.68835C18.7987 -0.822142 22.18 2.37134 26.1185 1.44829C26.7787 1.29358 27.4993 1.74322 27.4993 2.42135V6.72498C27.4993 7.21821 27.1068 7.62665 26.6136 7.61821C20.3292 7.51094 18.9713 3.57225 14.3451 3.45443Z" fill="url(#paint0_linear_368_4127)"/>
<path d="M49.3319 27.4558L32.8067 29.6931C32.8067 18.6111 32.8067 10.7853 27.2815 2.20527C26.8682 1.44602 28.2559 1.75948 27.8079 0.953613C42.1798 7.62997 48.0639 15.6771 49.3319 27.4558Z" fill="url(#paint1_linear_368_4127)"/>
<path d="M27.2009 29.9842V11.3711C21.9799 16.0785 15.5567 25.3564 13.2847 31.4628L27.2009 29.9842Z" fill="url(#paint2_linear_368_4127)"/>
<path fill-rule="evenodd" clip-rule="evenodd" d="M27.4992 0.537598C28.006 0.537598 28.4168 0.948424 28.4168 1.45523V29.3675C28.4168 29.8743 28.006 30.2851 27.4992 30.2851C26.9924 30.2851 26.5815 29.8743 26.5815 29.3675V1.45523C26.5815 0.948424 26.9924 0.537598 27.4992 0.537598Z" fill="#2E2A42"/>
<path fill-rule="evenodd" clip-rule="evenodd" d="M7.12643 31.2926C6.20249 31.4017 5.50635 32.1849 5.50635 33.1152V34.1885C5.50635 37.2293 7.9714 39.6943 11.0122 39.6943H13.727L16.6521 37.0802L20.0161 39.6943H24.6085L27.6215 36.934L30.9561 39.6943H34.9411C35.1727 39.6943 35.4046 39.6916 35.6364 39.6855L38.2105 36.934L40.77 38.6193C45.8256 36.3791 49.5459 32.0969 50.9381 27.315C51.1127 26.7148 50.6031 26.1593 49.9825 26.2326L7.12643 31.2926Z" fill="url(#paint3_linear_368_4127)"/>
<path fill-rule="evenodd" clip-rule="evenodd" d="M38.1329 35.3472C38.4933 35.3472 38.8203 35.5581 38.9689 35.8864C39.7414 37.5929 41.4581 38.7772 43.4493 38.7772C45.4407 38.7772 47.1574 37.5929 47.9299 35.8864C48.0784 35.5581 48.4055 35.3472 48.7658 35.3472C49.1262 35.3472 49.4533 35.5581 49.6018 35.8864C50.3743 37.5929 52.091 38.7772 54.0824 38.7772C54.5891 38.7772 55 39.188 55 39.6948C55 40.2017 54.5891 40.6125 54.0824 40.6125C51.9225 40.6125 50.0009 39.5982 48.7658 38.022C47.5308 39.5982 45.6092 40.6125 43.4493 40.6125C41.2896 40.6125 39.368 39.5982 38.1329 38.022C36.8979 39.5982 34.9762 40.6125 32.8164 40.6125C30.6567 40.6125 28.735 39.5982 27.5 38.022C26.2649 39.5982 24.3432 40.6125 22.1835 40.6125C20.0237 40.6125 18.1021 39.5982 16.8671 38.022C15.632 39.5982 13.7103 40.6125 11.5505 40.6125C9.39079 40.6125 7.46917 39.5982 6.2341 38.022C4.99905 39.5982 3.0774 40.6125 0.917637 40.6125C0.410835 40.6125 0 40.2017 0 39.6948C0 39.188 0.410835 38.7772 0.917637 38.7772C2.90895 38.7772 4.62563 37.5929 5.39813 35.8864C5.54674 35.5581 5.87374 35.3472 6.2341 35.3472C6.59447 35.3472 6.92147 35.5581 7.07008 35.8864C7.84255 37.5929 9.55927 38.7772 11.5505 38.7772C13.5419 38.7772 15.2585 37.5929 16.0311 35.8864C16.1797 35.5581 16.5067 35.3472 16.8671 35.3472C17.2274 35.3472 17.5544 35.5581 17.703 35.8864C18.4755 37.5929 20.1922 38.7772 22.1835 38.7772C24.1748 38.7772 25.8915 37.5929 26.664 35.8864C26.8126 35.5581 27.1396 35.3472 27.5 35.3472C27.8603 35.3472 28.1874 35.5581 28.336 35.8864C29.1084 37.5929 30.8251 38.7772 32.8164 38.7772C34.8078 38.7772 36.5245 37.5929 37.297 35.8864C37.4455 35.5581 37.7726 35.3472 38.1329 35.3472Z" fill="#2E2A42"/>
<defs>
<linearGradient id="paint0_linear_368_4127" x1="20.3404" y1="0.703631" x2="18.6135" y2="9.96213" gradientUnits="userSpaceOnUse">
<stop offset="0.400572" stop-color="#FF93AB"/>
<stop offset="1" stop-color="#FDB154"/>
</linearGradient>
<linearGradient id="paint1_linear_368_4127" x1="29.9662" y1="11.1107" x2="26.7144" y2="35.1091" gradientUnits="userSpaceOnUse">
<stop stop-color="#AFDDFF"/>
<stop offset="1" stop-color="#917BFF"/>
</linearGradient>
<linearGradient id="paint2_linear_368_4127" x1="29.9657" y1="11.1106" x2="26.7138" y2="35.109" gradientUnits="userSpaceOnUse">
<stop stop-color="#AFDDFF"/>
<stop offset="1" stop-color="#917BFF"/>
</linearGradient>
<linearGradient id="paint3_linear_368_4127" x1="48.2501" y1="34.254" x2="16.1799" y2="50.7119" gradientUnits="userSpaceOnUse">
<stop stop-color="#FFE079"/>
<stop offset="0.863066" stop-color="#FEB85A"/>
</linearGradient>
</defs>
</svg>
