<svg width="137" height="158" viewBox="0 0 137 158" fill="none" xmlns="http://www.w3.org/2000/svg">
<path fill-rule="evenodd" clip-rule="evenodd" d="M98.8256 157.082C99.6957 157.05 100.367 156.837 100.335 155.967L98.8143 115.117C98.782 114.247 98.0503 113.568 97.1803 113.6C96.3102 113.632 95.6311 114.364 95.6634 115.234L97.1838 156.084C97.2162 156.954 97.9555 157.114 98.8256 157.082Z" fill="#2E2A42"/>
<path d="M85.8414 157.476L99.2334 157.258C99.8139 157.249 100.266 156.75 100.243 156.17C99.9869 149.933 101.45 149.98 91.8402 151.547C88.6642 152.065 86.2808 153.394 84.6171 154.724C83.3358 155.748 84.2012 157.503 85.8414 157.476Z" fill="#2E2A42"/>
<path fill-rule="evenodd" clip-rule="evenodd" d="M115.27 157.082C114.4 157.05 113.728 156.837 113.761 155.967L115.281 115.117C115.314 114.247 116.045 113.568 116.915 113.6C117.785 113.632 118.464 114.364 118.432 115.234L116.912 156.084C116.879 156.954 116.14 157.114 115.27 157.082Z" fill="#2E2A42"/>
<path d="M128.24 157.476L114.848 157.258C114.268 157.249 113.816 156.75 113.839 156.17C114.095 149.933 112.631 149.98 122.242 151.547C125.418 152.065 127.801 153.394 129.465 154.724C130.746 155.748 129.881 157.503 128.24 157.476Z" fill="#2E2A42"/>
<path d="M101.825 63.8867C93.0147 62.7065 83.7805 65.1166 80.3239 73.9868C75.0953 87.4287 90.4317 93.7521 92.4158 105.02C94.1379 114.859 84.4419 128.574 95.8973 134.388C109.512 141.283 125.484 127.841 128.904 114.934C133.521 97.4294 121.678 66.5701 101.825 63.8991V63.8867Z" fill="#62D09E"/>
<path d="M93.8624 89.3646C95.5665 89.8257 97.4653 89.3924 98.8038 88.0648C100.142 86.7372 100.579 84.854 100.114 83.1637C100.94 83.3871 101.72 83.8203 102.368 84.4635C104.355 86.4343 104.355 89.6295 102.368 91.6003C100.381 93.5711 97.1598 93.5711 95.1729 91.6003C94.5244 90.9571 94.0876 90.1835 93.8624 89.3646Z" fill="white"/>
<path d="M93.8344 89.3724C95.5386 89.8335 97.4374 89.4003 98.7759 88.0726C100.114 86.7451 100.551 84.8619 100.086 83.1717C98.3823 82.7106 96.4835 83.1438 95.145 84.4714C93.8065 85.799 93.3697 87.6822 93.8344 89.3724Z" fill="#2E2A42"/>
<path d="M107.2 91.6003C109.187 93.5711 112.409 93.5711 114.396 91.6003C116.383 89.6295 116.383 86.4343 114.396 84.4635C113.747 83.8201 112.967 83.3867 112.141 83.1634C112.606 84.8538 112.169 86.7371 110.831 88.0648C109.492 89.3922 107.594 89.8255 105.89 89.3648C106.115 90.1836 106.552 90.9572 107.2 91.6003Z" fill="white"/>
<path d="M105.894 89.3724C107.598 89.8335 109.497 89.4003 110.835 88.0726C112.174 86.7451 112.611 84.8619 112.146 83.1717C110.442 82.7106 108.543 83.1438 107.204 84.4714C105.866 85.799 105.429 87.6822 105.894 89.3724Z" fill="#2E2A42"/>
<path fill-rule="evenodd" clip-rule="evenodd" d="M79.1945 51.9598C80.4333 51.4925 81.8162 52.118 82.2835 53.3567C82.857 54.8774 83.5126 56.5652 84.2106 58.3624C87.2184 66.1065 91.0147 75.8809 92.4389 83.0576C92.6966 84.3562 91.8527 85.6179 90.5541 85.8756C89.2555 86.1333 87.9939 85.2895 87.7362 83.9909C86.4037 77.276 82.8306 68.0665 79.8261 60.3226C79.1041 58.4617 78.415 56.6854 77.7976 55.0487C77.3304 53.81 77.9558 52.427 79.1945 51.9598Z" fill="#2E2A42"/>
<path fill-rule="evenodd" clip-rule="evenodd" d="M20.407 46.5102C19.2783 45.8181 17.8024 46.1721 17.1103 47.3007C16.2608 48.6862 15.2992 50.2205 14.2754 51.8542C9.86373 58.8938 4.2955 67.7788 1.54591 74.5592C1.04838 75.7861 1.63964 77.184 2.86653 77.6815C4.09341 78.1791 5.49132 77.5878 5.98884 76.3609C8.56148 70.0169 13.8042 61.6446 18.2126 54.6047C19.2719 52.9129 20.2831 51.2981 21.1975 49.8068C21.8896 48.6782 21.5356 47.2022 20.407 46.5102Z" fill="#2E2A42"/>
<path fill-rule="evenodd" clip-rule="evenodd" d="M64.859 156.361C63.4088 156.307 62.2898 155.953 62.3438 154.503L64.8778 86.4185C64.9318 84.9685 66.1511 83.8368 67.6013 83.8907C69.0514 83.9445 70.1833 85.1636 70.1293 86.6136L67.5953 154.698C67.5413 156.148 66.3091 156.415 64.859 156.361Z" fill="#2E2A42"/>
<path d="M86.511 157.005L64.1908 156.642C63.2235 156.626 62.4695 155.794 62.5091 154.828C62.9351 144.432 60.496 144.511 76.513 147.123C81.8063 147.987 85.7786 150.201 88.5514 152.417C90.687 154.124 89.2446 157.049 86.511 157.005Z" fill="#2E2A42"/>
<path fill-rule="evenodd" clip-rule="evenodd" d="M37.5058 156.361C38.956 156.307 40.0749 155.953 40.0209 154.503L37.4869 86.4185C37.433 84.9685 36.2136 83.8368 34.7635 83.8907C33.3133 83.9445 32.1815 85.1636 32.2354 86.6136L34.7694 154.698C34.8234 156.148 36.0556 156.415 37.5058 156.361Z" fill="#2E2A42"/>
<path d="M15.8676 157.005L38.1877 156.642C39.1551 156.626 39.9091 155.794 39.8695 154.828C39.4435 144.432 41.8826 144.511 25.8656 147.123C20.5723 147.987 16.5999 150.201 13.8271 152.417C11.6916 154.124 13.134 157.049 15.8676 157.005Z" fill="#2E2A42"/>
<path d="M59.9207 1.04894C74.604 -0.91807 89.9944 3.09876 95.7554 17.8824C104.47 40.2855 78.9091 50.8246 75.6022 69.6043C72.7321 86.0029 88.8921 108.862 69.7997 118.552C47.1092 130.043 20.4879 107.64 14.7892 86.1272C7.09401 56.9533 26.8312 5.52129 59.9207 1.06965V1.04894Z" fill="#62D09E"/>
<path d="M73.0896 39.0324C70.2577 38.2617 67.1024 38.9859 64.8781 41.2051C62.6539 43.4243 61.928 46.5722 62.7004 49.3976C61.3285 49.0242 60.0324 48.3 58.9549 47.2249C55.6531 43.9307 55.6531 38.5896 58.9549 35.2953C62.2567 32.001 67.61 32.001 70.9119 35.2953C71.9895 36.3704 72.7154 37.6636 73.0896 39.0324Z" fill="white"/>
<path d="M73.0808 39.0302C70.2488 38.2595 67.0935 38.9837 64.8692 41.2029C62.645 43.422 61.9191 46.5698 62.6914 49.3952C65.5234 50.166 68.6787 49.4417 70.903 47.2225C73.1271 45.0034 73.8531 41.8556 73.0808 39.0302Z" fill="#2E2A42"/>
<path d="M50.8967 35.2952C47.5949 32.001 42.2416 32.001 38.9398 35.2952C35.6379 38.5895 35.6379 43.9306 38.9398 47.2249C40.0177 48.3004 41.3142 49.0247 42.6867 49.398C41.9141 46.5725 42.64 43.4243 44.8643 41.2051C47.0882 38.9862 50.2428 38.2619 53.0744 39.032C52.7001 37.6633 51.9742 36.3703 50.8967 35.2952Z" fill="white"/>
<path d="M53.0666 39.0302C50.2346 38.2595 47.0793 38.9837 44.855 41.2029C42.6309 43.422 41.9049 46.5698 42.6772 49.3952C45.5092 50.166 48.6645 49.4417 50.8888 47.2225C53.113 45.0034 53.8389 41.8556 53.0666 39.0302Z" fill="#2E2A42"/>
<path fill-rule="evenodd" clip-rule="evenodd" d="M83.3435 61.9465C84.6183 61.589 85.9414 62.3326 86.2989 63.6074C86.4834 64.2653 91.0171 77.5876 91.181 78.1674C91.5887 79.6093 91.9282 80.8101 92.1766 81.7716C92.4943 83.0013 92.7869 84.261 92.7166 85.2507C92.6781 85.7922 92.5034 86.7295 91.685 87.4415C90.8607 88.1587 89.9078 88.1918 89.3875 88.1528C88.8548 88.1129 88.3355 87.9655 87.9309 87.8351C87.5012 87.6967 87.0203 87.5161 86.5343 87.3314C86.4428 87.2966 86.3488 87.2608 86.2525 87.2241C82.385 85.7494 59.739 81.8205 46.0501 83.7756C44.7395 83.9628 43.5252 83.0521 43.3381 81.7415C43.1509 80.4309 44.0616 79.2166 45.3722 79.0295C59.6113 76.9958 83.0237 80.8801 87.4215 82.5398C87.202 81.7159 86.9232 80.7302 86.5855 79.5355C86.4185 78.945 81.8784 65.6001 81.6826 64.9019C81.3252 63.6271 82.0688 62.3039 83.3435 61.9465Z" fill="#2E2A42"/>
<path d="M61.0218 70.8764C60.7893 73.033 60.8457 74.814 61.2872 76.4684C61.7829 78.3259 63.786 79.1834 65.6822 78.8662L62.9023 83.6592C58.1965 85.0015 37.795 89.5726 39.9018 82.2998C41.1866 77.8648 49.9048 77.2105 54.6675 76.9756C55.2757 76.9457 55.7615 76.4735 55.8666 75.8737C56.3971 72.8462 57.9669 69.9261 59.9436 69.5377C60.658 69.3973 61.0998 70.1525 61.0218 70.8764Z" fill="#2E2A42"/>
<path fill-rule="evenodd" clip-rule="evenodd" d="M7.78427 67.2049C6.59959 66.6139 5.1601 67.0952 4.56909 68.2799C4.26406 68.8913 3.97575 69.4661 3.70558 70.0047C3.03382 71.3441 2.47432 72.4596 2.04943 73.357C1.50597 74.505 0.981427 75.6871 0.864186 76.6724C0.80005 77.2114 0.795256 78.1649 1.46497 79.0181C2.13959 79.8777 3.06924 80.0896 3.58756 80.1492C4.11818 80.2103 4.65599 80.1632 5.07792 80.1114C5.52595 80.0563 6.03232 79.9695 6.54439 79.8795C6.64082 79.8626 6.73979 79.8451 6.8413 79.8271C10.9172 79.1068 33.898 79.5108 46.9742 84.0076C48.2262 84.4381 49.5901 83.7722 50.0207 82.5203C50.4512 81.2683 49.7853 79.9044 48.5333 79.4738C34.9315 74.7963 11.2065 74.2044 6.57496 75.0066C6.94562 74.2388 7.40489 73.3231 7.9615 72.2134C8.23661 71.6649 8.53549 71.069 8.8592 70.4201C9.45022 69.2354 8.96895 67.7959 7.78427 67.2049Z" fill="#2E2A42"/>
<path d="M41.8661 69.715C41.6885 71.8769 41.298 73.6154 40.5529 75.1571C39.7164 76.888 37.5877 77.3532 35.7852 76.6848L37.6132 81.9153C41.9822 84.1194 61.1586 92.4489 60.4584 84.9096C60.0314 80.312 51.5921 78.0284 46.9588 76.9013C46.3671 76.7573 45.9789 76.2022 45.9885 75.5934C46.0374 72.5201 45.0453 69.3568 43.1771 68.6032C42.5019 68.3308 41.9257 68.9893 41.8661 69.715Z" fill="#2E2A42"/>
</svg>
