<svg width="214" height="168" viewBox="0 0 214 168" fill="none" xmlns="http://www.w3.org/2000/svg">
<path fill-rule="evenodd" clip-rule="evenodd" d="M103.052 69.5406C102.911 68.0965 101.625 67.0408 100.181 67.1826C97.911 67.4054 94.8179 66.5071 91.1783 64.4081C87.6079 62.349 83.8241 59.3146 80.2858 55.7735C76.7533 52.2383 73.5305 48.2632 71.058 44.3758C68.5628 40.4526 66.9358 36.7817 66.4128 33.8386C66.1589 32.41 64.7949 31.4576 63.3662 31.7115C61.9376 31.9654 60.9852 33.3294 61.2391 34.7581C61.9316 38.6545 63.9502 42.9917 66.6241 47.1958C69.3208 51.4357 72.7909 55.707 76.5687 59.4877C80.3407 63.2626 84.4846 66.6137 88.5531 68.9601C92.5524 71.2665 96.8092 72.7936 100.694 72.4121C102.138 72.2704 103.194 70.9847 103.052 69.5406Z" fill="#2E2A42"/>
<path d="M64.471 11.5032C65.8387 11.5034 66.9476 12.6121 66.9476 13.9798V22.5999C68.1297 21.9292 69.6331 22.3368 70.3138 23.5159C70.9976 24.7005 70.5921 26.2149 69.4076 26.8987L67.554 27.9681L67.5609 27.9896C66.1329 28.8038 65.4424 30.4858 65.8861 32.0687L66.4124 33.9446L62.8822 39.9964L60.6722 33.8021C60.4351 33.1373 59.8017 32.7137 59.1048 32.6019C56.6605 32.2096 54.8029 30.5706 53.9749 27.9925C53.9337 27.9162 53.8954 27.8372 53.8617 27.7552L52.7025 24.9398C52.1817 23.675 52.7853 22.2271 54.0501 21.7064C54.289 21.608 54.5343 21.5489 54.7787 21.5276C54.8054 20.5175 55.4529 19.5996 56.4408 19.2571L55.4798 15.6683C55.1258 14.3471 55.9096 12.9881 57.2308 12.6341C58.552 12.2801 59.91 13.0648 60.264 14.386L61.5843 19.3118C61.6475 19.5475 61.9943 19.502 61.9945 19.2581V13.9798C61.9945 12.612 63.1032 11.5032 64.471 11.5032Z" fill="#2E2A42"/>
<path fill-rule="evenodd" clip-rule="evenodd" d="M178.689 70.4744C179.12 69.0887 180.592 68.3143 181.978 68.7449C200.359 74.4555 207.878 89.4234 205.432 100.489C204.194 106.09 200.324 110.658 194.153 111.859C188.152 113.027 180.594 110.888 171.967 104.701C170.788 103.856 170.518 102.214 171.363 101.035C172.209 99.8559 173.85 99.5856 175.03 100.431C183.078 106.204 189.157 107.478 193.149 106.701C196.969 105.958 199.446 103.224 200.301 99.3548C202.042 91.4796 196.736 78.8324 180.419 73.763C179.033 73.3325 178.259 71.8601 178.689 70.4744Z" fill="#2E2A42"/>
<path d="M159.17 153.574L159.419 133.171C159.445 131.046 157.585 129.399 155.464 129.525C147.5 129.995 147.23 128.333 147.668 134.413C148.403 144.634 151.54 151.341 154.428 155.44C156.074 157.776 159.135 156.431 159.17 153.574Z" fill="#2E2A42"/>
<path fill-rule="evenodd" clip-rule="evenodd" d="M120.183 120.425C118.407 124.851 121.666 129.671 126.436 129.671L153.861 129.671C155.312 129.671 156.489 130.847 156.489 132.298C156.489 133.749 155.312 134.925 153.861 134.925L126.436 134.925C117.946 134.925 112.145 126.346 115.307 118.468L127.967 86.9163C128.508 85.5697 130.037 84.916 131.384 85.4564C132.731 85.9968 133.384 87.5266 132.844 88.8732L120.183 120.425Z" fill="#2E2A42"/>
<path d="M105.558 156.15L125.96 156.399C128.085 156.425 129.732 154.566 129.607 152.444C129.137 144.481 130.798 144.211 124.718 144.648C114.498 145.384 107.79 148.52 103.691 151.408C101.355 153.054 102.7 156.115 105.558 156.15Z" fill="#2E2A42"/>
<path fill-rule="evenodd" clip-rule="evenodd" d="M126.292 155.839C127.682 156.254 129.146 155.464 129.561 154.074L148.654 90.1677C149.069 88.7774 148.279 87.3136 146.889 86.8982C145.498 86.4828 144.035 87.2732 143.619 88.6635L124.526 152.57C124.111 153.96 124.901 155.424 126.292 155.839Z" fill="#2E2A42"/>
<path d="M111.308 3.9542L131.237 34.8883L143.21 0.659668C145.029 5.04333 153.524 31.4254 153.524 31.4254L192.203 14.3511L172.833 45.1569C184.267 47.2586 199.239 51.1418 210.432 54.2845C199.199 56.106 185.106 59.2886 173.973 61.6906L213.85 84.5297C199.818 82.9884 183.527 80.8867 169.415 80.5263L175.092 117.037L155.143 91.9359L142.61 123.863L128.878 91.9359L97.6154 114.735L109.009 77.1035L74.8282 78.2244C80.485 73.3203 95.5593 64.0302 102.056 59.2662L70.2708 34.8883L111.288 39.5665C111.288 29.6783 111.408 18.4458 111.308 8.55754V3.9542Z" fill="#FF93AB"/>
<path d="M118.86 54.4924C121.844 53.6801 125.168 54.4434 127.512 56.7823C129.855 59.1211 130.62 62.4388 129.806 65.4166C131.252 65.0231 132.617 64.2598 133.753 63.1267C137.232 59.6548 137.232 54.0256 133.753 50.5537C130.274 47.0817 124.633 47.0817 121.154 50.5537C120.019 51.6868 119.254 53.0497 118.86 54.4924Z" fill="white"/>
<path d="M118.855 54.4889C121.838 53.6765 125.163 54.4397 127.507 56.7787C129.85 59.1174 130.615 62.4349 129.802 65.4126C126.818 66.225 123.493 65.4618 121.149 63.1228C118.806 60.7841 118.041 57.4666 118.855 54.4889Z" fill="#2E2A42"/>
<path d="M142.238 50.5537C145.717 47.0817 151.358 47.0817 154.837 50.5537C158.316 54.0256 158.316 59.6548 154.837 63.1267C153.701 64.2599 152.336 65.0232 150.89 65.4167C151.704 62.4389 150.939 59.1211 148.595 56.7822C146.252 54.4434 142.928 53.6801 139.944 54.4922C140.338 53.0496 141.103 51.6868 142.238 50.5537Z" fill="white"/>
<path d="M139.94 54.4889C142.923 53.6765 146.248 54.4397 148.592 56.7787C150.935 59.1174 151.7 62.4348 150.887 65.4125C147.903 66.225 144.578 65.4617 142.234 63.1227C139.891 60.784 139.126 57.4666 139.94 54.4889Z" fill="#2E2A42"/>
<path d="M176.04 107.346L179.587 103.504C171.527 97.2638 163.53 95.8456 160.58 101.387C156.893 108.314 164.171 113.118 168.455 112.58C171.041 112.256 171.254 109.293 170.904 106.725C170.785 105.854 171.714 105.14 172.486 105.559L176.04 107.346Z" fill="#2E2A42"/>
<path fill-rule="evenodd" clip-rule="evenodd" d="M37.1534 156.545C38.0025 156.509 38.6618 155.792 38.626 154.943L37.005 116.57C36.9691 115.721 36.2517 115.061 35.4025 115.097C34.5534 115.133 33.8941 115.851 33.93 116.7L35.5509 155.073C35.5868 155.922 36.3043 156.581 37.1534 156.545Z" fill="#2E2A42"/>
<path d="M22.9143 156.436L37.3682 156.436C37.845 156.436 38.2303 156.042 38.2213 155.565C38.1163 150.022 37.6407 149.486 28.7795 150.931C25.6826 151.437 23.4062 152.781 21.8703 154.075C20.8217 154.958 21.5431 156.436 22.9143 156.436Z" fill="#2E2A42"/>
<path fill-rule="evenodd" clip-rule="evenodd" d="M59.4687 142.435C62.5514 142.071 65.9865 140.241 69.6368 136.952C70.2681 136.383 70.3187 135.41 69.7498 134.779C69.1809 134.147 68.2078 134.097 67.5765 134.666C64.1595 137.745 61.2994 139.12 59.1082 139.378C57.0266 139.624 55.4332 138.883 54.2646 137.329C53.0358 135.693 52.2219 133.064 52.1312 129.544C52.0411 126.051 52.6691 121.812 54.1771 117.105C54.4364 116.295 53.9904 115.429 53.1811 115.17C52.3717 114.91 51.5054 115.356 51.2461 116.166C49.6552 121.132 48.9537 125.718 49.0544 129.624C49.1545 133.503 50.0515 136.846 51.8043 139.178C53.6175 141.59 56.2765 142.811 59.4687 142.435Z" fill="#2E2A42"/>
<path d="M76.4853 144.899L69.9211 135.041C69.5959 134.553 68.9261 134.44 68.4451 134.775C63.8237 138.002 63.1753 136.898 69.1243 143.508C70.9823 145.572 73.0459 146.74 74.8262 147.392C76.3829 147.962 77.4041 146.279 76.4853 144.899Z" fill="#2E2A42"/>
<path d="M24.6176 67.912L36.5749 86.4725L43.7589 65.9353C44.8502 68.5655 49.9474 84.3947 49.9474 84.3947L73.1544 74.1502L61.5329 92.6336C68.3931 93.8947 77.3761 96.2246 84.0923 98.1102C77.3521 99.2031 68.8968 101.113 62.2165 102.554L86.1431 116.257C77.7239 115.333 67.9493 114.071 59.4821 113.855L62.8882 135.762L50.9189 120.701L43.3991 139.857L35.1597 120.701L16.4022 134.38L23.2383 111.802L2.72983 112.474C6.12393 109.532 15.1685 103.958 19.0663 101.099L-0.00463867 86.4725L24.6056 89.2794C24.6056 83.3465 24.6775 76.607 24.6176 70.674V67.912Z" fill="#FF93AB"/>
<path d="M51.4818 103.62C49.4018 105.71 46.0293 105.71 43.9492 103.62C41.8691 101.531 41.8691 98.1427 43.9492 96.0531C44.6281 95.3711 45.4448 94.9117 46.3092 94.6749C45.8225 96.4671 46.2798 98.4639 47.6811 99.8715C49.0822 101.279 51.0698 101.738 52.8537 101.25C52.618 102.118 52.1607 102.938 51.4818 103.62Z" fill="white"/>
<path d="M52.8533 101.246C51.0692 101.735 49.0814 101.275 47.6802 99.8678C46.279 98.4602 45.8217 96.4634 46.3083 94.6713C48.0923 94.1823 50.0801 94.6417 51.4814 96.0494C52.8826 97.457 53.3399 99.4538 52.8533 101.246Z" fill="#2E2A42"/>
<path d="M38.8556 103.62C36.7755 105.71 33.4031 105.71 31.323 103.62C29.2429 101.531 29.2429 98.1427 31.323 96.0531C32.0019 95.3711 32.8186 94.9117 33.683 94.6749C33.1964 96.467 33.6538 98.4638 35.055 99.8714C36.4561 101.279 38.4436 101.738 40.2275 101.25C39.9918 102.118 39.5345 102.938 38.8556 103.62Z" fill="white"/>
<path d="M40.2283 101.246C38.4442 101.735 36.4564 101.275 35.0552 99.8678C33.654 98.4602 33.1967 96.4634 33.6833 94.6713C35.4673 94.1823 37.4551 94.6417 38.8564 96.0494C40.2576 97.457 40.7149 99.4538 40.2283 101.246Z" fill="#2E2A42"/>
</svg>
