<svg width="342" height="170" viewBox="0 0 342 170" fill="none" xmlns="http://www.w3.org/2000/svg">
<g filter="url(#filter0_diii_239_1499)">
<path d="M314.852 8.08008H27.1469C16.5799 8.08008 8.01367 16.6463 8.01367 27.2133V141.896C8.01367 152.463 16.5799 161.029 27.1469 161.029H314.852C325.419 161.029 333.986 152.463 333.986 141.896V27.2133C333.986 16.6463 325.419 8.08008 314.852 8.08008Z" fill="#F9F5F1"/>
</g>
<path d="M32.2246 101.019V102.104H27.6441V105.171H31.3674V106.256H27.6441V110.421H26.4387V101.019H32.2246ZM38.9112 107.368H34.0896C34.2235 108.854 35.1209 109.47 36.2057 109.47C37.0227 109.47 37.612 109.109 38.0138 108.386L38.8576 108.948C38.2281 110.046 37.1968 110.542 36.112 110.542C34.4378 110.542 32.9646 109.43 32.9646 107.046C32.9646 104.662 34.5048 103.484 36.0986 103.484C37.5451 103.484 38.9112 104.394 38.9112 106.618V107.368ZM34.103 106.511H37.7861C37.7861 105.118 37.0227 104.502 36.0852 104.502C35.1209 104.502 34.2637 105.158 34.103 106.511ZM46.1179 107.368H41.2963C41.4303 108.854 42.3276 109.47 43.4125 109.47C44.2295 109.47 44.8188 109.109 45.2206 108.386L46.0643 108.948C45.4349 110.046 44.4036 110.542 43.3187 110.542C41.6446 110.542 40.1713 109.43 40.1713 107.046C40.1713 104.662 41.7115 103.484 43.3053 103.484C44.7518 103.484 46.1179 104.394 46.1179 106.618V107.368ZM41.3097 106.511H44.9929C44.9929 105.118 44.2295 104.502 43.2919 104.502C42.3276 104.502 41.4704 105.158 41.3097 106.511ZM53.713 100.818V110.421H52.7889L52.521 109.27C52.0925 110.194 51.1951 110.542 50.2978 110.542C48.2486 110.542 47.378 108.801 47.378 107.006C47.378 105.104 48.3691 103.484 50.2844 103.484C51.2353 103.484 52.1728 103.912 52.5746 104.796V100.818H53.713ZM48.5432 107.046C48.5432 108.332 49.1593 109.47 50.5522 109.47C51.9183 109.47 52.5746 108.332 52.5746 107.06C52.5746 105.76 51.8916 104.582 50.5254 104.582C49.1727 104.582 48.5432 105.72 48.5432 107.046ZM60.0509 100.725C60.5598 100.725 60.9214 101.1 60.9214 101.595C60.9214 102.077 60.5598 102.466 60.0509 102.466C59.5285 102.466 59.1803 102.077 59.1803 101.595C59.1803 101.1 59.5285 100.725 60.0509 100.725ZM59.475 110.421V103.658H60.6268V110.421H59.475ZM62.8488 103.658H63.7596L63.9872 104.622C64.389 103.912 65.0855 103.484 66.1168 103.484C67.3891 103.484 68.3936 104.22 68.3936 105.908V110.421H67.2552V106.176C67.2552 105.104 66.6525 104.568 65.8087 104.568C64.7774 104.568 63.9872 105.332 63.9872 106.537V110.421H62.8488V103.658ZM73.8358 101.167H79.461V102.399L76.5144 105.024C76.7421 104.97 76.9698 104.957 77.1841 104.957C78.6975 104.957 79.9029 105.961 79.9029 107.622C79.9029 109.578 78.2824 110.636 76.635 110.636C75.2689 110.636 73.9429 109.912 73.4742 108.399L74.5858 107.984C74.8671 109.028 75.7644 109.537 76.6886 109.537C77.7332 109.537 78.7243 108.868 78.7243 107.622C78.7243 106.417 77.8002 105.854 76.8091 105.854C76.3537 105.854 75.8716 105.988 75.4698 106.216L74.8939 105.225L78.1216 102.305H73.8358V101.167ZM84.8289 101.019C87.2129 101.019 88.2576 102.908 88.2576 105.814C88.2576 108.734 87.2129 110.636 84.8289 110.636C82.4449 110.636 81.4003 108.747 81.4003 105.841C81.4003 102.921 82.4449 101.019 84.8289 101.019ZM82.5923 105.841C82.5923 108.453 83.4628 109.537 84.8289 109.537C86.2085 109.537 87.0656 108.439 87.0656 105.814C87.0656 103.202 86.2085 102.118 84.8289 102.118C83.4628 102.118 82.5923 103.202 82.5923 105.841ZM93.533 103.658H94.4437L94.658 104.595C94.9393 103.899 95.7161 103.484 96.5063 103.484C97.3903 103.484 98.1671 103.979 98.3546 104.89C98.6894 103.979 99.5198 103.484 100.484 103.484C101.596 103.484 102.614 104.18 102.614 105.64V110.421H101.476V106.069C101.476 105.091 100.953 104.568 100.19 104.568C99.3323 104.568 98.6358 105.185 98.6358 106.323V110.421H97.4974V106.069C97.4974 105.091 96.9885 104.568 96.2117 104.568C95.3679 104.568 94.6714 105.185 94.6714 106.323V110.421H93.533V103.658ZM105.345 100.725C105.854 100.725 106.216 101.1 106.216 101.595C106.216 102.077 105.854 102.466 105.345 102.466C104.823 102.466 104.474 102.077 104.474 101.595C104.474 101.1 104.823 100.725 105.345 100.725ZM104.769 110.421V103.658H105.921V110.421H104.769ZM108.143 103.658H109.054L109.281 104.622C109.683 103.912 110.38 103.484 111.411 103.484C112.683 103.484 113.688 104.22 113.688 105.908V110.421H112.549V106.176C112.549 105.104 111.947 104.568 111.103 104.568C110.072 104.568 109.281 105.332 109.281 106.537V110.421H108.143V103.658ZM35.7604 121.019V130.421H34.555V123.055L31.796 129.095H30.4165L27.6441 123.055V130.421H26.4387V121.019H28.0191L31.0996 127.783L34.18 121.019H35.7604ZM38.6792 120.725C39.1881 120.725 39.5498 121.1 39.5498 121.595C39.5498 122.077 39.1881 122.466 38.6792 122.466C38.1569 122.466 37.8086 122.077 37.8086 121.595C37.8086 121.1 38.1569 120.725 38.6792 120.725ZM38.1033 130.421V123.658H39.2551V130.421H38.1033ZM42.6156 120.818V130.421H41.4771V120.818H42.6156ZM44.7993 120.818H45.9377V126.537L48.6164 123.658H50.1566L47.8798 126.015L50.5316 130.421H49.1923L47.0895 126.859L45.9377 128.037V130.421H44.7993V120.818ZM55.2628 123.658H56.1735L56.4012 124.622C56.803 123.912 57.4995 123.484 58.5307 123.484C59.8031 123.484 60.8076 124.22 60.8076 125.908V130.421H59.6692V126.176C59.6692 125.104 59.0665 124.568 58.2227 124.568C57.1914 124.568 56.4012 125.332 56.4012 126.537V130.421H55.2628V123.658ZM68.4182 127.368H63.5966C63.7306 128.854 64.6279 129.47 65.7128 129.47C66.5298 129.47 67.1191 129.109 67.5209 128.386L68.3646 128.948C67.7352 130.046 66.7039 130.542 65.619 130.542C63.9449 130.542 62.4716 129.43 62.4716 127.046C62.4716 124.662 64.0118 123.484 65.6056 123.484C67.0521 123.484 68.4182 124.394 68.4182 126.618V127.368ZM63.61 126.511H67.2932C67.2932 125.118 66.5298 124.502 65.5922 124.502C64.6279 124.502 63.7708 125.158 63.61 126.511ZM71.6873 130.542C70.6025 130.542 69.6783 129.926 69.6783 128.627C69.6783 127.153 70.8971 126.805 71.9954 126.524L72.7588 126.336C73.3347 126.189 73.8302 126.055 73.8302 125.426C73.8302 124.783 73.3079 124.448 72.4507 124.448C71.5132 124.448 70.8703 124.917 70.6694 125.627L69.7185 125.265C70.1069 124.086 71.2186 123.484 72.5311 123.484C74.0178 123.484 74.9821 124.193 74.9821 125.72V129.015C74.9821 129.417 75.1964 129.604 75.4776 129.604C75.6116 129.604 75.7589 129.551 75.9196 129.457V130.301C75.7053 130.462 75.424 130.542 75.1294 130.542C74.5401 130.542 73.9508 130.167 73.9106 129.256C73.5624 130.033 72.6516 130.542 71.6873 130.542ZM70.8436 128.533C70.8436 129.296 71.3793 129.578 72.0222 129.578C72.9731 129.578 73.8436 128.895 73.8436 127.649V126.765C73.5758 126.979 73.2142 127.086 72.7722 127.207L72.1025 127.368C71.4329 127.542 70.8436 127.729 70.8436 128.533ZM77.3931 123.658H78.3038L78.5315 124.622C78.8529 123.939 79.4422 123.577 80.2057 123.577C80.4199 123.577 80.6208 123.604 80.8485 123.658V124.783C80.6075 124.702 80.353 124.649 80.1119 124.649C79.2413 124.649 78.5315 125.319 78.5315 126.604V130.421H77.3931V123.658ZM88.1311 121.167V130.421H86.9525V122.774C86.5641 123.162 85.9078 123.484 84.9971 123.484V122.399C85.8141 122.399 86.7248 121.97 86.9525 121.167H88.1311ZM93.6706 121.019C96.0546 121.019 97.0993 122.908 97.0993 125.814C97.0993 128.734 96.0546 130.636 93.6706 130.636C91.2866 130.636 90.2419 128.747 90.2419 125.841C90.2419 122.921 91.2866 121.019 93.6706 121.019ZM91.4339 125.841C91.4339 128.453 92.3045 129.537 93.6706 129.537C95.0501 129.537 95.9073 128.439 95.9073 125.814C95.9073 123.202 95.0501 122.118 93.6706 122.118C92.3045 122.118 91.4339 123.202 91.4339 125.841ZM99.5506 128.841C100.046 128.841 100.381 129.216 100.381 129.685C100.381 130.14 100.046 130.515 99.5506 130.515C99.055 130.515 98.7202 130.14 98.7202 129.685C98.7202 129.216 99.055 128.841 99.5506 128.841ZM98.7202 125.064C98.7202 124.595 99.055 124.22 99.5506 124.22C100.046 124.22 100.381 124.595 100.381 125.064C100.381 125.519 100.046 125.894 99.5506 125.894C99.055 125.894 98.7202 125.519 98.7202 125.064ZM105.429 121.019C107.813 121.019 108.858 122.908 108.858 125.814C108.858 128.734 107.813 130.636 105.429 130.636C103.045 130.636 102.001 128.747 102.001 125.841C102.001 122.921 103.045 121.019 105.429 121.019ZM103.193 125.841C103.193 128.453 104.063 129.537 105.429 129.537C106.809 129.537 107.666 128.439 107.666 125.814C107.666 123.202 106.809 122.118 105.429 122.118C104.063 122.118 103.193 123.202 103.193 125.841ZM113.787 121.019C116.171 121.019 117.216 122.908 117.216 125.814C117.216 128.734 116.171 130.636 113.787 130.636C111.403 130.636 110.358 128.747 110.358 125.841C110.358 122.921 111.403 121.019 113.787 121.019ZM111.55 125.841C111.55 128.453 112.421 129.537 113.787 129.537C115.166 129.537 116.024 128.439 116.024 125.814C116.024 123.202 115.166 122.118 113.787 122.118C112.421 122.118 111.55 123.202 111.55 125.841ZM120.604 130.542C119.52 130.542 118.595 129.926 118.595 128.627C118.595 127.153 119.814 126.805 120.912 126.524L121.676 126.336C122.252 126.189 122.747 126.055 122.747 125.426C122.747 124.783 122.225 124.448 121.368 124.448C120.43 124.448 119.787 124.917 119.587 125.627L118.636 125.265C119.024 124.086 120.136 123.484 121.448 123.484C122.935 123.484 123.899 124.193 123.899 125.72V129.015C123.899 129.417 124.113 129.604 124.395 129.604C124.529 129.604 124.676 129.551 124.837 129.457V130.301C124.622 130.462 124.341 130.542 124.047 130.542C123.457 130.542 122.868 130.167 122.828 129.256C122.479 130.033 121.569 130.542 120.604 130.542ZM119.761 128.533C119.761 129.296 120.296 129.578 120.939 129.578C121.89 129.578 122.761 128.895 122.761 127.649V126.765C122.493 126.979 122.131 127.086 121.689 127.207L121.02 127.368C120.35 127.542 119.761 127.729 119.761 128.533ZM126.31 123.658H127.221L127.435 124.595C127.716 123.899 128.493 123.484 129.283 123.484C130.167 123.484 130.944 123.979 131.132 124.89C131.467 123.979 132.297 123.484 133.261 123.484C134.373 123.484 135.391 124.18 135.391 125.64V130.421H134.252V126.069C134.252 125.091 133.73 124.568 132.967 124.568C132.109 124.568 131.413 125.185 131.413 126.323V130.421H130.275V126.069C130.275 125.091 129.766 124.568 128.989 124.568C128.145 124.568 127.449 125.185 127.449 126.323V130.421H126.31V123.658Z" fill="#2E2A42"/>
<path d="M99.4013 60.5813C99.1717 60.5813 98.9995 60.5048 98.9995 60.3517V60.3134C98.9995 59.9499 99.7074 59.9308 99.7074 59.242V48.336C99.7074 47.6281 98.9995 47.6281 98.9995 47.2646V47.2263C98.9995 47.0732 99.1334 46.9967 99.3439 46.9967H107.399C107.705 46.9967 107.82 47.1498 107.878 47.4368L108.337 49.331C108.394 49.5797 108.279 49.7136 108.088 49.7136H108.011C107.399 49.7136 106.959 47.7812 105.945 47.7812H102.004C101.659 47.7812 101.449 47.9725 101.449 48.3934V53.8273H104.988C105.639 53.8273 105.696 52.6984 106.079 52.6984H106.194C106.347 52.6984 106.443 52.8132 106.443 53.0237V55.3771C106.443 55.5684 106.347 55.7023 106.194 55.7023H106.079C105.696 55.7023 105.639 54.6309 104.988 54.6309H101.449V59.242C101.449 59.9308 102.195 59.9499 102.195 60.3134V60.3517C102.195 60.5048 102.042 60.5813 101.812 60.5813H99.4013ZM116.136 57.8835C116.309 57.6157 116.749 57.6731 116.691 58.0366C116.462 59.1846 115.199 60.7726 112.807 60.7726C110.339 60.7726 108.368 58.8976 108.368 55.9128C108.368 53.215 110.339 51.206 112.884 51.206C115.18 51.206 116.442 52.7175 116.442 54.0377C116.442 54.65 116.117 54.9753 115.543 55.1666L110.243 56.9077C110.683 58.5532 111.851 59.5481 113.4 59.5481C114.816 59.5481 115.715 58.8019 116.136 57.8835ZM112.597 51.8183C111.047 51.8183 110.033 53.3489 110.033 55.3005C110.033 55.6449 110.052 55.9702 110.109 56.2763L114.376 54.7457C114.701 54.6117 114.835 54.4013 114.835 54.076C114.835 53.215 113.917 51.8183 112.597 51.8183ZM125.61 57.8835C125.782 57.6157 126.222 57.6731 126.164 58.0366C125.935 59.1846 124.672 60.7726 122.28 60.7726C119.812 60.7726 117.841 58.8976 117.841 55.9128C117.841 53.215 119.812 51.206 122.357 51.206C124.653 51.206 125.916 52.7175 125.916 54.0377C125.916 54.65 125.59 54.9753 125.016 55.1666L119.717 56.9077C120.157 58.5532 121.324 59.5481 122.873 59.5481C124.289 59.5481 125.189 58.8019 125.61 57.8835ZM122.07 51.8183C120.52 51.8183 119.506 53.3489 119.506 55.3005C119.506 55.6449 119.525 55.9702 119.583 56.2763L123.849 54.7457C124.175 54.6117 124.308 54.4013 124.308 54.076C124.308 53.215 123.39 51.8183 122.07 51.8183ZM136.192 59.242C136.192 59.9308 136.9 59.9882 136.9 60.3134V60.3708C136.9 60.5048 136.805 60.5813 136.613 60.5813H135.006C134.815 60.5813 134.7 60.4474 134.681 60.2752L134.643 59.3185C133.992 60.2752 132.863 60.7726 131.734 60.7726C129.4 60.7726 127.315 58.8784 127.315 55.9702C127.315 53.1767 129.247 51.206 131.792 51.206C132.959 51.206 133.916 51.7035 134.566 52.4497V48.2786C134.566 47.475 133.763 47.4942 133.763 47.1498V47.1115C133.763 46.9584 133.877 46.8628 134.05 46.7862L135.599 46.2696C136.001 46.1166 136.192 46.2314 136.192 46.5566V59.242ZM132.136 60.1412C133.227 60.1412 134.566 59.2228 134.566 57.3861H134.585L134.566 56.4103V54.4969C134.566 53.2724 133.342 51.8183 131.773 51.8183C130.127 51.8183 128.979 53.2533 128.96 55.3962C128.922 58.0175 130.223 60.1221 132.136 60.1412ZM139.835 49.5797C139.05 49.5797 138.553 49.1014 138.553 48.3934C138.553 47.6855 139.05 47.188 139.835 47.188C140.581 47.188 141.078 47.6855 141.078 48.3934C141.078 49.1014 140.581 49.5797 139.835 49.5797ZM138.725 60.5813C138.495 60.5813 138.361 60.4856 138.361 60.3326V60.256C138.361 59.8925 139.05 59.8925 139.05 59.2228V53.5211C139.05 52.7749 138.361 52.6219 138.361 52.3349V52.2966C138.361 52.1627 138.476 52.1053 138.648 52.0096L140.122 51.2826C140.523 51.0912 140.715 51.2826 140.715 51.5504V59.2228C140.715 59.8925 141.48 59.8925 141.48 60.256V60.3326C141.48 60.4856 141.308 60.5813 141.078 60.5813H138.725ZM152.026 59.2037C152.064 59.9116 152.714 59.9116 152.714 60.2752V60.3517C152.714 60.5048 152.561 60.6004 152.313 60.6004H150.036C149.787 60.6004 149.634 60.5048 149.634 60.3517V60.2752C149.634 59.9116 150.361 59.9116 150.323 59.2228L150.131 55.3962C150.036 53.0619 149.098 51.9522 147.778 51.9522C146.362 51.9522 145.386 53.0811 145.386 54.5926V59.242C145.386 59.9116 146.152 59.9116 146.152 60.2752V60.3517C146.152 60.5048 145.999 60.6004 145.75 60.6004H143.358C143.129 60.6004 142.976 60.5048 142.976 60.3517V60.2752C142.976 59.9116 143.722 59.9116 143.722 59.242V53.4446C143.722 52.6219 142.918 52.6601 142.918 52.3157V52.2583C142.918 52.1244 143.033 52.0479 143.224 51.9713L144.659 51.2826C145.023 51.0912 145.195 51.2826 145.195 51.5696V52.9663C145.75 51.8948 146.86 51.206 148.18 51.206C150.055 51.206 151.624 52.4688 151.815 55.4345L152.026 59.2037ZM162.056 51.3974C162.706 51.3974 162.821 51.6844 162.591 51.8757C162.247 52.2392 161.596 52.1627 161.022 52.3157C161.845 52.928 162.362 53.9803 162.362 54.9561C162.362 56.5442 161.482 57.7879 160.066 58.4001C161.73 58.7636 162.553 59.682 162.553 60.8109C162.553 62.5903 160.697 63.6809 158.114 63.6809C155.168 63.6809 153.752 61.9972 153.752 60.7726C153.752 60.39 153.962 60.0456 154.46 60.0456C155.646 60.0456 155.034 63.0495 158.229 63.0686C159.798 63.0686 160.85 62.2076 160.85 60.9257C160.85 59.7012 160.028 58.8593 158.726 58.7445C158.478 58.7636 158.248 58.7828 157.999 58.7828C155.703 58.7828 153.905 57.1373 153.905 55.0709C153.905 52.8323 155.589 51.206 158.133 51.206C159.434 51.206 159.645 51.3974 162.056 51.3974ZM158.306 58.1514C159.779 58.1514 160.697 57.0225 160.697 55.5493C160.697 53.5594 159.53 51.8183 157.827 51.8183C156.45 51.8183 155.569 52.928 155.569 54.3821C155.569 56.4294 156.756 58.1514 158.306 58.1514Z" fill="#343047"/>
<path d="M304.811 41.5391V59.665" stroke="#5934C5" stroke-width="1.25102" stroke-linecap="round"/>
<path d="M313.874 50.6021H295.748" stroke="#5934C5" stroke-width="1.25102" stroke-linecap="round"/>
<path fill-rule="evenodd" clip-rule="evenodd" d="M80.6637 45.5293H27.627C27.627 54.424 32.2786 62.1968 39.2067 66.3952V69.3224C39.2067 70.6269 39.7852 71.8881 40.9532 72.3849C47.176 75.0315 62.4249 75.2736 67.788 72.3606C68.7071 71.8614 69.084 70.7927 69.084 69.7203V66.3952C76.0122 62.1968 80.6637 54.424 80.6637 45.5293Z" fill="url(#paint0_linear_239_1499)"/>
<path d="M80.6637 45.5292C80.6637 49.5235 68.7911 52.7615 54.1454 52.7615C39.4997 52.7615 27.627 49.5235 27.627 45.5292C27.627 41.5349 39.4997 38.2969 54.1454 38.2969C68.7911 38.2969 80.6637 41.5349 80.6637 45.5292Z" fill="url(#paint1_linear_239_1499)"/>
<path d="M75.8451 44.3238C75.8451 47.6524 66.131 50.3507 54.1482 50.3507C42.1654 50.3507 32.4514 47.6524 32.4514 44.3238C32.4514 40.9953 42.1654 38.2969 54.1482 38.2969C66.131 38.2969 75.8451 40.9953 75.8451 44.3238Z" fill="#2E2A42"/>
<path fill-rule="evenodd" clip-rule="evenodd" d="M42.1432 67.6467C42.2944 67.3282 42.7983 67.153 43.2688 67.2553C48.8368 68.466 53.5594 68.5655 60.4428 68.3119C60.9362 68.2937 61.358 68.5499 61.3849 68.8839C61.4117 69.218 61.0335 69.5034 60.5401 69.5216C53.5771 69.7781 48.5979 69.6864 42.7215 68.4087C42.251 68.3064 41.9921 67.9652 42.1432 67.6467Z" fill="#2E2A42"/>
<path d="M61.7586 49.9064C59.0621 50.192 56.0939 50.35 52.977 50.35C45.6359 50.35 39.1197 49.4733 35.0351 48.1187C33.3045 47.5448 32.0104 46.885 31.2751 46.1698L31.0816 46.0151C28.0123 43.061 25.9066 39.1991 25.2478 34.8924C24.9997 33.2704 26.4327 31.9148 28.1353 32.1608C31.9953 32.7186 35.5082 34.2785 38.373 36.5523C38.7704 34.7799 39.509 33.1219 40.6102 31.7359C41.2013 30.9919 42.4747 30.8371 43.2433 31.4157C46.7533 34.0581 48.5868 38.8029 48.4323 43.3308C53.5093 41.942 59.6023 42.8647 63.2453 46.1512C63.9566 46.7929 63.977 48.0146 63.2875 48.6774C62.8196 49.1273 62.3073 49.537 61.7586 49.9064Z" fill="url(#paint2_linear_239_1499)"/>
<path d="M75.4922 45.5467C74.6206 47.8434 69.9938 49.7152 63.8876 50.3507C63.1995 45.0185 66.0255 37.352 74.0293 38.3927C74.9374 38.5108 75.6789 39.4641 75.7779 40.7037C75.898 42.2072 75.8458 43.5552 75.6482 44.7551C75.6457 44.7562 75.6431 44.7574 75.6405 44.7586C75.6405 44.7739 75.6403 44.7891 75.64 44.8044C75.5972 45.0585 75.5478 45.3059 75.4922 45.5467Z" fill="url(#paint3_linear_239_1499)"/>
<path fill-rule="evenodd" clip-rule="evenodd" d="M74.9823 32.6638C76.4819 30.7969 75.9862 28.0425 73.9289 26.8099C72.0893 25.7079 69.7028 26.2616 68.5423 28.0598L54.1553 50.3512C56.6767 50.2939 58.5154 50.2267 61.0719 49.9806L74.9823 32.6638Z" fill="url(#paint4_linear_239_1499)"/>
<defs>
<filter id="filter0_diii_239_1499" x="7.05701" y="8.08008" width="327.885" height="154.863" filterUnits="userSpaceOnUse" color-interpolation-filters="sRGB">
<feFlood flood-opacity="0" result="BackgroundImageFix"/>
<feColorMatrix in="SourceAlpha" type="matrix" values="0 0 0 0 0 0 0 0 0 0 0 0 0 0 0 0 0 0 127 0" result="hardAlpha"/>
<feOffset dy="0.956662"/>
<feGaussianBlur stdDeviation="0.478331"/>
<feComposite in2="hardAlpha" operator="out"/>
<feColorMatrix type="matrix" values="0 0 0 0 0 0 0 0 0 0 0 0 0 0 0 0 0 0 0.07 0"/>
<feBlend mode="normal" in2="BackgroundImageFix" result="effect1_dropShadow_239_1499"/>
<feBlend mode="normal" in="SourceGraphic" in2="effect1_dropShadow_239_1499" result="shape"/>
<feColorMatrix in="SourceAlpha" type="matrix" values="0 0 0 0 0 0 0 0 0 0 0 0 0 0 0 0 0 0 127 0" result="hardAlpha"/>
<feOffset/>
<feGaussianBlur stdDeviation="3.82665"/>
<feComposite in2="hardAlpha" operator="arithmetic" k2="-1" k3="1"/>
<feColorMatrix type="matrix" values="0 0 0 0 0 0 0 0 0 0 0 0 0 0 0 0 0 0 0.05 0"/>
<feBlend mode="normal" in2="shape" result="effect2_innerShadow_239_1499"/>
<feColorMatrix in="SourceAlpha" type="matrix" values="0 0 0 0 0 0 0 0 0 0 0 0 0 0 0 0 0 0 127 0" result="hardAlpha"/>
<feOffset dy="1.91332"/>
<feGaussianBlur stdDeviation="0.956662"/>
<feComposite in2="hardAlpha" operator="arithmetic" k2="-1" k3="1"/>
<feColorMatrix type="matrix" values="0 0 0 0 0 0 0 0 0 0 0 0 0 0 0 0 0 0 0.1 0"/>
<feBlend mode="normal" in2="effect2_innerShadow_239_1499" result="effect3_innerShadow_239_1499"/>
<feColorMatrix in="SourceAlpha" type="matrix" values="0 0 0 0 0 0 0 0 0 0 0 0 0 0 0 0 0 0 127 0" result="hardAlpha"/>
<feOffset dy="0.956662"/>
<feGaussianBlur stdDeviation="0.956662"/>
<feComposite in2="hardAlpha" operator="arithmetic" k2="-1" k3="1"/>
<feColorMatrix type="matrix" values="0 0 0 0 0 0 0 0 0 0 0 0 0 0 0 0 0 0 0.08 0"/>
<feBlend mode="normal" in2="effect3_innerShadow_239_1499" result="effect4_innerShadow_239_1499"/>
</filter>
<linearGradient id="paint0_linear_239_1499" x1="73.7356" y1="65.7384" x2="53.2783" y2="31.5496" gradientUnits="userSpaceOnUse">
<stop offset="0.436765" stop-color="#FF93AB"/>
<stop offset="1" stop-color="#FDB154"/>
</linearGradient>
<linearGradient id="paint1_linear_239_1499" x1="27.627" y1="45.5292" x2="41.9375" y2="73.2092" gradientUnits="userSpaceOnUse">
<stop offset="0.400572" stop-color="#FF93AB"/>
<stop offset="1" stop-color="#FDB154"/>
</linearGradient>
<linearGradient id="paint2_linear_239_1499" x1="38.4895" y1="43.8516" x2="21.2943" y2="29.3765" gradientUnits="userSpaceOnUse">
<stop stop-color="#74A551"/>
<stop offset="1" stop-color="#FFDF78"/>
</linearGradient>
<linearGradient id="paint3_linear_239_1499" x1="69.8003" y1="46.9809" x2="75.401" y2="46.2018" gradientUnits="userSpaceOnUse">
<stop stop-color="#74A551"/>
<stop offset="1" stop-color="#FFDF78"/>
</linearGradient>
<linearGradient id="paint4_linear_239_1499" x1="68.1116" y1="35.7984" x2="52.2579" y2="58.6049" gradientUnits="userSpaceOnUse">
<stop stop-color="#AFDDFF"/>
<stop offset="1" stop-color="#917BFF"/>
</linearGradient>
</defs>
</svg>
