<svg width="242" height="158" viewBox="0 0 242 158" fill="none" xmlns="http://www.w3.org/2000/svg">
<path fill-rule="evenodd" clip-rule="evenodd" d="M196.103 152.405C196.952 152.369 197.612 151.652 197.576 150.803L195.955 112.43C195.919 111.581 195.202 110.921 194.352 110.957C193.503 110.993 192.844 111.71 192.88 112.56L194.501 150.933C194.537 151.782 195.254 152.441 196.103 152.405Z" fill="#2E2A42"/>
<path d="M181.896 152.307L196.35 152.307C196.826 152.307 197.212 151.913 197.203 151.436C197.098 145.893 196.622 145.357 187.761 146.803C184.664 147.308 182.388 148.652 180.852 149.946C179.803 150.829 180.525 152.307 181.896 152.307Z" fill="#2E2A42"/>
<path fill-rule="evenodd" clip-rule="evenodd" d="M218.385 138.303C221.467 137.939 224.902 136.109 228.553 132.82C229.184 132.251 229.235 131.278 228.666 130.646C228.097 130.015 227.124 129.964 226.492 130.533C223.076 133.612 220.215 134.988 218.024 135.246C215.943 135.492 214.349 134.751 213.181 133.196C211.952 131.561 211.138 128.931 211.047 125.412C210.957 121.918 211.585 117.68 213.093 112.972C213.352 112.163 212.906 111.297 212.097 111.037C211.288 110.778 210.421 111.224 210.162 112.033C208.571 116.999 207.87 121.586 207.97 125.491C208.07 129.371 208.968 132.713 210.72 135.045C212.534 137.458 215.193 138.679 218.385 138.303Z" fill="#2E2A42"/>
<path d="M235.401 140.767L228.837 130.909C228.511 130.421 227.842 130.307 227.361 130.643C222.739 133.87 222.091 132.766 228.04 139.376C229.898 141.44 231.961 142.608 233.742 143.26C235.298 143.83 236.32 142.147 235.401 140.767Z" fill="#2E2A42"/>
<path d="M201.26 59.8601C219.623 60.3318 238.126 72.0431 241.235 91.2317C243.218 103.474 238.513 120.634 226.932 126.743C194.572 143.797 162.916 120.74 168.29 84.8277C171.141 65.7806 182.98 59.3765 201.26 59.8483V59.8601Z" fill="#FFA552"/>
<path d="M188.058 88.657C190.569 89.3347 193.367 88.698 195.34 86.7471C197.312 84.7964 197.956 82.0291 197.271 79.5454C198.487 79.8737 199.637 80.5103 200.592 81.4553C203.52 84.3513 203.52 89.0465 200.592 91.9424C197.664 94.8383 192.917 94.8383 189.989 91.9424C189.033 90.9972 188.39 89.8604 188.058 88.657Z" fill="white"/>
<path d="M188.065 88.6603C190.577 89.3379 193.375 88.7013 195.347 86.7504C197.32 84.7996 197.963 82.0324 197.278 79.5487C194.767 78.8711 191.969 79.5077 189.997 81.4586C188.024 83.4094 187.38 86.1766 188.065 88.6603Z" fill="#2E2A42"/>
<path d="M207.765 91.9426C210.693 94.8386 215.44 94.8386 218.368 91.9426C221.296 89.0467 221.296 84.3515 218.368 81.4556C217.412 80.5103 216.262 79.8736 215.046 79.5454C215.73 82.0291 215.087 84.7963 213.114 86.7471C211.142 88.6977 208.345 89.3344 205.833 88.6572C206.165 89.8606 206.809 90.9975 207.765 91.9426Z" fill="white"/>
<path d="M205.842 88.6603C208.354 89.3379 211.152 88.7013 213.124 86.7504C215.097 84.7997 215.74 82.0325 215.056 79.5488C212.544 78.8711 209.746 79.5078 207.774 81.4587C205.801 83.4094 205.158 86.1766 205.842 88.6603Z" fill="#2E2A42"/>
<path fill-rule="evenodd" clip-rule="evenodd" d="M124.223 58.3398C122.824 58.7248 122.002 60.1711 122.387 61.5702C125.844 74.1302 136.207 84.2162 146.158 86.5983C151.248 87.8167 156.508 87.0523 160.45 83.1661C164.295 79.3742 166.391 73.0829 166.391 64.3253C166.391 62.8742 165.215 61.6979 163.764 61.6979C162.313 61.6979 161.137 62.8742 161.137 64.3253C161.137 72.3993 159.186 77.0324 156.76 79.4243C154.43 81.7218 151.193 82.4004 147.381 81.488C139.529 79.6083 130.47 71.1365 127.453 60.1757C127.068 58.7767 125.622 57.9547 124.223 58.3398Z" fill="#2E2A42"/>
<path d="M161.066 67.1875L166.073 70.1623C168.388 60.2348 166.347 52.3739 160.08 52.0006C152.247 51.534 150.911 60.1519 153.185 63.8225C154.557 66.0385 157.34 64.9979 159.528 63.6095C160.27 63.1389 161.306 63.6856 161.246 64.562L161.066 67.1875Z" fill="#2E2A42"/>
<path fill-rule="evenodd" clip-rule="evenodd" d="M43.158 58.3474C44.557 58.7325 45.379 60.1788 44.9939 61.5778C41.5368 74.1379 31.1739 84.2238 21.2227 86.606C16.1328 87.8244 10.8726 87.0599 6.93115 83.1737C3.08538 79.3818 0.989502 73.0906 0.989502 64.3329C0.989502 62.8819 2.16581 61.7056 3.61687 61.7056C5.06793 61.7056 6.24424 62.8819 6.24424 64.3329C6.24424 72.4069 8.1946 77.04 10.6205 79.4319C12.9507 81.7294 16.1876 82.4081 19.9994 81.4956C27.8516 79.6159 36.9107 71.1441 39.9276 60.1833C40.3127 58.7843 41.759 57.9623 43.158 58.3474Z" fill="#2E2A42"/>
<path d="M6.29534 67.1916L1.2888 70.1664C-1.02666 60.2388 1.01513 52.378 7.28175 52.0047C15.115 51.5381 16.4503 60.1559 14.1771 63.8266C12.8047 66.0426 10.0222 65.0019 7.83389 63.6136C7.0921 63.143 6.05534 63.6896 6.1154 64.566L6.29534 67.1916Z" fill="#2E2A42"/>
<path fill-rule="evenodd" clip-rule="evenodd" d="M116.161 157.071C114.767 157.475 113.311 156.671 112.907 155.277L93.5792 88.4586C93.176 87.0647 93.9791 85.6079 95.373 85.2047C96.767 84.8015 98.2238 85.6046 98.627 86.9985L117.955 153.817C118.358 155.211 117.555 156.668 116.161 157.071Z" fill="#2E2A42"/>
<path d="M141.143 157.627L114.966 157.201C114.392 157.192 113.944 156.701 113.974 156.128C114.568 144.803 111.584 144.824 128.239 147.541C135.095 148.659 139.77 152.008 142.519 154.748C143.668 155.893 142.765 157.654 141.143 157.627Z" fill="#2E2A42"/>
<path fill-rule="evenodd" clip-rule="evenodd" d="M53.1771 157.073C54.5698 157.48 56.029 156.681 56.4364 155.289L75.982 88.4699C76.3893 87.0772 75.5906 85.618 74.1979 85.2106C72.8052 84.8032 71.3459 85.6019 70.9386 86.9946L51.393 153.813C50.9856 155.206 51.7844 156.665 53.1771 157.073Z" fill="#2E2A42"/>
<path d="M28.4347 157.634L54.6123 157.208C55.1862 157.198 55.6341 156.707 55.604 156.134C55.0098 144.81 57.9942 144.831 41.3395 147.547C34.4836 148.665 29.8085 152.014 27.0589 154.755C25.9101 155.9 26.8128 157.66 28.4347 157.634Z" fill="#2E2A42"/>
<path d="M80.9136 0.827273C111.518 1.61353 142.356 21.1324 147.539 53.1134C150.843 73.5168 143.002 102.117 123.701 112.299C69.7671 140.722 17.0069 102.294 25.9632 42.4399C30.7151 10.6948 50.4465 0.0213697 80.9136 0.807627V0.827273Z" fill="#FFA552"/>
<path d="M112.516 42.2927C108.349 41.1584 103.705 42.2241 100.432 45.4896C97.1588 48.7549 96.0905 53.3869 97.2271 57.5443C95.2083 56.9949 93.3012 55.9292 91.7156 54.3474C86.8566 49.5 86.8566 41.6409 91.7156 36.7935C96.5745 31.9461 104.452 31.9461 109.311 36.7935C110.897 38.3755 111.965 40.2784 112.516 42.2927Z" fill="white"/>
<path d="M112.523 42.2995C108.356 41.1652 103.712 42.2309 100.439 45.4964C97.1659 48.7617 96.0976 53.3936 97.2342 57.551C101.402 58.6853 106.045 57.6196 109.318 54.3541C112.592 51.0888 113.66 46.4569 112.523 42.2995Z" fill="#2E2A42"/>
<path d="M79.8614 36.7938C75.0024 31.9464 67.1245 31.9464 62.2656 36.7938C57.4066 41.6411 57.4066 49.5003 62.2656 54.3477C63.8516 55.9299 65.7594 56.9957 67.7788 57.545C66.6422 53.3877 67.7105 48.7557 70.9836 45.4905C74.2565 42.2254 78.8991 41.1596 83.0662 42.2931C82.5155 40.2788 81.4472 38.3759 79.8614 36.7938Z" fill="white"/>
<path d="M83.0725 42.3C78.905 41.1658 74.2616 42.2314 70.9883 45.4969C67.7152 48.7622 66.6469 53.3942 67.7835 57.5515C71.951 58.6858 76.5944 57.6201 79.8678 54.3546C83.1409 51.0893 84.2091 46.4574 83.0725 42.3Z" fill="#2E2A42"/>
</svg>
