<svg width="79" height="52" viewBox="0 0 79 52" fill="none" xmlns="http://www.w3.org/2000/svg">
<g clip-path="url(#clip0_66_778)">
<path d="M14.4429 26.8447C15.9761 26.8447 17.219 25.6018 17.219 24.0686C17.219 22.5353 15.9761 21.2924 14.4429 21.2924C12.9097 21.2924 11.6667 22.5353 11.6667 24.0686C11.6667 25.6018 12.9097 26.8447 14.4429 26.8447Z" fill="url(#paint0_radial_66_778)"/>
<path d="M7.4635 30.0156V30.0105C6.97717 26.5032 7.57664 23.754 9.29738 21.6027C11.7713 18.482 15.9203 17.9518 18.9328 18.8113C19.1946 18.8856 19.4766 18.8451 19.7029 18.6999C19.9291 18.5563 20.0828 18.3216 20.1267 18.0565C20.3294 16.8035 20.6874 15.3158 21.0352 14.2688C21.118 14.0206 21.0977 13.7572 20.9727 13.5275C20.8512 13.2962 20.6451 13.1307 20.3918 13.0598C19.4969 12.8065 16.3188 12.0297 12.9685 12.722C9.24335 13.4684 7.39427 14.9122 6.52292 15.7278V13.5799C6.52292 13.2996 6.39965 13.0344 6.18519 12.8538C5.97073 12.6748 5.69042 12.5988 5.41685 12.6461C3.76873 12.9331 2.62213 13.0429 1.03311 13.0665C0.536643 13.0733 0.127987 13.465 0.102657 13.9598C-0.677501 28.3303 3.2064 38.0654 4.41379 40.7081C4.56746 41.0441 4.90519 41.2603 5.27163 41.2603H5.27839C5.86266 41.2569 6.43174 41.2451 6.99743 41.2367C7.99036 41.2181 8.92757 41.2012 9.91036 41.2181C10.2447 41.2248 10.5537 41.0577 10.731 40.7723C10.9084 40.4886 10.9236 40.1407 10.7699 39.8435C9.58783 37.5436 7.75902 32.6921 7.46181 30.0206V30.0172L7.4635 30.0156Z" fill="url(#paint1_radial_66_778)"/>
<path d="M48.1332 41.2166C50.8182 41.2166 53.5943 40.7742 55.6494 40.0075C55.9247 39.9045 56.1307 39.6884 56.2202 39.4097C56.3097 39.1294 56.2658 38.8289 56.0986 38.5857C55.3573 37.4948 54.5366 35.7167 54.2005 34.6933C54.1229 34.4552 53.954 34.261 53.7277 34.1462C53.5014 34.0331 53.2448 34.0145 53.0033 34.0956C50.9212 34.7963 48.4811 35.4465 46.0393 35.0682C50.4635 30.7419 52.6453 25.7536 52.0323 21.3361C51.4244 16.5927 47.4459 13.19 42.7937 13.4214C40.0209 13.5277 37.3984 15.0982 35.6034 17.7241C33.9485 19.9717 33.1008 22.8491 33.219 25.8245C33.3389 29.136 34.2947 32.3647 35.9175 34.9551C34.8334 35.2118 33.7898 35.232 32.8931 35.0057C31.1318 34.4654 29.8316 33.1246 29.0311 31.0171C27.2158 26.549 28.9163 19.0412 30.0933 14.9665C31.245 11.0522 32.4051 8.504 34.7388 3.91593C34.8621 3.67276 34.8756 3.38907 34.7743 3.13746C34.6729 2.88585 34.4703 2.68659 34.2136 2.59371C32.606 2.01281 31.6249 1.58558 30.2723 0.955717C29.8164 0.742946 29.2743 0.923632 29.0362 1.36606C25.9038 7.19023 25.051 9.9326 24.0665 13.109L23.9635 13.4399C21.3967 21.1368 21.2329 28.268 23.4957 33.5011C23.6764 34.0398 23.9213 34.5093 24.1796 35.0057C24.2421 35.1223 24.3029 35.2421 24.3654 35.3654C23.364 36.024 22.236 36.176 20.9273 35.8264C18.9972 35.2489 17.7526 32.797 17.756 29.5818C17.756 29.315 17.6429 29.06 17.4419 28.881C17.241 28.702 16.9725 28.6159 16.704 28.6463L12.945 29.0634C12.4587 29.1174 12.0872 29.5446 12.1041 30.036C12.2003 33.1415 13.6137 37.4712 15.8073 39.3321C18.5851 41.8803 23.5734 41.2436 25.2722 40.7809C26.2972 40.4398 27.0909 39.9974 28.0973 39.4385L28.1345 39.4182C29.0582 39.9839 30.1068 40.4432 31.2534 40.786C34.0802 41.5763 37.4997 41.0933 40.8939 39.4233C42.1672 40.5091 44.5347 41.1423 47.5895 41.2115C47.7701 41.2149 47.9491 41.2166 48.1332 41.2166ZM40.8602 31.4798C40.1695 30.2117 39.3758 28.2325 39.2492 25.6996C39.2492 23.6175 40.3282 19.6812 42.9203 19.5681C44.5381 19.5681 45.6745 20.6235 45.889 22.3239C46.2655 25.3466 43.4573 29.1022 40.8602 31.4798Z" fill="url(#paint2_radial_66_778)"/>
<path d="M77.4868 14.1878C77.4328 13.9362 77.2757 13.715 77.0562 13.5816C76.835 13.4465 76.575 13.4094 76.3233 13.4769C74.9133 13.8602 73.7178 14.1524 72.1152 14.4293C71.8602 14.4732 71.6407 14.6151 71.4972 14.8295C71.3536 15.0423 71.3047 15.299 71.3587 15.5489C72.3179 19.9411 72.3483 24.6322 71.4381 28.4181C70.5498 32.1146 68.8865 34.5378 66.8686 35.0697C66.0124 35.3146 65.2863 35.1525 64.6497 34.5733C62.2856 32.4236 61.9512 25.0813 62.7516 20.7651C62.8445 20.2619 62.5254 19.7857 62.0255 19.6793C60.499 19.3534 59.5094 19.1187 58.0166 18.6661C57.765 18.5902 57.4932 18.6222 57.2669 18.7556C57.0406 18.8891 56.8802 19.1136 56.8245 19.3703C55.7522 24.3806 55.8467 29.3435 57.0862 33.3456C58.3274 37.3511 60.6543 40.0766 63.6618 41.0746C61.7216 42.385 56.1372 45.563 48.0401 45.2962C47.7817 45.2861 47.5318 45.384 47.3477 45.5698C47.1653 45.7522 47.064 46.0055 47.0725 46.2638C47.1046 47.2787 47.0843 48.2311 47.064 49.2392C47.0556 49.6513 47.0471 50.0667 47.0421 50.4905C47.0353 51.0005 47.4305 51.4176 47.9404 51.4396C48.3491 51.4581 48.7628 51.4666 49.1816 51.4666C52.748 51.4666 56.6151 50.8181 60.2051 49.6074C64.1194 48.2868 67.4292 46.4057 69.5265 44.3101C73.9694 39.8672 80.9097 30.0477 77.4868 14.1878Z" fill="url(#paint3_radial_66_778)"/>
</g>
<defs>
<radialGradient id="paint0_radial_66_778" cx="0" cy="0" r="1" gradientUnits="userSpaceOnUse" gradientTransform="translate(12.0351 26.2661) rotate(132.979) scale(6.30599 6.32739)">
<stop stop-color="#FF93AB"/>
<stop offset="0.826964" stop-color="#FFA552"/>
</radialGradient>
<radialGradient id="paint1_radial_66_778" cx="0" cy="0" r="1" gradientUnits="userSpaceOnUse" gradientTransform="translate(1.39868 38.2571) rotate(124.285) scale(28.9814 27.1368)">
<stop stop-color="#FF93AB"/>
<stop offset="0.826964" stop-color="#FFA552"/>
</radialGradient>
<radialGradient id="paint2_radial_66_778" cx="0" cy="0" r="1" gradientUnits="userSpaceOnUse" gradientTransform="translate(15.033 37.0117) rotate(135.564) scale(47.8882 48.1612)">
<stop stop-color="#FF93AB"/>
<stop offset="0.826964" stop-color="#FFA552"/>
</radialGradient>
<radialGradient id="paint3_radial_66_778" cx="0" cy="0" r="1" gradientUnits="userSpaceOnUse" gradientTransform="translate(49.1224 47.5042) rotate(127.546) scale(39.8472 38.7329)">
<stop stop-color="#FF93AB"/>
<stop offset="0.826964" stop-color="#FFA552"/>
</radialGradient>
<clipPath id="clip0_66_778">
<rect width="79" height="51" fill="white" transform="translate(0 0.5)"/>
</clipPath>
</defs>
</svg>
