<svg width="172" height="157" viewBox="0 0 172 157" fill="none" xmlns="http://www.w3.org/2000/svg">
<path fill-rule="evenodd" clip-rule="evenodd" d="M38.9086 154.692C38.0595 154.656 37.4002 153.939 37.4361 153.09L39.057 114.717C39.0929 113.868 39.8104 113.208 40.6595 113.244C41.5086 113.28 42.1679 113.998 42.132 114.847L40.5111 153.22C40.4752 154.069 39.7577 154.728 38.9086 154.692Z" fill="#2E2A42"/>
<path d="M53.1172 154.594L38.6633 154.594C38.1865 154.594 37.8012 154.2 37.8102 153.723C37.9152 148.18 38.3908 147.644 47.252 149.09C50.3489 149.595 52.6253 150.939 54.1612 152.233C55.2098 153.117 54.4884 154.594 53.1172 154.594Z" fill="#2E2A42"/>
<path fill-rule="evenodd" clip-rule="evenodd" d="M18.2286 154.649C19.04 154.902 19.9027 154.449 20.1556 153.638L31.8569 116.097C32.1097 115.285 31.6569 114.423 30.8455 114.17C30.0341 113.917 29.1714 114.37 28.9185 115.181L17.2172 152.722C16.9644 153.533 17.4171 154.396 18.2286 154.649Z" fill="#2E2A42"/>
<path d="M4.4846 154.579L18.9385 154.579C19.4153 154.579 19.8006 154.185 19.7916 153.708C19.6866 148.165 19.211 147.629 10.3498 149.074C7.25293 149.58 4.97652 150.924 3.44058 152.218C2.39197 153.101 3.11345 154.579 4.4846 154.579Z" fill="#2E2A42"/>
<path d="M36.5923 64.9629C35.9429 64.352 33.6148 61.9085 33.1737 61.7008C32.6101 61.432 32.2793 61.2609 31.7034 61.7008L6.96488 86.0993C-11.0101 107.443 8.55775 136.02 34.5338 133.98C60.4241 131.952 74.9561 104.511 56.0621 84.2422C50.1317 77.8768 42.9148 70.9983 36.58 64.9629H36.5923Z" fill="#D7BEFC"/>
<path d="M46.9429 99.0509C44.7757 99.6411 42.361 99.0865 40.6589 97.3868C38.9567 95.6872 38.4012 93.2762 38.9923 91.1122C37.9424 91.3982 36.9506 91.9529 36.1259 92.7763C33.5991 95.2993 33.5991 99.39 36.1259 101.913C38.6527 104.436 42.7495 104.436 45.2763 101.913C46.101 101.09 46.6565 100.099 46.9429 99.0509Z" fill="white"/>
<path d="M46.9376 99.0534C44.7703 99.6438 42.3555 99.0892 40.6533 97.3894C38.9512 95.6899 38.3957 93.2791 38.9866 91.1152C41.1539 90.5248 43.5687 91.0795 45.2709 92.7792C46.973 94.4787 47.5285 96.8896 46.9376 99.0534Z" fill="#2E2A42"/>
<path d="M29.9541 101.913C27.4273 104.436 23.3305 104.436 20.8037 101.913C18.2769 99.39 18.2769 95.2993 20.8037 92.7763C21.6284 91.9528 22.6203 91.3981 23.6703 91.1121C23.0791 93.2761 23.6346 95.6872 25.3368 97.3868C27.0389 99.0864 29.4535 99.6412 31.6206 99.051C31.3342 100.099 30.7787 101.09 29.9541 101.913Z" fill="white"/>
<path d="M31.6161 99.0534C29.4488 99.6438 27.034 99.0892 25.3317 97.3894C23.6297 95.6899 23.0741 93.2791 23.6651 91.1153C25.8323 90.5248 28.2471 91.0795 29.9494 92.7792C31.6514 94.4788 32.207 96.8896 31.6161 99.0534Z" fill="#2E2A42"/>
<path fill-rule="evenodd" clip-rule="evenodd" d="M122.685 154.708C121.235 154.654 120.116 154.3 120.17 152.85L122.704 84.7654C122.758 83.3155 123.977 82.1837 125.427 82.2376C126.877 82.2915 128.009 83.5106 127.955 84.9605L125.421 153.045C125.367 154.495 124.135 154.761 122.685 154.708Z" fill="#2E2A42"/>
<path d="M144.336 155.355L122.016 154.992C121.049 154.976 120.295 154.145 120.334 153.178C120.76 142.783 118.321 142.862 134.338 145.474C139.632 146.337 143.604 148.551 146.377 150.767C148.512 152.474 147.07 155.4 144.336 155.355Z" fill="#2E2A42"/>
<path fill-rule="evenodd" clip-rule="evenodd" d="M95.3 154.708C96.7501 154.654 97.8691 154.3 97.8151 152.85L95.2811 84.7654C95.2272 83.3155 94.0078 82.1837 92.5577 82.2376C91.1075 82.2915 89.9757 83.5106 90.0296 84.9605L92.5636 153.045C92.6176 154.495 93.8498 154.761 95.3 154.708Z" fill="#2E2A42"/>
<path d="M73.6618 155.355L95.9819 154.992C96.9493 154.976 97.7033 154.145 97.6637 153.178C97.2377 142.783 99.6768 142.862 83.6598 145.474C78.3665 146.337 74.3941 148.551 71.6213 150.767C69.4858 152.474 70.9282 155.4 73.6618 155.355Z" fill="#2E2A42"/>
<path d="M72.9894 118.329C71.4602 116.59 69.1091 117.511 67.1533 118.946C66.7585 119.236 66.2596 119.294 65.8124 119.179C64.6529 118.881 64.0568 117.387 63.2461 116.506C62.2839 115.461 61.2933 114.394 59.419 114.775L59.1664 118.412C58.5225 126.23 61.6422 132.122 68.0334 131.435C76.0225 130.577 75.908 121.65 72.9894 118.329Z" fill="#2E2A42"/>
<path fill-rule="evenodd" clip-rule="evenodd" d="M62.0132 55.5304C60.5621 55.5304 59.3858 56.7068 59.3858 58.1578L59.3869 120.763C59.3869 122.214 60.5632 123.39 62.0143 123.39C63.4653 123.39 64.6416 122.214 64.6416 120.763L64.6406 58.1577C64.6406 56.7067 63.4642 55.5304 62.0132 55.5304Z" fill="#2E2A42"/>
<path d="M169.542 118.329C168.012 116.589 165.661 117.511 163.706 118.946C163.311 119.235 162.812 119.294 162.365 119.179C161.205 118.88 160.609 117.387 159.798 116.506C158.836 115.461 157.846 114.393 155.971 114.774L155.719 118.411C155.075 126.229 158.194 132.121 164.586 131.435C172.575 130.576 172.46 121.649 169.542 118.329Z" fill="#2E2A42"/>
<path fill-rule="evenodd" clip-rule="evenodd" d="M158.566 55.5298C157.115 55.5298 155.939 56.7061 155.939 58.1572L155.94 120.762C155.94 122.213 157.116 123.389 158.567 123.389C160.018 123.389 161.194 122.213 161.194 120.762L161.193 58.1571C161.193 56.7061 160.017 55.5298 158.566 55.5298Z" fill="#2E2A42"/>
<path d="M117.145 6.24963C116.063 5.23149 112.182 1.15897 111.447 0.812809C110.508 0.364831 109.957 0.0797546 108.997 0.812809L67.7658 41.4769C37.8076 77.0504 70.4206 124.679 113.714 121.278C156.865 117.898 181.084 72.1634 149.595 38.3818C139.711 27.7729 127.682 16.3088 117.124 6.24963H117.145Z" fill="#D7BEFC"/>
<path d="M88.0669 57.3707C91.6779 56.3866 95.7012 57.3113 98.5373 60.1449C101.373 62.9784 102.299 66.9978 101.314 70.6054C103.064 70.1287 104.716 69.2039 106.09 67.8312C110.3 63.6249 110.3 56.8052 106.09 52.5989C101.88 48.3926 95.0539 48.3926 90.8437 52.5989C89.4697 53.9717 88.5441 55.6229 88.0669 57.3707Z" fill="white"/>
<path d="M88.0645 57.3733C91.6756 56.389 95.6991 57.3137 98.5354 60.1474C101.371 62.9807 102.297 66.9999 101.312 70.6073C97.7013 71.5916 93.6778 70.6669 90.8415 67.8332C88.0055 64.9999 87.0798 60.9808 88.0645 57.3733Z" fill="#2E2A42"/>
<path d="M116.369 52.5989C120.579 48.3926 127.405 48.3926 131.615 52.5989C135.826 56.8052 135.826 63.6249 131.615 67.8312C130.241 69.204 128.589 70.1288 126.839 70.6055C127.824 66.9979 126.899 62.9783 124.062 60.1448C121.226 57.3113 117.203 56.3866 113.592 57.3705C114.069 55.6227 114.995 53.9717 116.369 52.5989Z" fill="white"/>
<path d="M113.589 57.3733C117.2 56.389 121.224 57.3137 124.06 60.1474C126.896 62.9807 127.822 66.9998 126.837 70.6072C123.226 71.5915 119.202 70.6668 116.366 67.8332C113.53 64.9998 112.605 60.9807 113.589 57.3733Z" fill="#2E2A42"/>
</svg>
